<svg width="85" height="108" viewBox="0 0 85 108" fill="none" xmlns="http://www.w3.org/2000/svg">
<g id="&#229;&#155;&#190;&#229;&#177;&#130; 8">
<path id="Vector" d="M61.0141 97.3011C72.8246 97.1837 78.0135 84.2552 73.1985 74.4153C64.8249 53.6962 41.2332 51.8984 30.6117 57.1452C13.7677 65.5267 3.8395 88.2532 18.4272 95.7798C20.4946 96.9363 22.83 97.5317 25.2001 97.5064L61.0141 97.3011Z" fill="white"/>
<path id="Vector_2" d="M25.1161 98.3445C22.6286 98.3558 20.1806 97.7233 18.0113 96.5089C13.0787 93.9651 10.478 89.6109 10.5158 83.9366C10.583 73.8076 19.0617 61.9729 30.2294 56.3992C35.8847 53.6081 45.9516 52.4473 55.7076 56.1519C61.6359 58.4023 69.6105 63.3391 73.9632 74.08C76.6858 79.6621 76.4338 86.2583 73.3078 91.3124C70.6104 95.6666 66.2492 98.093 61.0225 98.1433L25.2086 98.3487L25.1161 98.3445ZM42.834 55.473C38.1031 55.473 33.9058 56.4494 30.9815 57.8952C20.4944 63.1169 12.2594 74.5577 12.1964 83.9408C12.1628 88.9488 14.4526 92.7875 18.8138 95.038C20.7602 96.1324 22.9618 96.6947 25.196 96.6682L61.0057 96.4628C65.6274 96.4167 69.4928 94.2711 71.8751 90.4239C74.6649 85.9231 74.8876 79.7794 72.4381 74.784V74.7295C70.9217 70.8353 68.5954 67.3057 65.6125 64.373C62.6296 61.4404 59.0577 59.1712 55.1319 57.715C51.2032 56.2288 47.0358 55.469 42.834 55.473Z" fill="#5BA68F"/>
<path id="Vector_3" d="M75.2447 78.5139L73.9842 77.4075C82.8663 67.3497 81.2613 60.6864 80.5974 58.9681C71.5473 59.6345 69.3331 65.313 69.0306 66.2433C69.0155 66.3029 68.9973 66.3616 68.976 66.4193L67.371 65.929C67.371 65.9039 67.3962 65.8368 67.4298 65.7362C67.9172 63.8336 66.7282 56.5165 65.8416 52.2294L65.6862 51.4751L66.4214 51.2571C80.1563 47.1586 82.3873 34.3977 82.568 33.1824C82.4545 32.7088 81.3075 32.4322 80.2445 32.3903L79.1269 35.2401L75.3203 33.2788L74.2027 35.6214L70.9381 34.272C67.497 43.345 58.5772 44.4262 55.947 44.5477C55.1361 47.519 50.9304 54.1865 50.0144 55.5904L48.5985 54.6852C51.0102 50.9135 54.4092 45.0464 54.405 43.7263V42.8463L55.2832 42.884C55.7327 42.884 66.3164 43.1899 69.6398 32.9016L69.9213 32.0383L73.3708 33.459L74.543 30.9822L78.2404 32.8849L79.0807 30.7224H79.6311C80.0891 30.7015 84.0931 30.6051 84.2528 33.1489V33.2243V33.2997C84.2528 33.4422 82.3663 47.804 67.6399 52.6401C68.3201 55.9494 68.8208 59.2929 69.1398 62.656C70.9507 60.3343 74.4758 57.5894 81.089 57.2667L81.5932 57.2415L81.8495 57.6606C82.0386 57.9833 86.4586 65.7949 75.2447 78.5139Z" fill="#5BA68F"/>
<path id="Vector_4" d="M11.3015 79.8676C-0.353611 67.5258 3.81012 59.5759 3.99078 59.2448L4.23447 58.8048H4.74286C11.3603 58.9012 14.9778 61.5288 16.8685 63.7834C17.0705 60.4124 17.4562 57.0548 18.0239 53.7256C3.14207 49.3966 0.780805 35.1103 0.747192 34.9636V34.8881V34.8127C0.818619 32.2689 4.82689 32.2312 5.28486 32.2312H5.83106L6.7512 34.3643L10.3771 32.336L11.6376 34.7708L15.0324 33.237L15.3433 34.0751C19.0155 44.2419 29.5866 43.5923 30.0487 43.563L30.9269 43.496L30.9521 44.3718C30.9899 45.6877 34.3847 51.077 36.7838 54.5177L35.4057 55.4773C34.494 54.1782 30.3092 48.1142 29.4311 45.2477C26.7967 45.2184 17.8517 44.4347 14.1081 35.4874L10.8771 36.9626L9.68387 34.6493L5.9445 36.7446L4.73025 33.9452C3.68827 34.0081 2.53285 34.3224 2.42781 34.7834C2.65469 36.1035 5.19242 48.6338 19.1794 52.2966L19.9272 52.4893L19.797 53.2479C19.0533 57.556 18.1164 64.9149 18.671 66.805L18.734 66.9894L17.1458 67.5384C17.1458 67.4797 17.1038 67.421 17.087 67.3623C16.7509 66.4446 14.3434 60.8415 5.27645 60.4853C4.68404 62.2454 3.30173 68.9506 12.5115 78.7193L11.3015 79.8676Z" fill="#5BA68F"/>
<path id="Vector_5" d="M4.81427 60.347C4.81427 60.347 4.96132 66.4278 10.1838 70.0235C14.5576 73.0366 13.9652 74.2645 13.9652 74.2645L17.9147 67.9113C17.9147 67.9113 15.4526 60.2757 4.81427 60.347Z" fill="#5BA68F"/>
<path id="Vector_6" d="M80.9966 58.6329C80.9966 58.6329 81.0554 64.7137 75.9548 68.4895C71.686 71.6494 72.3372 72.8521 72.3372 72.8521L68.1903 66.633C68.1903 66.633 70.3625 58.9095 80.9966 58.6329Z" fill="#5BA68F"/>
<path id="Vector_7" d="M71.7154 73.1035C71.3414 72.4163 71.3456 70.7944 75.5724 67.6556C76.9608 66.6078 78.0817 65.248 78.8439 63.6868C79.6061 62.1255 79.9881 60.4068 79.9588 58.6706L81.6394 58.5658C81.6394 58.8256 81.9798 64.9986 76.5766 68.9966C73.2994 71.423 73.2658 72.4707 73.2658 72.4791C73.2559 72.4125 73.2331 72.3484 73.1985 72.2905L71.7154 73.1035Z" fill="#5BA68F"/>
<path id="Vector_8" opacity="0.36" d="M36.5947 85.0096C36.4854 90.5372 23.906 90.7468 23.6077 85.2275C23.717 79.7041 36.2964 79.4904 36.5947 85.0096Z" fill="#F2A0A8"/>
<path id="Vector_9" d="M31.9016 34.4061C25.6749 34.5067 28.0194 24.231 27.7 21.2932C28.6097 22.01 29.2758 22.9889 29.6075 24.0968C30.0739 25.8444 28.9353 15.4723 32.9688 14.3156C33.7293 14.0935 31.5444 15.5184 32.7545 22.6049C33.5732 21.701 34.1168 20.5832 34.3217 19.3822C35.7544 20.6395 36.5947 23.7658 36.3636 26.8963C36.3552 26.8963 33.162 31.1583 31.9016 34.4061Z" fill="white"/>
<path id="Vector_10" d="M31.8092 35.0349C31.2217 35.0584 30.6358 34.9586 30.0893 34.742C29.5429 34.5255 29.0481 34.1969 28.637 33.7776C26.5741 31.6361 26.8304 27.2526 27.0152 24.0551C27.0946 23.1633 27.1143 22.2673 27.074 21.373L26.9186 19.9565L28.074 20.7946C28.4916 21.1201 28.8658 21.4976 29.1874 21.9178C29.3387 18.9842 29.9059 14.5504 32.7839 13.7206C32.9182 13.666 33.0659 13.6532 33.2077 13.6838C33.3494 13.7145 33.4785 13.7872 33.578 13.8925C33.6844 14.033 33.7454 14.2024 33.7529 14.3784C33.7604 14.5543 33.7141 14.7283 33.62 14.8773C33.3806 15.4808 32.7167 17.1822 33.1453 20.9539C33.4216 20.4455 33.6052 19.892 33.6873 19.3195L33.8343 18.1377L34.7292 18.9214C36.3048 20.3001 37.2502 23.6025 36.9855 26.9551V27.1395L36.8762 27.2861C36.8468 27.328 33.7209 31.5146 32.5066 34.6451L32.3554 35.039H31.9352L31.8092 35.0349ZM28.3387 22.8816C28.3387 23.2714 28.3009 23.6905 28.2757 24.1389C28.0992 27.1059 27.8555 31.171 29.5361 32.9395C30.051 33.4549 30.7439 33.7547 31.4731 33.7776C32.7041 30.8734 35.1662 27.4496 35.7292 26.6827C35.8679 24.4071 35.4183 22.1483 34.6032 20.7653C34.2774 21.6049 33.802 22.3787 33.1999 23.0493L32.3344 23.9503L32.1243 22.7182C31.5193 19.177 31.7378 17.002 32.0403 15.7071C30.5781 17.5259 30.4395 21.7921 30.3933 23.3552C30.3638 24.4113 30.3512 24.8513 29.763 24.9184C29.5025 24.9477 29.158 24.8555 28.9983 24.2562C28.8601 23.7633 28.6369 23.2982 28.3387 22.8816V22.8816Z" fill="#5BA68F"/>
<path id="Vector_11" d="M53.3295 37.2181C53.5312 39.8457 57.8041 25.3876 55.4555 19.1685C52.3421 25.2409 53.0732 21.5531 53.0732 21.5531C53.611 15.9249 52.0816 14.9736 50.9724 11.952C49.6699 8.44857 50.6237 5.24683 48.6742 2.31329C48.8422 4.70622 47.4515 14.0474 46.8255 12.1281C46.1995 10.2087 45.023 9.63874 45.023 9.63874C44.5399 13.7205 43.5021 15.3382 43.5021 15.3382C39.2459 20.8993 41.8887 25.2661 41.8887 25.2661C41.8887 25.2661 52.3589 24.5537 53.3295 37.2181Z" fill="white"/>
<path id="Vector_12" d="M53.4555 38.1652C53.374 38.1636 53.2933 38.1494 53.216 38.1233C53.059 38.047 52.927 37.9276 52.8355 37.7792C52.744 37.6308 52.6967 37.4594 52.6993 37.2852V37.2852C51.7917 25.396 42.3425 25.8863 41.9223 25.9115L41.54 25.9366L41.3425 25.6097C41.2248 25.417 38.5359 20.8239 42.9685 14.9987C43.0693 14.8311 43.96 13.226 44.3886 9.58427L44.4936 8.70421L45.2919 9.08976C46.0218 9.51862 46.6069 10.1548 46.9725 10.9169C47.4935 8.7964 48.149 4.1279 48.0271 2.37197L47.8633 0L49.1826 1.97804C50.3758 3.77168 50.5607 5.67848 50.7455 7.54337C50.828 8.9693 51.0978 10.3783 51.548 11.7341C51.8127 12.4466 52.1068 13.0458 52.3883 13.6284C53.2286 15.3675 54.0395 17.0187 53.7538 20.9748C54.0353 20.5054 54.4093 19.8349 54.8967 18.8794L55.5437 17.6221L56.0479 18.9548C58.1487 24.474 55.174 36.7446 53.9975 37.9306C53.8549 38.0769 53.6601 38.1612 53.4555 38.1652V38.1652ZM42.2752 24.6542C44.2163 24.6836 52.1531 25.4379 53.7496 35.3993C54.7286 32.2144 56.1193 25.3038 55.2706 20.8658C54.0101 23.1414 53.5102 23.4515 52.9219 23.2503C52.4051 23.0701 52.2497 22.4876 52.4472 21.4651C52.8295 17.4168 52.132 15.9877 51.2539 14.1773C50.9243 13.518 50.6284 12.8424 50.3674 12.1532C49.8704 10.6968 49.5736 9.17988 49.4851 7.64395C49.4198 6.82104 49.3076 6.00252 49.1489 5.19235C49.0523 6.19394 48.9137 7.26678 48.7666 8.21808C48.0523 12.8279 47.544 12.9369 47.1322 13.0165C46.9768 13.0458 46.4474 13.0877 46.2037 12.3376C46.045 11.8254 45.8007 11.3437 45.481 10.9127C44.9474 14.2486 44.0735 15.6273 44.0231 15.6944L43.9937 15.7363C40.6618 20.1156 41.8005 23.6149 42.2752 24.6542Z" fill="#5BA68F"/>
<path id="Vector_13" d="M40.0106 30.3873C40.2375 27.3699 39.2039 28.1787 38.9224 30.5297C38.5089 34.2785 38.5667 38.0642 39.0946 41.7987C39.0946 42.4147 39.9097 44.9543 40.1955 43.3451C40.061 39.0915 39.5904 34.6702 40.0106 30.3873Z" fill="#5BA68F"/>
<path id="Vector_14" d="M39.9308 44.0825H39.9013C39.3047 44.0406 38.893 42.1422 38.8846 41.807C38.3538 38.0572 38.2959 34.256 38.7123 30.4919C38.851 29.3436 39.2165 28.2079 39.7249 28.2079H39.7585C39.9098 28.2079 40.3803 28.2708 40.2207 30.3913C39.914 33.4967 40.082 36.7152 40.2459 39.8289C40.3047 40.9772 40.3677 42.1674 40.4055 43.3198V43.3617C40.3677 43.5838 40.2753 44.0825 39.9308 44.0825ZM39.7081 28.6605C39.5568 28.7988 39.2879 29.4317 39.1283 30.5548C38.717 34.2856 38.7762 38.0531 39.3047 41.7692C39.38 42.4203 39.5842 43.0499 39.9055 43.6216C39.9415 43.5269 39.9669 43.4285 39.9812 43.3282C39.9476 42.1841 39.8845 41.0065 39.8257 39.8666C39.6619 36.7403 39.4938 33.526 39.8215 30.3704C39.8929 29.1425 39.7627 28.7653 39.7081 28.6605Z" fill="white"/>
<path id="Vector_15" d="M40.0106 30.3873C40.2375 27.3699 39.2039 28.1787 38.9224 30.5297C38.5089 34.2785 38.5667 38.0642 39.0946 41.7987C39.0946 42.4147 39.9097 44.9543 40.1955 43.3451C40.061 39.0915 39.5904 34.6702 40.0106 30.3873Z" fill="#5BA68F"/>
<path id="Vector_16" d="M39.9308 44.0825H39.9013C39.3047 44.0406 38.893 42.1422 38.8846 41.807C38.3538 38.0572 38.2959 34.256 38.7123 30.4919C38.851 29.3436 39.2165 28.2079 39.7249 28.2079H39.7585C39.9098 28.2079 40.3803 28.2708 40.2207 30.3913C39.914 33.4967 40.082 36.7152 40.2459 39.8289C40.3047 40.9772 40.3677 42.1674 40.4055 43.3198V43.3617C40.3677 43.5838 40.2753 44.0825 39.9308 44.0825ZM39.7081 28.6605C39.5568 28.7988 39.2879 29.4317 39.1283 30.5548C38.717 34.2856 38.7762 38.0531 39.3047 41.7692C39.38 42.4203 39.5842 43.0499 39.9055 43.6216C39.9415 43.5269 39.9669 43.4285 39.9812 43.3282C39.9476 42.1841 39.8845 41.0065 39.8257 39.8666C39.6619 36.7403 39.4938 33.526 39.8215 30.3704C39.8929 29.1425 39.7627 28.7653 39.7081 28.6605Z" fill="white"/>
<path id="Vector_17" d="M40.0106 30.3873C40.2375 27.3699 39.2039 28.1787 38.9224 30.5297C38.5089 34.2785 38.5667 38.0642 39.0946 41.7987C39.0946 42.4147 39.9097 44.9543 40.1955 43.3451C40.061 39.0915 39.5904 34.6702 40.0106 30.3873Z" fill="#5BA68F"/>
<path id="Vector_18" d="M39.9308 44.0825H39.9013C39.3047 44.0406 38.893 42.1422 38.8846 41.807C38.3538 38.0572 38.2959 34.256 38.7123 30.4919C38.851 29.3436 39.2165 28.2079 39.7249 28.2079H39.7585C39.9098 28.2079 40.3803 28.2708 40.2207 30.3913C39.914 33.4967 40.082 36.7152 40.2459 39.8289C40.3047 40.9772 40.3677 42.1674 40.4055 43.3198V43.3617C40.3677 43.5838 40.2753 44.0825 39.9308 44.0825ZM39.7081 28.6605C39.5568 28.7988 39.2879 29.4317 39.1283 30.5548C38.717 34.2856 38.7762 38.0531 39.3047 41.7692C39.38 42.4203 39.5842 43.0499 39.9055 43.6216C39.9415 43.5269 39.9669 43.4285 39.9812 43.3282C39.9476 42.1841 39.8845 41.0065 39.8257 39.8666C39.6619 36.7403 39.4938 33.526 39.8215 30.3704C39.8929 29.1425 39.7627 28.7653 39.7081 28.6605Z" fill="white"/>
<path id="Vector_19" d="M40.0106 30.3873C40.2375 27.3699 39.2039 28.1787 38.9224 30.5297C38.5089 34.2785 38.5667 38.0642 39.0946 41.7987C39.0946 42.4147 39.9097 44.9543 40.1955 43.3451C40.061 39.0915 39.5904 34.6702 40.0106 30.3873Z" fill="#5BA68F"/>
<path id="Vector_20" d="M39.9308 44.0825H39.9013C39.3047 44.0406 38.893 42.1422 38.8846 41.807C38.3538 38.0572 38.2959 34.256 38.7123 30.4919C38.851 29.3436 39.2165 28.2079 39.7249 28.2079H39.7585C39.9098 28.2079 40.3803 28.2708 40.2207 30.3913C39.914 33.4967 40.082 36.7152 40.2459 39.8289C40.3047 40.9772 40.3677 42.1674 40.4055 43.3198V43.3617C40.3677 43.5838 40.2753 44.0825 39.9308 44.0825ZM39.7081 28.6605C39.5568 28.7988 39.2879 29.4317 39.1283 30.5548C38.717 34.2856 38.7762 38.0531 39.3047 41.7692C39.38 42.4203 39.5842 43.0499 39.9055 43.6216C39.9415 43.5269 39.9669 43.4285 39.9812 43.3282C39.9476 42.1841 39.8845 41.0065 39.8257 39.8666C39.6619 36.7403 39.4938 33.526 39.8215 30.3704C39.8929 29.1425 39.7627 28.7653 39.7081 28.6605Z" fill="white"/>
<path id="Vector_21" d="M40.0106 30.3873C40.2375 27.3699 39.2039 28.1787 38.9224 30.5297C38.5089 34.2785 38.5667 38.0642 39.0946 41.7987C39.0946 42.4147 39.9097 44.9543 40.1955 43.3451C40.061 39.0915 39.5904 34.6702 40.0106 30.3873Z" fill="#5BA68F"/>
<path id="Vector_22" d="M39.9308 44.0825H39.9013C39.3047 44.0406 38.893 42.1422 38.8846 41.807C38.3538 38.0572 38.2959 34.256 38.7123 30.4919C38.851 29.3436 39.2165 28.2079 39.7249 28.2079H39.7585C39.9098 28.2079 40.3803 28.2708 40.2207 30.3913C39.914 33.4967 40.082 36.7152 40.2459 39.8289C40.3047 40.9772 40.3677 42.1674 40.4055 43.3198V43.3617C40.3677 43.5838 40.2753 44.0825 39.9308 44.0825ZM39.7081 28.6605C39.5568 28.7988 39.2879 29.4317 39.1283 30.5548C38.717 34.2856 38.7762 38.0531 39.3047 41.7692C39.38 42.4203 39.5842 43.0499 39.9055 43.6216C39.9415 43.5269 39.9669 43.4285 39.9812 43.3282C39.9476 42.1841 39.8845 41.0065 39.8257 39.8666C39.6619 36.7403 39.4938 33.526 39.8215 30.3704C39.8929 29.1425 39.7627 28.7653 39.7081 28.6605Z" fill="white"/>
<path id="Vector_23" d="M40.0106 30.3873C40.2375 27.3699 39.2039 28.1787 38.9224 30.5297C38.5089 34.2785 38.5667 38.0642 39.0946 41.7987C39.0946 42.4147 39.9097 44.9543 40.1955 43.3451C40.061 39.0915 39.5904 34.6702 40.0106 30.3873Z" fill="#5BA68F"/>
<path id="Vector_24" d="M39.9308 44.0825H39.9013C39.3047 44.0406 38.893 42.1422 38.8846 41.807C38.3538 38.0572 38.2959 34.256 38.7123 30.4919C38.851 29.3436 39.2165 28.2079 39.7249 28.2079H39.7585C39.9098 28.2079 40.3803 28.2708 40.2207 30.3913C39.914 33.4967 40.082 36.7152 40.2459 39.8289C40.3047 40.9772 40.3677 42.1674 40.4055 43.3198V43.3617C40.3677 43.5838 40.2753 44.0825 39.9308 44.0825ZM39.7081 28.6605C39.5568 28.7988 39.2879 29.4317 39.1283 30.5548C38.717 34.2856 38.7762 38.0531 39.3047 41.7692C39.38 42.4203 39.5842 43.0499 39.9055 43.6216C39.9415 43.5269 39.9669 43.4285 39.9812 43.3282C39.9476 42.1841 39.8845 41.0065 39.8257 39.8666C39.6619 36.7403 39.4938 33.526 39.8215 30.3704C39.8929 29.1425 39.7627 28.7653 39.7081 28.6605Z" fill="white"/>
<path id="Vector_25" d="M40.0106 30.3873C40.2375 27.3699 39.2039 28.1787 38.9224 30.5297C38.5089 34.2785 38.5667 38.0642 39.0946 41.7987C39.0946 42.4147 39.9097 44.9543 40.1955 43.3451C40.061 39.0915 39.5904 34.6702 40.0106 30.3873Z" fill="#5BA68F"/>
<path id="Vector_26" d="M39.9308 44.0825H39.9013C39.3047 44.0406 38.893 42.1422 38.8846 41.807C38.3538 38.0572 38.2959 34.256 38.7123 30.4919C38.851 29.3436 39.2165 28.2079 39.7249 28.2079H39.7585C39.9098 28.2079 40.3803 28.2708 40.2207 30.3913C39.914 33.4967 40.082 36.7152 40.2459 39.8289C40.3047 40.9772 40.3677 42.1674 40.4055 43.3198V43.3617C40.3677 43.5838 40.2753 44.0825 39.9308 44.0825ZM39.7081 28.6605C39.5568 28.7988 39.2879 29.4317 39.1283 30.5548C38.717 34.2856 38.7762 38.0531 39.3047 41.7692C39.38 42.4203 39.5842 43.0499 39.9055 43.6216C39.9415 43.5269 39.9669 43.4285 39.9812 43.3282C39.9476 42.1841 39.8845 41.0065 39.8257 39.8666C39.6619 36.7403 39.4938 33.526 39.8215 30.3704C39.8929 29.1425 39.7627 28.7653 39.7081 28.6605Z" fill="white"/>
<path id="Vector_27" d="M40.0106 30.3873C40.2375 27.3699 39.2039 28.1787 38.9224 30.5297C38.5089 34.2785 38.5667 38.0642 39.0946 41.7987C39.0946 42.4147 39.9097 44.9543 40.1955 43.3451C40.061 39.0915 39.5904 34.6702 40.0106 30.3873Z" fill="#5BA68F"/>
<path id="Vector_28" d="M39.9308 44.0825H39.9013C39.3047 44.0406 38.893 42.1422 38.8846 41.807C38.3538 38.0572 38.2959 34.256 38.7123 30.4919C38.851 29.3436 39.2165 28.2079 39.7249 28.2079H39.7585C39.9098 28.2079 40.3803 28.2708 40.2207 30.3913C39.914 33.4967 40.082 36.7152 40.2459 39.8289C40.3047 40.9772 40.3677 42.1674 40.4055 43.3198V43.3617C40.3677 43.5838 40.2753 44.0825 39.9308 44.0825ZM39.7081 28.6605C39.5568 28.7988 39.2879 29.4317 39.1283 30.5548C38.717 34.2856 38.7762 38.0531 39.3047 41.7692C39.38 42.4203 39.5842 43.0499 39.9055 43.6216C39.9415 43.5269 39.9669 43.4285 39.9812 43.3282C39.9476 42.1841 39.8845 41.0065 39.8257 39.8666C39.6619 36.7403 39.4938 33.526 39.8215 30.3704C39.8929 29.1425 39.7627 28.7653 39.7081 28.6605Z" fill="white"/>
<path id="Vector_29" d="M40.0106 30.3873C40.2375 27.3699 39.2039 28.1787 38.9224 30.5297C38.5089 34.2785 38.5667 38.0642 39.0946 41.7987C39.0946 42.4147 39.9097 44.9543 40.1955 43.3451C40.061 39.0915 39.5904 34.6702 40.0106 30.3873Z" fill="#5BA68F"/>
<path id="Vector_30" d="M39.9308 44.0825H39.9013C39.3047 44.0406 38.893 42.1422 38.8846 41.807C38.3538 38.0572 38.2959 34.256 38.7123 30.4919C38.851 29.3436 39.2165 28.2079 39.7249 28.2079H39.7585C39.9098 28.2079 40.3803 28.2708 40.2207 30.3913C39.914 33.4967 40.082 36.7152 40.2459 39.8289C40.3047 40.9772 40.3677 42.1674 40.4055 43.3198V43.3617C40.3677 43.5838 40.2753 44.0825 39.9308 44.0825ZM39.7081 28.6605C39.5568 28.7988 39.2879 29.4317 39.1283 30.5548C38.717 34.2856 38.7762 38.0531 39.3047 41.7692C39.38 42.4203 39.5842 43.0499 39.9055 43.6216C39.9415 43.5269 39.9669 43.4285 39.9812 43.3282C39.9476 42.1841 39.8845 41.0065 39.8257 39.8666C39.6619 36.7403 39.4938 33.526 39.8215 30.3704C39.8929 29.1425 39.7627 28.7653 39.7081 28.6605Z" fill="white"/>
<path id="Vector_31" d="M40.0106 30.3873C40.2375 27.3699 39.2039 28.1787 38.9224 30.5297C38.5089 34.2785 38.5667 38.0642 39.0946 41.7987C39.0946 42.4147 39.9097 44.9543 40.1955 43.3451C40.061 39.0915 39.5904 34.6702 40.0106 30.3873Z" fill="#5BA68F"/>
<path id="Vector_32" d="M39.9308 44.0825H39.9013C39.3047 44.0406 38.893 42.1422 38.8846 41.807C38.3538 38.0572 38.2959 34.256 38.7123 30.4919C38.851 29.3436 39.2165 28.2079 39.7249 28.2079H39.7585C39.9098 28.2079 40.3803 28.2708 40.2207 30.3913C39.914 33.4967 40.082 36.7152 40.2459 39.8289C40.3047 40.9772 40.3677 42.1674 40.4055 43.3198V43.3617C40.3677 43.5838 40.2753 44.0825 39.9308 44.0825ZM39.7081 28.6605C39.5568 28.7988 39.2879 29.4317 39.1283 30.5548C38.717 34.2856 38.7762 38.0531 39.3047 41.7692C39.38 42.4203 39.5842 43.0499 39.9055 43.6216C39.9415 43.5269 39.9669 43.4285 39.9812 43.3282C39.9476 42.1841 39.8845 41.0065 39.8257 39.8666C39.6619 36.7403 39.4938 33.526 39.8215 30.3704C39.8929 29.1425 39.7627 28.7653 39.7081 28.6605Z" fill="white"/>
<path id="Vector_33" d="M40.0106 30.3873C40.2375 27.3699 39.2039 28.1787 38.9224 30.5297C38.5089 34.2785 38.5667 38.0642 39.0946 41.7987C39.0946 42.4147 39.9097 44.9543 40.1955 43.3451C40.061 39.0915 39.5904 34.6702 40.0106 30.3873Z" fill="#5BA68F"/>
<path id="Vector_34" d="M39.9308 44.0825H39.9013C39.3047 44.0406 38.893 42.1422 38.8846 41.807C38.3538 38.0572 38.2959 34.256 38.7123 30.4919C38.851 29.3436 39.2165 28.2079 39.7249 28.2079H39.7585C39.9098 28.2079 40.3803 28.2708 40.2207 30.3913C39.914 33.4967 40.082 36.7152 40.2459 39.8289C40.3047 40.9772 40.3677 42.1674 40.4055 43.3198V43.3617C40.3677 43.5838 40.2753 44.0825 39.9308 44.0825ZM39.7081 28.6605C39.5568 28.7988 39.2879 29.4317 39.1283 30.5548C38.717 34.2856 38.7762 38.0531 39.3047 41.7692C39.38 42.4203 39.5842 43.0499 39.9055 43.6216C39.9415 43.5269 39.9669 43.4285 39.9812 43.3282C39.9476 42.1841 39.8845 41.0065 39.8257 39.8666C39.6619 36.7403 39.4938 33.526 39.8215 30.3704C39.8929 29.1425 39.7627 28.7653 39.7081 28.6605Z" fill="white"/>
<path id="Vector_35" d="M40.0106 30.3873C40.2375 27.3699 39.2039 28.1787 38.9224 30.5297C38.5089 34.2785 38.5667 38.0642 39.0946 41.7987C39.0946 42.4147 39.9097 44.9543 40.1955 43.3451C40.061 39.0915 39.5904 34.6702 40.0106 30.3873Z" fill="#5BA68F"/>
<path id="Vector_36" d="M39.9308 44.0825H39.9013C39.3047 44.0406 38.893 42.1422 38.8846 41.807C38.3538 38.0572 38.2959 34.256 38.7123 30.4919C38.851 29.3436 39.2165 28.2079 39.7249 28.2079H39.7585C39.9098 28.2079 40.3803 28.2708 40.2207 30.3913C39.914 33.4967 40.082 36.7152 40.2459 39.8289C40.3047 40.9772 40.3677 42.1674 40.4055 43.3198V43.3617C40.3677 43.5838 40.2753 44.0825 39.9308 44.0825ZM39.7081 28.6605C39.5568 28.7988 39.2879 29.4317 39.1283 30.5548C38.717 34.2856 38.7762 38.0531 39.3047 41.7692C39.38 42.4203 39.5842 43.0499 39.9055 43.6216C39.9415 43.5269 39.9669 43.4285 39.9812 43.3282C39.9476 42.1841 39.8845 41.0065 39.8257 39.8666C39.6619 36.7403 39.4938 33.526 39.8215 30.3704C39.8929 29.1425 39.7627 28.7653 39.7081 28.6605Z" fill="white"/>
<path id="Vector_37" d="M40.0106 30.3873C40.2375 27.3699 39.2039 28.1787 38.9224 30.5297C38.5089 34.2785 38.5667 38.0642 39.0946 41.7987C39.0946 42.4147 39.9097 44.9543 40.1955 43.3451C40.061 39.0915 39.5904 34.6702 40.0106 30.3873Z" fill="#5BA68F"/>
<path id="Vector_38" d="M39.9308 44.0825H39.9013C39.3047 44.0406 38.893 42.1422 38.8846 41.807C38.3538 38.0572 38.2959 34.256 38.7123 30.4919C38.851 29.3436 39.2165 28.2079 39.7249 28.2079H39.7585C39.9098 28.2079 40.3803 28.2708 40.2207 30.3913C39.914 33.4967 40.082 36.7152 40.2459 39.8289C40.3047 40.9772 40.3677 42.1674 40.4055 43.3198V43.3617C40.3677 43.5838 40.2753 44.0825 39.9308 44.0825ZM39.7081 28.6605C39.5568 28.7988 39.2879 29.4317 39.1283 30.5548C38.717 34.2856 38.7762 38.0531 39.3047 41.7692C39.38 42.4203 39.5842 43.0499 39.9055 43.6216C39.9415 43.5269 39.9669 43.4285 39.9812 43.3282C39.9476 42.1841 39.8845 41.0065 39.8257 39.8666C39.6619 36.7403 39.4938 33.526 39.8215 30.3704C39.8929 29.1425 39.7627 28.7653 39.7081 28.6605Z" fill="white"/>
<path id="Vector_39" d="M40.0106 30.3873C40.2375 27.3699 39.2039 28.1787 38.9224 30.5297C38.5089 34.2785 38.5667 38.0642 39.0946 41.7987C39.0946 42.4147 39.9097 44.9543 40.1955 43.3451C40.061 39.0915 39.5904 34.6702 40.0106 30.3873Z" fill="#5BA68F"/>
<path id="Vector_40" d="M39.9308 44.0825H39.9013C39.3047 44.0406 38.893 42.1422 38.8846 41.807C38.3538 38.0572 38.2959 34.256 38.7123 30.4919C38.851 29.3436 39.2165 28.2079 39.7249 28.2079H39.7585C39.9098 28.2079 40.3803 28.2708 40.2207 30.3913C39.914 33.4967 40.082 36.7152 40.2459 39.8289C40.3047 40.9772 40.3677 42.1674 40.4055 43.3198V43.3617C40.3677 43.5838 40.2753 44.0825 39.9308 44.0825ZM39.7081 28.6605C39.5568 28.7988 39.2879 29.4317 39.1283 30.5548C38.717 34.2856 38.7762 38.0531 39.3047 41.7692C39.38 42.4203 39.5842 43.0499 39.9055 43.6216C39.9415 43.5269 39.9669 43.4285 39.9812 43.3282C39.9476 42.1841 39.8845 41.0065 39.8257 39.8666C39.6619 36.7403 39.4938 33.526 39.8215 30.3704C39.8929 29.1425 39.7627 28.7653 39.7081 28.6605Z" fill="white"/>
<path id="Vector_41" d="M40.0106 30.3873C40.2375 27.3699 39.2039 28.1787 38.9224 30.5297C38.5089 34.2785 38.5667 38.0642 39.0946 41.7987C39.0946 42.4147 39.9097 44.9543 40.1955 43.3451C40.061 39.0915 39.5904 34.6702 40.0106 30.3873Z" fill="#5BA68F"/>
<path id="Vector_42" d="M39.9308 44.0825H39.9013C39.3047 44.0406 38.893 42.1422 38.8846 41.807C38.3538 38.0572 38.2959 34.256 38.7123 30.4919C38.851 29.3436 39.2165 28.2079 39.7249 28.2079H39.7585C39.9098 28.2079 40.3803 28.2708 40.2207 30.3913C39.914 33.4967 40.082 36.7152 40.2459 39.8289C40.3047 40.9772 40.3677 42.1674 40.4055 43.3198V43.3617C40.3677 43.5838 40.2753 44.0825 39.9308 44.0825ZM39.7081 28.6605C39.5568 28.7988 39.2879 29.4317 39.1283 30.5548C38.717 34.2856 38.7762 38.0531 39.3047 41.7692C39.38 42.4203 39.5842 43.0499 39.9055 43.6216C39.9415 43.5269 39.9669 43.4285 39.9812 43.3282C39.9476 42.1841 39.8845 41.0065 39.8257 39.8666C39.6619 36.7403 39.4938 33.526 39.8215 30.3704C39.8929 29.1425 39.7627 28.7653 39.7081 28.6605Z" fill="white"/>
<path id="Vector_43" d="M40.0106 30.3873C40.2375 27.3699 39.2039 28.1787 38.9224 30.5297C38.5089 34.2785 38.5667 38.0642 39.0946 41.7987C39.0946 42.4147 39.9097 44.9543 40.1955 43.3451C40.061 39.0915 39.5904 34.6702 40.0106 30.3873Z" fill="#5BA68F"/>
<path id="Vector_44" d="M39.9308 44.0825H39.9013C39.3047 44.0406 38.893 42.1422 38.8846 41.807C38.3538 38.0572 38.2959 34.256 38.7123 30.4919C38.851 29.3436 39.2165 28.2079 39.7249 28.2079H39.7585C39.9098 28.2079 40.3803 28.2708 40.2207 30.3913C39.914 33.4967 40.082 36.7152 40.2459 39.8289C40.3047 40.9772 40.3677 42.1674 40.4055 43.3198V43.3617C40.3677 43.5838 40.2753 44.0825 39.9308 44.0825ZM39.7081 28.6605C39.5568 28.7988 39.2879 29.4317 39.1283 30.5548C38.717 34.2856 38.7762 38.0531 39.3047 41.7692C39.38 42.4203 39.5842 43.0499 39.9055 43.6216C39.9415 43.5269 39.9669 43.4285 39.9812 43.3282C39.9476 42.1841 39.8845 41.0065 39.8257 39.8666C39.6619 36.7403 39.4938 33.526 39.8215 30.3704C39.8929 29.1425 39.7627 28.7653 39.7081 28.6605Z" fill="white"/>
<path id="Vector_45" d="M40.0106 30.3873C40.2375 27.3699 39.2039 28.1787 38.9224 30.5297C38.5089 34.2785 38.5667 38.0642 39.0946 41.7987C39.0946 42.4147 39.9097 44.9543 40.1955 43.3451C40.061 39.0915 39.5904 34.6702 40.0106 30.3873Z" fill="#5BA68F"/>
<path id="Vector_46" d="M39.9308 44.0825H39.9013C39.3047 44.0406 38.893 42.1422 38.8846 41.807C38.3538 38.0572 38.2959 34.256 38.7123 30.4919C38.851 29.3436 39.2165 28.2079 39.7249 28.2079H39.7585C39.9098 28.2079 40.3803 28.2708 40.2207 30.3913C39.914 33.4967 40.082 36.7152 40.2459 39.8289C40.3047 40.9772 40.3677 42.1674 40.4055 43.3198V43.3617C40.3677 43.5838 40.2753 44.0825 39.9308 44.0825ZM39.7081 28.6605C39.5568 28.7988 39.2879 29.4317 39.1283 30.5548C38.717 34.2856 38.7762 38.0531 39.3047 41.7692C39.38 42.4203 39.5842 43.0499 39.9055 43.6216C39.9415 43.5269 39.9669 43.4285 39.9812 43.3282C39.9476 42.1841 39.8845 41.0065 39.8257 39.8666C39.6619 36.7403 39.4938 33.526 39.8215 30.3704C39.8929 29.1425 39.7627 28.7653 39.7081 28.6605Z" fill="white"/>
<path id="Vector_47" d="M40.0106 30.3873C40.2375 27.3699 39.2039 28.1787 38.9224 30.5297C38.5089 34.2785 38.5667 38.0642 39.0946 41.7987C39.0946 42.4147 39.9097 44.9543 40.1955 43.3451C40.061 39.0915 39.5904 34.6702 40.0106 30.3873Z" fill="#5BA68F"/>
<path id="Vector_48" d="M39.9308 44.0825H39.9013C39.3047 44.0406 38.893 42.1422 38.8846 41.807C38.3538 38.0572 38.2959 34.256 38.7123 30.4919C38.851 29.3436 39.2165 28.2079 39.7249 28.2079H39.7585C39.9098 28.2079 40.3803 28.2708 40.2207 30.3913C39.914 33.4967 40.082 36.7152 40.2459 39.8289C40.3047 40.9772 40.3677 42.1674 40.4055 43.3198V43.3617C40.3677 43.5838 40.2753 44.0825 39.9308 44.0825ZM39.7081 28.6605C39.5568 28.7988 39.2879 29.4317 39.1283 30.5548C38.717 34.2856 38.7762 38.0531 39.3047 41.7692C39.38 42.4203 39.5842 43.0499 39.9055 43.6216C39.9415 43.5269 39.9669 43.4285 39.9812 43.3282C39.9476 42.1841 39.8845 41.0065 39.8257 39.8666C39.6619 36.7403 39.4938 33.526 39.8215 30.3704C39.8929 29.1425 39.7627 28.7653 39.7081 28.6605Z" fill="white"/>
<path id="Vector_49" d="M40.0106 30.3873C40.2375 27.3699 39.2039 28.1787 38.9224 30.5297C38.5089 34.2785 38.5667 38.0642 39.0946 41.7987C39.0946 42.4147 39.9097 44.9543 40.1955 43.3451C40.061 39.0915 39.5904 34.6702 40.0106 30.3873Z" fill="#5BA68F"/>
<path id="Vector_50" d="M39.9308 44.0825H39.9013C39.3047 44.0406 38.893 42.1422 38.8846 41.807C38.3538 38.0572 38.2959 34.256 38.7123 30.4919C38.851 29.3436 39.2165 28.2079 39.7249 28.2079H39.7585C39.9098 28.2079 40.3803 28.2708 40.2207 30.3913C39.914 33.4967 40.082 36.7152 40.2459 39.8289C40.3047 40.9772 40.3677 42.1674 40.4055 43.3198V43.3617C40.3677 43.5838 40.2753 44.0825 39.9308 44.0825ZM39.7081 28.6605C39.5568 28.7988 39.2879 29.4317 39.1283 30.5548C38.717 34.2856 38.7762 38.0531 39.3047 41.7692C39.38 42.4203 39.5842 43.0499 39.9055 43.6216C39.9415 43.5269 39.9669 43.4285 39.9812 43.3282C39.9476 42.1841 39.8845 41.0065 39.8257 39.8666C39.6619 36.7403 39.4938 33.526 39.8215 30.3704C39.8929 29.1425 39.7627 28.7653 39.7081 28.6605Z" fill="white"/>
<path id="Vector_51" d="M40.0106 30.3873C40.2375 27.3699 39.2039 28.1787 38.9224 30.5297C38.5089 34.2785 38.5667 38.0642 39.0946 41.7987C39.0946 42.4147 39.9097 44.9543 40.1955 43.3451C40.061 39.0915 39.5904 34.6702 40.0106 30.3873Z" fill="#5BA68F"/>
<path id="Vector_52" d="M39.9308 44.0825H39.9013C39.3047 44.0406 38.893 42.1422 38.8846 41.807C38.3538 38.0572 38.2959 34.256 38.7123 30.4919C38.851 29.3436 39.2165 28.2079 39.7249 28.2079H39.7585C39.9098 28.2079 40.3803 28.2708 40.2207 30.3913C39.914 33.4967 40.082 36.7152 40.2459 39.8289C40.3047 40.9772 40.3677 42.1674 40.4055 43.3198V43.3617C40.3677 43.5838 40.2753 44.0825 39.9308 44.0825ZM39.7081 28.6605C39.5568 28.7988 39.2879 29.4317 39.1283 30.5548C38.717 34.2856 38.7762 38.0531 39.3047 41.7692C39.38 42.4203 39.5842 43.0499 39.9055 43.6216C39.9415 43.5269 39.9669 43.4285 39.9812 43.3282C39.9476 42.1841 39.8845 41.0065 39.8257 39.8666C39.6619 36.7403 39.4938 33.526 39.8215 30.3704C39.8929 29.1425 39.7627 28.7653 39.7081 28.6605Z" fill="white"/>
<path id="Vector_53" d="M51.964 29.7041C48.67 24.2226 40.4476 22.7978 35.4981 26.9592C26.3262 34.2469 32.9772 49.3462 44.6197 47.1545C52.3589 45.8805 56.3966 36.1537 51.964 29.7041Z" fill="#5BA68F"/>
<path id="Vector_54" d="M48.0608 27.8308C54.4765 32.8598 51.7918 36.5183 49.1742 42.5739C49.7156 42.3169 50.2354 42.017 50.7288 41.6771C49.9389 42.8785 48.8822 43.8823 47.6406 44.6106C48.6406 42.2806 49.1154 40.8054 50.3506 37.6037C51.506 34.314 51.3254 32.4407 49.8716 30.1525C49.7757 29.965 49.6429 29.7987 49.4812 29.6633C49.3196 29.528 49.1323 29.4264 48.9305 29.3647C48.67 29.2515 48.796 29.7293 49.149 30.9446L48.6448 30.8398C48.0524 28.3254 47.649 27.5501 48.0608 27.8308Z" fill="white"/>
<path id="Vector_55" d="M38.0443 44.904C36.0654 41.9705 34.1747 38.8358 33.2503 35.3868C33.4268 37.5408 33.6327 39.544 34.5108 41.3628C32.1075 37.1721 32.5067 33.371 35.6326 29.0336C33.9142 31.4642 35.1999 34.8252 35.8637 37.2978C35.5928 33.9424 36.1873 30.5738 37.5905 27.5124C37.7418 27.4243 37.8174 27.3782 37.9771 27.2944C35.9435 33.459 36.0444 38.8945 38.2208 44.9794L38.0443 44.904Z" fill="white"/>
<path id="Vector_56" d="M41.2879 41.9705C41.2879 43.1062 41.4896 45.6667 40.7165 45.8427C39.7459 45.6541 39.5695 45.6793 38.9518 44.4137C37.1704 40.2774 37.2712 35.1563 37.8636 30.7183C38.1241 29.2683 38.7039 27.2819 39.6073 26.6113C39.9476 26.5066 40.1325 26.4563 40.477 26.3808C40.7081 26.3306 40.8593 26.6407 40.977 27.3908C41.1112 28.3513 41.1548 29.3222 41.1072 30.2908C41.0358 34.1924 41.0526 38.0731 41.2879 41.9705Z" fill="white"/>
<path id="Vector_57" d="M43.4475 45.9851C43.0861 46.0145 42.8929 46.0228 42.5273 46.0228C42.4811 44.5561 42.4559 43.7305 42.4181 41.9871C42.8761 41.9871 43.1071 41.9871 43.5609 41.9536C43.5357 43.697 43.5105 44.5184 43.4475 45.9851Z" fill="white"/>
<path id="Vector_58" d="M44.3508 45.8679C44.5314 43.1757 45.0639 40.5186 45.9348 37.9641C46.918 34.7791 47.0734 32.7382 46.6407 30.4752C46.502 29.7586 46.2625 28.7025 45.7625 28.3798C44.8088 28.1032 44.9559 28.4846 45.0357 30.2866C44.8172 30.2866 44.708 30.2866 44.4853 30.2531C44.334 27.3615 44.4139 26.2928 44.9054 26.4102C45.2458 26.4982 45.4138 26.5485 45.7457 26.6616C46.6491 27.3112 47.3297 29.218 47.6616 30.6261C48.9641 34.2385 45.9222 40.4492 45.5315 43.7683C46.1753 43.6522 46.8089 43.4854 47.4264 43.2696C47.2741 43.8638 47.0875 44.4487 46.8676 45.0213C46.0804 45.4382 45.2303 45.7241 44.3508 45.8679V45.8679Z" fill="white"/>
<path id="Vector_59" d="M39.9308 44.0825H39.9013C39.3047 44.0406 38.893 42.1422 38.8846 41.807C38.3538 38.0572 38.2959 34.256 38.7123 30.4919C38.851 29.3436 39.2165 28.2079 39.7249 28.2079H39.7585C39.9098 28.2079 40.3803 28.2708 40.2207 30.3913C39.914 33.4967 40.082 36.7152 40.2459 39.8289C40.3047 40.9772 40.3677 42.1674 40.4055 43.3198V43.3617C40.3677 43.5838 40.2753 44.0825 39.9308 44.0825ZM39.7081 28.6605C39.5568 28.7988 39.2879 29.4317 39.1283 30.5548C38.717 34.2856 38.7762 38.0531 39.3047 41.7692C39.38 42.4203 39.5842 43.0499 39.9055 43.6216C39.9415 43.5269 39.9669 43.4285 39.9812 43.3282C39.9476 42.1841 39.8845 41.0065 39.8257 39.8666C39.6619 36.7403 39.4938 33.526 39.8215 30.3704C39.8929 29.1425 39.7627 28.7653 39.7081 28.6605Z" fill="white"/>
<path id="Vector_60" d="M39.9308 44.0825H39.9013C39.3047 44.0406 38.893 42.1422 38.8846 41.807C38.3538 38.0572 38.2959 34.256 38.7123 30.4919C38.851 29.3436 39.2165 28.2079 39.7249 28.2079H39.7585C39.9098 28.2079 40.3803 28.2708 40.2207 30.3913C39.914 33.4967 40.082 36.7152 40.2459 39.8289C40.3047 40.9772 40.3677 42.1674 40.4055 43.3198V43.3617C40.3677 43.5838 40.2753 44.0825 39.9308 44.0825ZM39.7081 28.6605C39.5568 28.7988 39.2879 29.4317 39.1283 30.5548C38.717 34.2856 38.7762 38.0531 39.3047 41.7692C39.38 42.4203 39.5842 43.0499 39.9055 43.6216C39.9415 43.5269 39.9669 43.4285 39.9812 43.3282C39.9476 42.1841 39.8845 41.0065 39.8257 39.8666C39.6619 36.7403 39.4938 33.526 39.8215 30.3704C39.8929 29.1425 39.7627 28.7653 39.7081 28.6605Z" fill="white"/>
<path id="Vector_61" d="M39.9308 44.0825H39.9013C39.3047 44.0406 38.893 42.1422 38.8846 41.807C38.3538 38.0572 38.2959 34.256 38.7123 30.4919C38.851 29.3436 39.2165 28.2079 39.7249 28.2079H39.7585C39.9098 28.2079 40.3803 28.2708 40.2207 30.3913C39.914 33.4967 40.082 36.7152 40.2459 39.8289C40.3047 40.9772 40.3677 42.1674 40.4055 43.3198V43.3617C40.3677 43.5838 40.2753 44.0825 39.9308 44.0825ZM39.7081 28.6605C39.5568 28.7988 39.2879 29.4317 39.1283 30.5548C38.717 34.2856 38.7762 38.0531 39.3047 41.7692C39.38 42.4203 39.5842 43.0499 39.9055 43.6216C39.9415 43.5269 39.9669 43.4285 39.9812 43.3282C39.9476 42.1841 39.8845 41.0065 39.8257 39.8666C39.6619 36.7403 39.4938 33.526 39.8215 30.3704C39.8929 29.1425 39.7627 28.7653 39.7081 28.6605Z" fill="white"/>
<path id="Vector_62" d="M39.8628 30.3589C40.0897 27.3415 39.0561 28.1503 38.7746 30.5014C38.3611 34.2502 38.419 38.0358 38.9469 41.7703C38.9469 42.3864 39.762 44.926 40.0477 43.3167C39.9132 39.0631 39.4427 34.6418 39.8628 30.3589Z" fill="#5BA68F"/>
<path id="Vector_63" d="M18.3643 67.7269C24.1834 61.0216 39.5232 53.5034 42.8382 77.5458C42.8475 77.6288 42.8872 77.7055 42.9496 77.7611C43.012 77.8168 43.0927 77.8476 43.1765 77.8476C43.2602 77.8476 43.341 77.8168 43.4034 77.7611C43.4658 77.7055 43.5054 77.6288 43.5147 77.5458C44.0399 74.0717 45.418 68.5524 46.4053 66.1595C48.0439 62.1825 54.1698 56.5878 68.1903 66.7085C56.9974 51.0267 28.7883 50.1257 18.3643 67.7269Z" fill="#5BA68F"/>
<path id="Vector_64" d="M31.2378 69.2691C31.2378 69.2691 31.5193 71.3184 34.8805 68.783C36.6326 67.1528 35.12 66.8804 33.8848 66.8846C32.6495 66.8888 30.9983 67.8903 31.2378 69.2691Z" fill="#5BA68F"/>
<path id="Vector_65" d="M1.58752 34.8336C1.58752 34.8336 3.9824 49.0822 18.9735 53.1221C18.9735 53.1221 17.1878 63.3643 17.5072 68.2088C17.5072 68.2088 27.1119 56.131 36.3763 55.2719C36.3763 55.2719 30.595 47.3095 30.0992 44.4304C30.0992 44.4304 19.9819 46.3875 14.5535 34.3726L11.1922 35.722L10.0326 33.4926L6.29745 35.4329L5.3395 33.2118C5.3395 33.2118 2.38162 32.5035 1.58752 34.8336Z" fill="#5BA68F"/>
<path id="Vector_66" d="M83.3957 33.4465C83.3957 33.4465 81.4882 47.7621 66.6441 52.3049C66.6441 52.3049 68.7827 62.48 68.6273 67.312C68.6273 67.312 58.615 55.5779 49.3254 55.0289C49.3254 55.0289 54.8294 46.8611 55.2075 43.9778C55.2075 43.9778 65.3879 45.5913 70.4003 33.4171L73.854 34.6618L74.9296 32.3904L78.711 34.2008L79.5933 31.9504C79.5933 31.9504 82.526 31.1415 83.3957 33.4465Z" fill="#5BA68F"/>
<path id="Vector_67" d="M31.8386 56.4662C31.8386 56.4662 27.9312 46.5969 27.1413 47.6991C25.0825 50.5614 28.3555 58.0042 28.3555 58.0042L31.8386 56.4662Z" fill="white"/>
<path id="Vector_68" d="M54.4723 56.0807C54.4723 56.0807 58.0394 46.0857 58.8671 47.1586C61.0225 49.9496 58.0058 57.4972 58.0058 57.4972L54.4723 56.0807Z" fill="white"/>
<path id="Vector_69" opacity="0.36" d="M49.9724 84.7832C50.2707 90.3025 62.8501 90.0846 62.9594 84.5611C62.6611 79.0419 50.0817 79.2556 49.9724 84.7832Z" fill="#F2A0A8"/>
<path id="Vector_70" d="M54.4261 67.8317C54.4261 67.8317 55.4261 69.6421 51.212 69.6127C48.8297 69.3529 49.8801 68.234 50.8716 67.5174C51.8632 66.8007 53.7707 66.5744 54.4261 67.8317Z" fill="#5BA68F"/>
<path id="Vector_71" d="M4.94871 61.8053C4.94871 61.8053 3.18826 68.1753 11.5073 77.6799C12.0448 75.9817 12.728 74.3328 13.5493 72.7516C10.9107 69.1475 6.62932 68.9715 4.94871 61.8053Z" fill="white"/>
<path id="Vector_72" d="M81.047 60.5397C81.047 60.5397 83.0512 66.8259 74.9254 76.6281C74.3186 74.9471 73.5665 73.322 72.6776 71.771C75.2279 68.0915 79.5891 67.7562 81.047 60.5397Z" fill="white"/>
<path id="Vector_73" d="M36.5948 78.2163C36.5948 84.2929 31.6958 84.3725 31.4941 78.3001C31.4857 72.2235 36.3931 72.1397 36.5948 78.2163Z" fill="#5BA68F"/>
<path id="Vector_74" d="M55.5984 77.638C55.5984 83.7146 50.6994 83.7942 50.4977 77.7218C50.4935 71.662 55.3967 71.5614 55.5984 77.638Z" fill="#5BA68F"/>
<path id="Vector_75" d="M62.1737 100.624C61.8341 99.7162 61.8206 98.7187 62.1355 97.8018C62.4503 96.8849 63.0741 96.1051 63.9006 95.5954C67.2996 93.5 72.6818 90.9478 74.0305 94.6986C74.0305 94.6986 74.8918 96.6473 70.4592 96.7939C70.4592 96.7939 78.2572 94.9626 76.7069 100.117C75.1565 105.272 70.0937 105.88 70.0937 105.88L68.0769 106.299C67.0865 106.499 66.0568 106.339 65.1749 105.847C64.2929 105.355 63.6172 104.563 63.2703 103.617L62.1737 100.624Z" fill="white"/>
<path id="Vector_76" d="M67.2114 107.229C66.1791 107.228 65.172 106.912 64.3259 106.322C63.4799 105.732 62.8357 104.897 62.4804 103.931L61.3838 100.926C60.9877 99.838 60.9777 98.6475 61.3555 97.5531C61.7332 96.4586 62.4758 95.5265 63.4594 94.9123C67.5265 92.3978 70.602 91.501 72.6524 92.2092C73.1577 92.3905 73.6149 92.6844 73.9892 93.0686C74.3634 93.4528 74.6448 93.9171 74.812 94.4261C74.9836 94.8698 74.9836 95.3612 74.812 95.8049C75.6314 95.9231 76.3928 96.2955 76.9884 96.8693C77.7866 97.7075 77.9631 98.9019 77.5135 100.394C75.8833 105.842 70.7911 106.68 70.2365 106.739L68.2491 107.158C67.9065 107.216 67.5588 107.24 67.2114 107.229V107.229ZM62.9636 100.335L64.0602 103.336C64.334 104.097 64.8743 104.733 65.5815 105.128C66.2887 105.523 67.1152 105.65 67.9088 105.486L70.0096 105.066C71.3816 104.846 72.6634 104.244 73.7082 103.33C74.7531 102.416 75.5186 101.227 75.917 99.8993C76.1817 99.0234 76.1354 98.3864 75.7783 98.0092C75.2363 97.4351 74.0095 97.2884 72.7952 97.3429C72.0426 97.5349 71.2696 97.6362 70.4928 97.6446L70.2743 95.9935C71.0042 95.8293 71.746 95.7228 72.4927 95.675C72.7692 95.611 73.0197 95.4649 73.2112 95.2559C73.2351 95.2231 73.2516 95.1855 73.2596 95.1457C73.2676 95.1059 73.2668 95.0649 73.2574 95.0254C73.1806 94.7391 73.0359 94.4755 72.8356 94.2567C72.6352 94.0379 72.385 93.8703 72.1062 93.7682C70.6398 93.2569 67.8164 94.1873 64.3501 96.3162C63.6923 96.724 63.1959 97.3458 62.9448 98.0766C62.6937 98.8074 62.7033 99.6022 62.972 100.327L62.9636 100.335Z" fill="#5BA68F"/>
<path id="Vector_77" d="M22.7633 100.033C23.0207 99.1028 22.9481 98.1119 22.5577 97.2285C22.1672 96.345 21.483 95.6231 20.6205 95.1848C17.0576 93.3827 11.4821 91.2874 10.4527 95.1387C10.4527 95.1387 9.75949 97.1544 14.1879 96.9239C14.1879 96.9239 6.26381 95.7547 8.24273 100.763C10.2217 105.771 15.3181 105.951 15.3181 105.951L17.3601 106.19C18.3633 106.307 19.3752 106.061 20.2124 105.497C21.0495 104.934 21.6564 104.09 21.923 103.118L22.7633 100.033Z" fill="white"/>
<path id="Vector_78" d="M17.8685 107.057C17.6662 107.057 17.4642 107.044 17.2635 107.019L15.2467 106.785C14.7047 106.755 9.54522 106.345 7.46126 101.069C6.88565 99.6227 6.96548 98.4242 7.68814 97.5148C8.23005 96.8862 8.95844 96.4458 9.7679 96.2575C9.55666 95.8306 9.5132 95.3403 9.64606 94.883C9.76886 94.3613 10.01 93.8748 10.3509 93.4606C10.6917 93.0465 11.1233 92.7159 11.6124 92.4942C13.5745 91.6184 16.7341 92.2637 20.9986 94.4178C22.0322 94.9462 22.8522 95.813 23.3211 96.8728C23.79 97.9326 23.8794 99.121 23.5742 100.239V100.239L22.7339 103.319C22.4488 104.39 21.8174 105.336 20.9376 106.012C20.0579 106.688 18.979 107.055 17.8685 107.057ZM11.9191 97.6447C10.7048 97.6908 9.4948 97.938 9.00322 98.5541C8.6797 98.9731 8.68811 99.6018 9.02423 100.452C10.7805 104.895 15.3013 105.104 15.3475 105.108H15.4148L17.4567 105.347C18.2597 105.438 19.0687 105.24 19.7386 104.789C20.4085 104.338 20.8954 103.664 21.1121 102.887L21.9524 99.8029C22.1588 99.0581 22.1009 98.2651 21.7885 97.5579C21.4762 96.8508 20.9285 96.273 20.2381 95.9223C16.6122 94.0909 13.7174 93.4078 12.3014 94.0322C12.0318 94.1515 11.7954 94.3344 11.6124 94.5651C11.4294 94.7958 11.3054 95.0674 11.251 95.3565V95.4194C11.2539 95.4878 11.2807 95.553 11.3267 95.6038C11.536 95.8036 11.804 95.9314 12.0914 95.9684C12.84 95.9557 13.5886 95.9992 14.3308 96.0983L14.2509 97.7746C13.4712 97.8239 12.6884 97.7802 11.9191 97.6447V97.6447Z" fill="#5BA68F"/>
<path id="Vector_79" d="M53.3421 85.5377C51.6577 85.5154 50.0267 84.945 48.6972 83.9132C47.3677 82.8813 46.4124 81.4446 45.9768 79.8215C44.8298 75.7104 47.1448 71.4651 51.1363 70.3588C52.0943 70.0911 53.097 70.0211 54.0831 70.1529C55.0691 70.2848 56.0179 70.6158 56.8714 71.1257C58.6351 72.158 59.9232 73.8384 60.4595 75.8068C61.6023 79.9179 59.2873 84.1631 55.2958 85.2737C54.6596 85.4495 54.0023 85.5383 53.3421 85.5377V85.5377ZM53.1026 70.9287C52.5148 70.9281 51.9297 71.007 51.3632 71.1634C47.8171 72.1482 45.7625 75.9325 46.7835 79.5994C47.8045 83.2663 51.5228 85.4665 55.0689 84.4649C58.615 83.4633 60.6696 79.6958 59.6486 76.0289C59.1691 74.2695 58.0205 72.7661 56.447 71.8381C55.4332 71.2436 54.2787 70.9297 53.1026 70.9287V70.9287Z" fill="#5BA68F"/>
<path id="Vector_80" d="M35.6746 89.4435C35.5387 89.4431 35.4065 89.399 35.2978 89.3176C35.1891 89.2362 35.1097 89.1219 35.0715 88.9919C35.0332 88.8618 35.0381 88.7229 35.0855 88.5958C35.1328 88.4687 35.2201 88.3604 35.3342 88.2868C35.6998 88.0521 44.3676 82.579 50.3169 87.2601C50.386 87.3098 50.4442 87.3729 50.4881 87.4456C50.532 87.5183 50.5607 87.5992 50.5725 87.6833C50.5842 87.7674 50.5787 87.853 50.5564 87.9349C50.534 88.0169 50.4952 88.0934 50.4424 88.16C50.3896 88.2266 50.3238 88.2818 50.249 88.3223C50.1741 88.3628 50.0919 88.3878 50.0071 88.3958C49.9224 88.4037 49.8369 88.3944 49.7558 88.3685C49.6747 88.3426 49.5998 88.3005 49.5355 88.2449C44.2961 84.1254 36.0905 89.2926 36.0149 89.3429C35.9135 89.4082 35.7953 89.4431 35.6746 89.4435V89.4435Z" fill="#5BA68F"/>
<path id="Vector_81" d="M63.3501 89.7033C63.2761 89.7025 63.2037 89.6823 63.1401 89.6446C63.1148 89.6446 60.8712 88.2784 61.6737 85.2862C62.3165 82.9058 60.0267 81.372 59.9301 81.305C59.839 81.243 59.7761 81.1478 59.7548 81.0399C59.7334 80.9321 59.7555 80.8202 59.8161 80.7284C59.8767 80.6365 59.9711 80.5722 60.0789 80.5491C60.1867 80.5261 60.2992 80.5462 60.3923 80.6051C60.4217 80.6051 63.2871 82.5329 62.493 85.5041C61.8586 87.8635 63.5014 88.8819 63.5686 88.9238C63.6644 88.9805 63.7337 89.0728 63.7613 89.1805C63.7889 89.2881 63.7725 89.4023 63.7157 89.4979C63.6781 89.5611 63.6246 89.6133 63.5604 89.6494C63.4963 89.6854 63.4238 89.704 63.3501 89.7033Z" fill="#5BA68F"/>
</g>
</svg>
