<svg width="66" height="20" viewBox="0 0 66 20" fill="none" xmlns="http://www.w3.org/2000/svg">
<path d="M22.9407 3.94087L22.6796 6.25043H26.9311L26.786 7.54435H22.549L22.2588 10.1322H26.3071L26.162 11.4122H22.1282L21.7944 14.4174H27.0036L26.844 15.7391H15.0762L15.2358 14.4174H20.3289L20.6481 11.4122H16.6288L16.7884 10.1322H20.7932L21.0689 7.54435H17.8331L17.6445 7.97565C17.5574 8.16116 17.451 8.39304 17.3253 8.6713C17.2092 8.94029 17.1076 9.15826 17.0205 9.32522H15.4389C15.8162 8.53681 16.2225 7.64174 16.6578 6.64C16.919 6.0371 17.1947 5.31362 17.4849 4.46956H19.0375L18.7328 5.31826C18.6844 5.47594 18.5635 5.78666 18.37 6.25043H21.1995L21.4607 3.94087H22.9407Z" fill="#292945"/>
<path d="M7.28416 5.13739L7.13906 6.27825H1.37848L1.50907 5.13739H3.72914L3.43894 3.99652H4.83192L5.15115 5.13739H7.28416ZM8.03869 6.01391C8.07739 5.67999 8.16445 5.4342 8.29988 5.27652C8.44498 5.11883 8.67231 5.02144 8.98186 4.98434C9.3688 4.93796 9.98791 4.84057 10.8392 4.69217C11.4486 4.58086 12.1935 4.42782 13.0738 4.23304L12.9141 5.55478C11.8501 5.79594 10.6844 5.99072 9.41717 6.13912L9.15599 8.17043H13.1608L13.0157 9.38086H11.8694L11.1439 15.9756H9.82346L10.549 9.38086H9.01088L8.82225 10.8974C8.71584 11.8342 8.50786 12.8035 8.19831 13.8052C7.89843 14.7977 7.58404 15.549 7.25514 16.0591L5.94921 15.6835C6.22975 15.2104 6.4474 14.7699 6.60218 14.3617H5.4994L4.96251 12.0522H6.12334L6.66022 14.2365C7.04716 13.2719 7.31318 12.1496 7.45828 10.8696L8.03869 6.01391ZM7.12455 9.25565H4.74486L4.62878 10.3548H6.79081L6.6312 11.5235H4.49819L4.12092 15.0017C4.02418 15.6788 3.66143 15.9942 3.03265 15.9478C2.43289 15.8922 1.90568 15.8133 1.45103 15.7113L1.61064 14.5148C1.8815 14.589 2.19589 14.6493 2.55381 14.6956C2.58283 14.7049 2.61669 14.7096 2.65538 14.7096C2.73277 14.7096 2.78597 14.6446 2.81499 14.5148L3.14873 11.5235H0.769045L0.914147 10.3548H3.27932L3.40992 9.25565H0.740024L0.899637 8.11478H2.45224L2.07497 6.59826H3.22128L3.64208 8.11478H4.75937L5.38331 6.59826H6.55865L5.96372 8.11478H7.25514L7.12455 9.25565ZM1.24788 12.0383H2.48126L1.30593 14.6539H0L1.24788 12.0383Z" fill="#292945"/>
<path d="M29.7243 6.08696C29.7243 2.72522 32.5665 0 36.0726 0H64.1862C65.1879 0 66 0.778635 66 1.73913V13.913C66 17.2748 63.1578 20 59.6518 20H31.5381C30.5364 20 29.7243 19.2214 29.7243 18.2609V6.08696Z" fill="#6BA960"/>
<path d="M51.6058 9.23478L51.8234 7.39826H53.1294L52.9117 9.23478H54.1016L53.9565 10.3756H52.7666L52.6215 11.6556L53.289 11.5165C53.705 11.433 53.9419 11.3867 54 11.3774L53.8549 12.6296C53.3712 12.7409 52.9069 12.8383 52.4619 12.9217L52.1137 15.8574H50.8077L51.127 13.1443C50.3627 13.2742 49.5647 13.3855 48.7328 13.4783L48.8924 12.2261C49.6276 12.1426 50.4256 12.0313 51.2866 11.8922L51.4607 10.3756H50.0097C49.7291 10.3756 49.5115 10.3154 49.3567 10.1948C49.2019 10.0742 49.1245 9.91188 49.1245 9.70782C49.1245 9.53159 49.1826 9.34144 49.2987 9.13739C49.7049 8.36753 50.1112 7.48637 50.5175 6.49391H49.3857L49.5308 5.32521H50.9964C51.1995 4.80579 51.3543 4.36985 51.4607 4.01739H52.8102L52.3458 5.32521H54.4208L54.2902 6.49391H51.8815C51.4365 7.61623 51.0399 8.52985 50.6916 9.23478H51.6058ZM60.8488 7.42608H54.9432L55.2043 5.35304C55.2334 4.98202 55.3398 4.71304 55.5236 4.54608C55.717 4.37913 56.0266 4.28637 56.4522 4.26782H59.9637C60.6892 4.26782 61.052 4.5971 61.052 5.25565C61.052 5.36695 61.0471 5.45043 61.0375 5.50608L60.8488 7.42608ZM56.4232 6.35478H59.688L59.7461 5.33913H56.5103L56.4232 6.35478ZM61.2406 13.2835L61.0955 14.3965L59.9347 14.4939L59.7461 16.1078H58.3095L58.4982 14.5913L53.4341 14.967L53.5937 13.84L54.3918 13.7843L55.0157 9.12347H54.2612L54.4063 8.01043H61.4583L61.3132 9.12347H60.5586L60.0653 13.3809L61.2406 13.2835ZM59.1511 9.12347H56.3797L56.2636 9.93043H59.0641L59.1511 9.12347ZM58.948 10.9183H56.133L56.0169 11.7252H58.8464L58.948 10.9183ZM58.7303 12.727H55.8863L55.7557 13.687L58.6288 13.4783L58.7303 12.727Z" fill="white"/>
<path d="M44.3797 3.89217L44.2056 5.36695H46.7158L46.5707 6.53565H44.075L43.9008 7.94087H47.0931L46.9625 9.10956H45.5115L45.3664 10.2643H46.7449L46.5998 11.433H45.2358L44.8295 14.8C44.7811 15.1896 44.6699 15.4678 44.4958 15.6348C44.3313 15.811 44.075 15.8991 43.7267 15.8991C43.5913 15.8991 43.4849 15.8945 43.4075 15.8852C42.7594 15.8388 42.0435 15.7043 41.26 15.4817L41.4051 14.2574C41.8404 14.378 42.2418 14.4754 42.6094 14.5496C42.977 14.6145 43.1898 14.6516 43.2479 14.6609C43.2769 14.6701 43.3108 14.6748 43.3494 14.6748C43.4075 14.6748 43.4462 14.6609 43.4655 14.633C43.4946 14.5959 43.5187 14.5357 43.5381 14.4522L43.8863 11.433H39.5478L39.6784 10.2643H44.0314L44.162 9.10956H39.5042L39.6348 7.94087H42.5369L42.711 6.53565H40.2443L40.3748 5.36695H42.8416L43.0157 3.89217H44.3797ZM39.1415 10.793C38.7545 10.9229 38.3144 11.0574 37.821 11.1965L37.2406 15.8991H35.9057L36.4571 11.5722C35.867 11.7299 35.1657 11.8922 34.3531 12.0591L34.5127 10.793C35.4413 10.589 36.1427 10.4174 36.6167 10.2783L36.9649 7.5513H36.0363C35.9492 7.90377 35.7896 8.46029 35.5574 9.22087H34.266L34.3676 8.90087C34.6771 7.89913 34.8658 7.2684 34.9335 7.00869C35.1173 6.31304 35.2962 5.57101 35.4704 4.78261H36.6892L36.341 6.35478H37.1245L37.4293 3.97565H38.7207L38.416 6.35478H39.6348L39.4752 7.5513H38.2709L37.9806 9.90261L39.2866 9.51304L39.1415 10.793ZM41.4341 11.8643L42.1596 13.8817H40.8682L40.2007 11.8643H41.4341Z" fill="white"/>
</svg>
