<svg width="375" height="92" viewBox="0 0 375 92" fill="none" xmlns="http://www.w3.org/2000/svg">
<rect width="375" height="92" fill="#FFFEF9"/>
<path d="M37.4296 7.03076L37.131 7.42136C29.2562 8.74704 22.0614 13.2548 16.8581 20.1231C11.6548 26.9913 8.78938 35.7627 8.78418 44.8383V7.03076H37.4296Z" stroke="#C5B098" stroke-linecap="square" stroke-linejoin="round"/>
<path d="M37.4297 87.6332L37.131 87.2427C29.2487 85.9157 22.0481 81.4007 16.8438 74.522C11.6395 67.6433 8.77885 58.8599 8.78419 49.7756V87.6332H37.4297Z" stroke="#C5B098" stroke-linecap="square" stroke-linejoin="round"/>
<path d="M11.2705 9.87512H23.7354C21.1749 11.6106 18.8143 13.7032 16.7079 16.1046C14.6049 18.5093 12.7698 21.2003 11.2441 24.1168L11.2705 9.87512Z" fill="#F7EDCC" stroke="#C5B098" stroke-linecap="square" stroke-linejoin="round"/>
<path d="M11.2705 84.7489V70.5272C14.3403 76.3609 18.6209 81.2447 23.7354 84.7489H11.2705Z" fill="#F7EDCC" stroke="#C5B098" stroke-linecap="square" stroke-linejoin="round"/>
<path d="M44.8258 84.6789C36.1173 84.6789 27.7654 80.7346 21.6075 73.7138C15.4497 66.693 11.9902 57.1708 11.9902 47.2419C11.9902 37.313 15.4497 27.7908 21.6075 20.77C27.7654 13.7492 36.1173 9.80493 44.8258 9.80493H331.816C340.525 9.80493 348.877 13.7492 355.035 20.77C361.192 27.7908 364.652 37.313 364.652 47.2419C364.652 57.1708 361.192 66.693 355.035 73.7138C348.877 80.7346 340.525 84.6789 331.816 84.6789H44.8258Z" stroke="#C5B098" stroke-linecap="square" stroke-linejoin="round"/>
<path d="M45.2834 81.6192C41.265 81.6972 37.2732 80.8613 33.5408 79.1602C29.8084 77.459 26.4101 74.9267 23.5441 71.7109C20.6782 68.4952 18.402 64.6603 16.8482 60.43C15.2944 56.1997 14.4941 51.6586 14.4941 47.0716C14.4941 42.4846 15.2944 37.9436 16.8482 33.7133C18.402 29.483 20.6782 25.6481 23.5441 22.4323C26.4101 19.2165 29.8084 16.6842 33.5408 14.9831C37.2732 13.2819 41.265 12.446 45.2834 12.524H331.562C335.58 12.446 339.572 13.2819 343.304 14.9831C347.037 16.6842 350.435 19.2165 353.301 22.4323C356.167 25.6481 358.443 29.483 359.997 33.7133C361.551 37.9436 362.351 42.4846 362.351 47.0716C362.351 51.6586 361.551 56.1997 359.997 60.43C358.443 64.6603 356.167 68.4952 353.301 71.7109C350.435 74.9267 347.037 77.459 343.304 79.1602C339.572 80.8613 335.58 81.6972 331.562 81.6192H45.2834Z" stroke="#C5B098" stroke-linecap="square" stroke-linejoin="round"/>
<path d="M44.9745 78.6197C37.5894 78.6197 30.5068 75.2959 25.2847 69.3795C20.0626 63.4631 17.1289 55.4387 17.1289 47.0717C17.1289 38.7046 20.0626 30.6803 25.2847 24.7639C30.5068 18.8475 37.5894 15.5237 44.9745 15.5237H331.869C339.254 15.5237 346.337 18.8475 351.559 24.7639C356.781 30.6803 359.715 38.7046 359.715 47.0717C359.715 55.4387 356.781 63.4631 351.559 69.3795C346.337 75.2959 339.254 78.6197 331.869 78.6197H44.9745Z" stroke="#C5B098" stroke-linecap="square" stroke-linejoin="round"/>
<path d="M338.502 6.96057L338.801 7.35117C346.675 8.67685 353.87 13.1846 359.073 20.0529C364.277 26.9211 367.142 35.6925 367.147 44.7681V6.96057H338.502Z" stroke="#C5B098" stroke-linecap="square" stroke-linejoin="round"/>
<path d="M338.502 87.5131L338.801 87.1225C346.675 85.7968 353.87 81.289 359.073 74.4208C364.277 67.5526 367.142 58.7812 367.147 49.7056V87.5131H338.502Z" stroke="#C5B098" stroke-linecap="square" stroke-linejoin="round"/>
<path d="M364.652 24.0166C361.585 18.183 357.304 13.3017 352.188 9.80493H364.652V24.0166Z" fill="#F7EDCC" stroke="#C5B098" stroke-linecap="square" stroke-linejoin="round"/>
<path d="M352.188 84.6789C354.749 82.9417 357.11 80.8456 359.215 78.4394C361.325 76.0421 363.161 73.35 364.679 70.4272V84.6489L352.188 84.6789Z" fill="#F7EDCC" stroke="#C5B098" stroke-linecap="square" stroke-linejoin="round"/>
<path d="M198.97 5.00757V8.16237H195.86L193.9 19.6298H183.57L181.61 8.16237H178.5V5.00757H198.97Z" fill="#F7EDCC" stroke="#C5B098" stroke-linecap="square" stroke-linejoin="round"/>
<circle cx="188" cy="80" r="8" fill="white"/>
<path d="M198 80.1875C198 79.4882 197.386 78.8647 197.228 78.2105C197.065 77.5358 197.326 76.7237 197.011 76.1126C196.692 75.4933 195.85 75.1795 195.397 74.6483C194.942 74.1131 194.804 73.2743 194.234 72.8457C193.67 72.4212 192.766 72.4786 192.107 72.1812C191.458 71.888 190.946 71.1866 190.225 71.0328C190.121 71.0103 190.013 71 189.906 71C189.295 71 188.634 71.3035 188 71.3035C187.366 71.3035 186.705 71 186.094 71C185.987 71 185.879 71.0103 185.775 71.0308C185.056 71.1846 184.542 71.8859 183.893 72.1792C183.234 72.4786 182.33 72.4212 181.763 72.8457C181.194 73.2723 181.054 74.1131 180.6 74.6483C180.147 75.1795 179.306 75.4933 178.987 76.1126C178.674 76.7217 178.935 77.5338 178.77 78.2105C178.614 78.8647 178 79.4882 178 80.1875C178 80.8868 178.614 81.5103 178.772 82.1645C178.935 82.8392 178.674 83.6513 178.989 84.2624C179.217 84.7054 179.714 84.9925 180.143 85.3145C180.313 85.4416 180.473 85.5749 180.6 85.7267L180.603 85.7287C180.714 85.8579 180.752 86.0302 180.705 86.1881L179.442 90.5193C179.411 90.6239 179.498 90.7265 179.614 90.7265H179.632L182.145 90.5009C182.167 90.4988 182.192 90.4968 182.214 90.4968C182.364 90.4968 182.509 90.5398 182.629 90.6198L184.685 91.9692C184.717 91.9897 184.752 92 184.788 92C184.864 92 184.94 91.9549 184.962 91.879L185.688 89.3894C185.699 89.3545 185.737 89.334 185.775 89.3422C185.879 89.3647 185.987 89.3729 186.094 89.3729C186.705 89.3729 187.366 89.0694 188 89.0694C188.634 89.0694 189.295 89.3729 189.906 89.3729C190.013 89.3729 190.121 89.3627 190.225 89.3422C190.252 89.336 190.279 89.3504 190.286 89.375L191.016 91.877C191.038 91.9528 191.112 91.9979 191.19 91.9979C191.225 91.9979 191.261 91.9877 191.292 91.9672L193.348 90.6178C193.471 90.5378 193.616 90.4947 193.763 90.4947C193.786 90.4947 193.81 90.4947 193.833 90.4988L196.346 90.7244H196.364C196.48 90.7244 196.567 90.6239 196.536 90.5173L195.286 86.2332C195.234 86.0568 195.275 85.8682 195.397 85.7246C195.462 85.6487 195.533 85.577 195.612 85.5093C195.69 85.4416 195.772 85.376 195.857 85.3124C196.288 84.9904 196.783 84.7033 197.011 84.2604C197.324 83.6513 197.063 82.8392 197.228 82.1624C197.386 81.5103 198 80.8868 198 80.1875ZM194.629 84.7812C194.507 84.9289 194.379 85.0745 194.246 85.214C193.942 85.5318 193.612 85.8271 193.254 86.0938C192.949 86.3234 192.625 86.5347 192.283 86.7233C192.06 86.8484 191.828 86.9633 191.592 87.0679C191.301 87.1971 191 87.3099 190.69 87.4083C190.516 87.4637 190.342 87.5129 190.163 87.556C190.036 87.5867 189.906 87.6154 189.777 87.6421C189.205 87.7549 188.612 87.8164 188 87.8164C187.382 87.8164 186.779 87.7549 186.199 87.6359C186.076 87.6113 185.955 87.5847 185.835 87.5539C185.656 87.5108 185.48 87.4616 185.308 87.4062C185 87.3099 184.699 87.195 184.406 87.0679C184.181 86.9674 183.962 86.8587 183.748 86.7418C183.395 86.549 183.06 86.3316 182.743 86.0938C182.391 85.8271 182.06 85.5359 181.759 85.2201C181.623 85.0786 181.493 84.931 181.368 84.7812C180.317 83.5036 179.694 81.9122 179.694 80.1875C179.694 75.9731 183.411 72.5586 187.998 72.5586C192.585 72.5586 196.301 75.9731 196.301 80.1875C196.304 81.9122 195.681 83.5036 194.629 84.7812Z" fill="white"/>
<path d="M188 74C184.134 74 181 76.9097 181 80.5C181 84.0903 184.134 87 188 87C191.866 87 195 84.0903 195 80.5C195 76.9097 191.866 74 188 74ZM190.862 81.7446C190.823 81.779 190.806 81.8306 190.814 81.8803L191.348 84.769C191.395 85.0194 191.111 85.2087 190.87 85.0921L188.076 83.729C188.029 83.706 187.971 83.706 187.924 83.729L185.13 85.0921C184.889 85.2106 184.605 85.0194 184.652 84.769L185.186 81.8803C185.194 81.8306 185.177 81.7809 185.138 81.7446L182.878 79.699C182.682 79.5212 182.789 79.2134 183.061 79.1771L186.184 78.7565C186.238 78.7488 186.285 78.7182 186.308 78.6724L187.704 76.0437C187.825 75.8162 188.173 75.8162 188.294 76.0437L189.69 78.6724C189.715 78.7182 189.76 78.7488 189.814 78.7565L192.937 79.1771C193.207 79.2134 193.316 79.5212 193.12 79.699L190.862 81.7446Z" fill="#F7EDCC"/>
<path d="M197 80.3125C197 79.6798 196.448 79.1157 196.305 78.5238C196.158 77.9134 196.393 77.1786 196.11 76.6257C195.823 76.0653 195.065 75.7814 194.658 75.3009C194.248 74.8166 194.123 74.0577 193.611 73.6699C193.103 73.2858 192.289 73.3378 191.696 73.0687C191.112 72.8034 190.652 72.1688 190.003 72.0297C189.908 72.0093 189.812 72 189.716 72C189.165 72 188.571 72.2746 188 72.2746C187.429 72.2746 186.835 72 186.284 72C186.188 72 186.092 72.0093 185.997 72.0278C185.35 72.167 184.888 72.8016 184.304 73.0669C183.711 73.3378 182.897 73.2858 182.387 73.6699C181.875 74.0559 181.748 74.8166 181.34 75.3009C180.933 75.7814 180.175 76.0653 179.888 76.6257C179.607 77.1768 179.842 77.9115 179.693 78.5238C179.552 79.1157 179 79.6798 179 80.3125C179 80.9452 179.552 81.5093 179.695 82.1012C179.842 82.7116 179.607 83.4464 179.89 83.9993C180.095 84.4001 180.543 84.6599 180.929 84.9512C181.081 85.0662 181.226 85.1868 181.34 85.3241L181.342 85.326C181.443 85.4429 181.477 85.5987 181.435 85.7416L180.298 89.6604C180.27 89.755 180.348 89.8478 180.452 89.8478H180.469L182.731 89.6437C182.751 89.6418 182.773 89.6399 182.793 89.6399C182.927 89.6399 183.058 89.6789 183.167 89.7513L185.017 90.9722C185.045 90.9907 185.077 91 185.109 91C185.177 91 185.246 90.9592 185.266 90.8905L185.919 88.638C185.929 88.6064 185.963 88.5879 185.997 88.5953C186.092 88.6157 186.188 88.6231 186.284 88.6231C186.835 88.6231 187.429 88.3485 188 88.3485C188.571 88.3485 189.165 88.6231 189.716 88.6231C189.812 88.6231 189.908 88.6139 190.003 88.5953C190.027 88.5897 190.051 88.6027 190.057 88.625L190.714 90.8887C190.734 90.9573 190.8 90.9981 190.871 90.9981C190.903 90.9981 190.935 90.9889 190.963 90.9703L192.813 89.7494C192.924 89.6771 193.054 89.6381 193.187 89.6381C193.207 89.6381 193.229 89.6381 193.249 89.6418L195.511 89.8459H195.527C195.632 89.8459 195.71 89.755 195.682 89.6585L194.557 85.7824C194.511 85.6229 194.547 85.4521 194.658 85.3223C194.716 85.2536 194.78 85.1887 194.85 85.1274C194.921 85.0662 194.995 85.0068 195.071 84.9493C195.459 84.658 195.905 84.3982 196.11 83.9975C196.391 83.4464 196.156 82.7116 196.305 82.0993C196.448 81.5093 197 80.9452 197 80.3125ZM193.967 84.4688C193.856 84.6023 193.742 84.7341 193.621 84.8603C193.348 85.1479 193.05 85.415 192.729 85.6562C192.454 85.8641 192.163 86.0552 191.855 86.2259C191.654 86.3391 191.445 86.443 191.232 86.5376C190.971 86.6545 190.7 86.7565 190.421 86.8456C190.264 86.8957 190.107 86.9402 189.947 86.9792C189.832 87.007 189.716 87.033 189.599 87.0571C189.085 87.1592 188.55 87.2148 188 87.2148C187.444 87.2148 186.901 87.1592 186.379 87.0516C186.268 87.0293 186.16 87.0052 186.051 86.9773C185.891 86.9384 185.732 86.8938 185.577 86.8438C185.3 86.7565 185.029 86.6526 184.766 86.5376C184.563 86.4467 184.366 86.3483 184.173 86.2426C183.856 86.0682 183.554 85.8715 183.269 85.6562C182.952 85.415 182.654 85.1516 182.383 84.8658C182.26 84.7378 182.144 84.6042 182.031 84.4688C181.085 83.3128 180.525 81.8729 180.525 80.3125C180.525 76.4995 183.87 73.4102 187.998 73.4102C192.126 73.4102 195.471 76.4995 195.471 80.3125C195.473 81.8729 194.913 83.3128 193.967 84.4688Z" fill="#C5B098"/>
<path d="M39.5532 68.4958C41.2738 67.4474 42.7691 67.8325 43.2607 68.0037C43.3631 68.0465 43.4245 68.1534 43.4041 68.2818C43.3016 68.8381 42.8715 70.3785 41.1509 71.4055C39.4303 72.4538 37.935 72.0687 37.4434 71.8975C37.3409 71.8547 37.2795 71.7478 37.3 71.6194C37.4024 71.0845 37.8325 69.5227 39.5532 68.4958ZM43.9162 59.5741C43.9981 59.4885 44.121 59.4885 44.2234 59.5741C44.6126 59.9378 45.6777 61.1145 45.6777 63.1898C45.6777 65.2651 44.6126 66.4419 44.2234 66.8056C44.1415 66.8911 44.0186 66.8911 43.9162 66.8056C43.527 66.4419 42.4618 65.2651 42.4618 63.1898C42.4618 61.1145 43.5065 59.9592 43.9162 59.5741ZM39.717 56.536C39.8194 56.4932 39.9423 56.536 40.0038 56.643C40.2701 57.1137 40.9256 58.5899 40.3111 60.5583C39.6965 62.5266 38.3446 63.2968 37.853 63.5108C37.7506 63.5535 37.6277 63.5108 37.5663 63.4038C37.3 62.9331 36.6445 61.4568 37.259 59.4885C37.8735 57.5202 39.2254 56.75 39.717 56.536ZM32.937 63.5535C34.8829 63.1256 36.1734 63.9814 36.6035 64.3238C36.6855 64.3879 36.7264 64.5377 36.665 64.6233C36.3987 65.1154 35.5384 66.4419 33.5925 66.8484C31.6465 67.2762 30.3561 66.4205 29.9259 66.0781C29.844 66.014 29.803 65.8642 29.8645 65.7786C30.1103 65.3079 30.9911 63.9814 32.937 63.5535ZM36.0095 52.8561C36.0637 52.8459 36.1196 52.858 36.1654 52.89C36.2113 52.9219 36.2435 52.9711 36.2553 53.0273C36.3782 53.5621 36.6035 55.1668 35.4769 56.8569C34.3299 58.5471 32.8346 58.8681 32.302 58.9322C32.1791 58.9536 32.0767 58.8681 32.0562 58.7611C31.9333 58.2262 31.708 56.6216 32.8346 54.9314C33.9816 53.2412 35.4769 52.9203 36.0095 52.8561ZM27.5703 57.5202C29.5367 57.7127 30.5609 58.9109 30.8681 59.3601C30.9296 59.4671 30.9296 59.5955 30.8477 59.6811C30.4585 60.0662 29.2704 61.0717 27.2835 60.8792C25.3171 60.6866 24.2929 59.4885 23.9857 59.0392C23.9242 58.9323 23.9242 58.8039 24.0062 58.7183C24.3954 58.3332 25.6039 57.3276 27.5703 57.5202ZM21.1999 50.3315C21.671 50.0748 23.0844 49.4543 24.9279 50.1817C26.7714 50.9092 27.4474 52.364 27.6318 52.8989C27.6727 53.0059 27.6318 53.1342 27.5293 53.1984C27.0582 53.4552 25.6449 54.0756 23.8013 53.3482C21.9578 52.6208 21.2819 51.1659 21.0975 50.631C21.0565 50.5241 21.0975 50.3957 21.1999 50.3315ZM29.1271 52.8989C29.0041 52.8775 28.9427 52.7705 28.9427 52.6636C28.9632 52.1073 29.1475 50.5027 30.6838 49.1976C32.2201 47.8711 33.7563 47.9995 34.2684 48.0851C34.3913 48.1064 34.4528 48.2134 34.4528 48.3204C34.4323 48.8767 34.2479 50.4813 32.7117 51.7864C31.1754 53.1128 29.6391 53.0059 29.1271 52.8989ZM27.4064 45.5391C27.4064 45.6674 27.3245 45.753 27.2016 45.7744C26.669 45.8386 25.1328 45.9028 23.6579 44.5335C22.1831 43.1642 22.0398 41.5596 22.0398 41.0034C22.0398 40.875 22.1217 40.7894 22.2446 40.768C22.7772 40.7038 24.3134 40.6396 25.7882 42.0089C27.2835 43.3782 27.4269 44.9828 27.4064 45.5391ZM28.6969 45.7958C28.9017 45.2823 29.6187 43.8489 31.5031 43.207C33.3876 42.5438 34.7805 43.2284 35.2311 43.5066C35.3336 43.5707 35.3745 43.6991 35.3336 43.8061C35.1287 44.3196 34.4118 45.753 32.5273 46.3949C30.6428 47.0581 29.25 46.3735 28.7993 46.0953C28.6969 46.0311 28.6559 45.9028 28.6969 45.7958ZM30.3356 39.6341C30.2536 39.5485 30.2332 39.4201 30.2946 39.3132C30.5609 38.8425 31.4827 37.5374 33.4286 37.1951C35.3745 36.8314 36.665 37.7299 37.0747 38.0936C37.1566 38.1792 37.1771 38.3076 37.1156 38.4146C36.8289 38.8853 35.9276 40.1903 33.9816 40.5327C32.0357 40.875 30.7452 39.9764 30.3356 39.6341ZM29.0451 38.8639C29.0246 38.9922 28.9222 39.0778 28.8198 39.0564C28.2872 39.035 26.7714 38.8639 25.5015 37.2592C24.2315 35.6546 24.3339 34.05 24.4158 33.4938C24.4363 33.3654 24.5387 33.2798 24.6412 33.3012C25.1737 33.3226 26.6895 33.4938 27.9595 35.0984C29.2295 36.703 29.1271 38.3076 29.0451 38.8639ZM31.9333 32.8947C31.4212 32.7449 30.0078 32.1459 29.168 30.2417C28.3487 28.359 28.8403 26.8186 29.0656 26.3265C29.1066 26.2195 29.2295 26.1553 29.3319 26.1981C29.844 26.3479 31.2573 26.9469 32.0972 28.8511C32.937 30.7552 32.4249 32.2742 32.1996 32.7663C32.1905 32.7932 32.1763 32.818 32.1578 32.8391C32.1394 32.8601 32.1172 32.8772 32.0923 32.8891C32.0675 32.9011 32.0407 32.9078 32.0134 32.9087C31.986 32.9097 31.9588 32.9049 31.9333 32.8947ZM40.1472 34.2426C40.2086 34.3282 40.1882 34.4565 40.1062 34.5421C39.717 34.9272 38.529 35.9328 36.5421 35.7402C35.8979 35.6899 35.2712 35.4981 34.7029 35.1773C34.1346 34.8566 33.6375 34.4141 33.2442 33.8789C33.1828 33.7719 33.1828 33.6435 33.2647 33.5579C33.6539 33.1728 34.8624 32.1887 36.8289 32.3812C38.8158 32.5738 39.8194 33.7719 40.1472 34.2426ZM35.2516 30.1989C35.1287 30.1775 35.0468 30.092 35.0468 29.9636C34.842 27.4604 37.7916 24.6363 40.1267 25.0856C40.2496 25.107 40.3315 25.1925 40.3315 25.3209C40.5569 27.8241 37.5867 30.6482 35.2516 30.1989Z" fill="#F7EDCC"/>
<path d="M336.413 67.4943C334.692 66.4459 333.197 66.8311 332.705 67.0022C332.603 67.045 332.541 67.152 332.562 67.2803C332.664 67.8366 333.094 69.377 334.815 70.404C336.536 71.4523 338.031 71.0672 338.522 70.8961C338.625 70.8533 338.686 70.7463 338.666 70.6179C338.563 70.0831 338.133 68.5212 336.413 67.4943ZM332.05 58.5726C331.968 58.4871 331.845 58.4871 331.742 58.5726C331.353 58.9363 330.288 60.1131 330.288 62.1884C330.288 64.2637 331.353 65.4404 331.742 65.8041C331.824 65.8897 331.947 65.8897 332.05 65.8041C332.439 65.4404 333.504 64.2637 333.504 62.1884C333.504 60.1131 332.459 58.9577 332.05 58.5726ZM336.249 55.5346C336.146 55.4918 336.023 55.5346 335.962 55.6415C335.696 56.1122 335.04 57.5885 335.655 59.5568C336.269 61.5251 337.621 62.2953 338.113 62.5093C338.215 62.5521 338.338 62.5093 338.4 62.4023C338.666 61.9316 339.321 60.4554 338.707 58.4871C338.092 56.5187 336.74 55.7485 336.249 55.5346ZM343.029 62.5521C341.083 62.1242 339.792 62.98 339.362 63.3223C339.28 63.3865 339.239 63.5362 339.301 63.6218C339.567 64.1139 340.427 65.4404 342.373 65.8469C344.319 66.2748 345.61 65.419 346.04 65.0767C346.122 65.0125 346.163 64.8627 346.101 64.7771C345.856 64.3065 344.975 62.98 343.029 62.5521ZM339.956 51.8546C339.902 51.8444 339.846 51.8566 339.8 51.8885C339.755 51.9204 339.722 51.9696 339.711 52.0258C339.588 52.5607 339.362 54.1653 340.489 55.8555C341.636 57.5457 343.131 57.8666 343.664 57.9308C343.787 57.9522 343.889 57.8666 343.91 57.7596C344.033 57.2248 344.258 55.6201 343.131 53.9299C341.984 52.2397 340.489 51.9188 339.956 51.8546ZM348.396 56.5187C346.429 56.7113 345.405 57.9094 345.098 58.3587C345.036 58.4657 345.036 58.594 345.118 58.6796C345.507 59.0647 346.695 60.0703 348.682 59.8777C350.649 59.6852 351.673 58.4871 351.98 58.0378C352.042 57.9308 352.042 57.8024 351.96 57.7168C351.57 57.3317 350.362 56.3262 348.396 56.5187ZM354.766 49.3301C354.295 49.0733 352.881 48.4529 351.038 49.1803C349.194 49.9077 348.518 51.3626 348.334 51.8974C348.293 52.0044 348.334 52.1328 348.436 52.197C348.908 52.4537 350.321 53.0742 352.164 52.3467C354.008 51.6193 354.684 50.1644 354.868 49.6296C354.909 49.5226 354.868 49.3942 354.766 49.3301ZM346.839 51.8974C346.962 51.876 347.023 51.7691 347.023 51.6621C347.003 51.1058 346.818 49.5012 345.282 48.1961C343.746 46.8696 342.209 46.998 341.697 47.0836C341.575 47.105 341.513 47.212 341.513 47.3189C341.534 47.8752 341.718 49.4798 343.254 50.7849C344.79 52.1114 346.327 52.0044 346.839 51.8974ZM348.559 44.5376C348.559 44.666 348.641 44.7515 348.764 44.7729C349.297 44.8371 350.833 44.9013 352.308 43.532C353.783 42.1628 353.926 40.5582 353.926 40.0019C353.926 39.8735 353.844 39.7879 353.721 39.7665C353.189 39.7024 351.652 39.6382 350.178 41.0074C348.682 42.3767 348.539 43.9813 348.559 44.5376ZM347.269 44.7943C347.064 44.2809 346.347 42.8474 344.463 42.2056C342.578 41.5423 341.185 42.227 340.735 42.5051C340.632 42.5693 340.591 42.6976 340.632 42.8046C340.837 43.3181 341.554 44.7515 343.439 45.3934C345.323 46.0566 346.716 45.372 347.167 45.0939C347.269 45.0297 347.31 44.9013 347.269 44.7943ZM345.63 38.6326C345.712 38.547 345.733 38.4187 345.671 38.3117C345.405 37.841 344.483 36.5359 342.537 36.1936C340.591 35.8299 339.301 36.7285 338.891 37.0922C338.809 37.1778 338.789 37.3061 338.85 37.4131C339.137 37.8838 340.038 39.1889 341.984 39.5312C343.93 39.8735 345.221 38.9749 345.63 38.6326ZM346.921 37.8624C346.941 37.9908 347.044 38.0763 347.146 38.055C347.679 38.0336 349.194 37.8624 350.464 36.2578C351.734 34.6532 351.632 33.0486 351.55 32.4923C351.529 32.3639 351.427 32.2783 351.325 32.2997C350.792 32.3211 349.276 32.4923 348.006 34.0969C346.736 35.7015 346.839 37.3061 346.921 37.8624ZM344.033 31.8932C344.545 31.7435 345.958 31.1444 346.798 29.2403C347.617 27.3575 347.126 25.8171 346.9 25.325C346.859 25.218 346.736 25.1538 346.634 25.1966C346.122 25.3464 344.708 25.9455 343.869 27.8496C343.029 29.7537 343.541 31.2728 343.766 31.7649C343.775 31.7918 343.79 31.8165 343.808 31.8376C343.826 31.8587 343.849 31.8757 343.873 31.8877C343.898 31.8996 343.925 31.9063 343.952 31.9072C343.98 31.9082 344.007 31.9034 344.033 31.8932ZM335.819 33.2411C335.757 33.3267 335.778 33.4551 335.86 33.5406C336.249 33.9257 337.437 34.9313 339.424 34.7387C340.068 34.6884 340.695 34.4966 341.263 34.1759C341.831 33.8551 342.328 33.4126 342.722 32.8774C342.783 32.7704 342.783 32.6421 342.701 32.5565C342.312 32.1714 341.103 31.1872 339.137 31.3798C337.15 31.5723 336.146 32.7704 335.819 33.2411ZM340.714 29.1975C340.837 29.1761 340.919 29.0905 340.919 28.9621C341.124 26.4589 338.174 23.6348 335.839 24.0841C335.716 24.1055 335.634 24.1911 335.634 24.3194C335.409 26.8226 338.379 29.6468 340.714 29.1975Z" fill="#F7EDCC"/>
<path d="M41.9592 67.9536C43.0039 67.3291 43.9118 67.5585 44.2102 67.6605C44.2724 67.686 44.3097 67.7497 44.2973 67.8262C44.2351 68.1576 43.9739 69.0753 42.9293 69.6871C41.8846 70.3116 40.9768 70.0822 40.6783 69.9802C40.6161 69.9547 40.5788 69.891 40.5912 69.8145C40.6534 69.4959 40.9146 68.5654 41.9592 67.9536ZM44.6082 62.6386C44.6579 62.5876 44.7326 62.5876 44.7947 62.6386C45.031 62.8553 45.6777 63.5563 45.6777 64.7927C45.6777 66.029 45.031 66.73 44.7947 66.9467C44.745 66.9977 44.6704 66.9977 44.6082 66.9467C44.3719 66.73 43.7252 66.029 43.7252 64.7927C43.7252 63.5563 44.3595 62.868 44.6082 62.6386ZM42.0587 60.8287C42.1209 60.8032 42.1955 60.8287 42.2328 60.8924C42.3945 61.1728 42.7925 62.0523 42.4194 63.2249C42.0463 64.3975 41.2255 64.8564 40.927 64.9839C40.8648 65.0093 40.7902 64.9839 40.7529 64.9201C40.5912 64.6397 40.1933 63.7602 40.5664 62.5876C40.9395 61.415 41.7603 60.9562 42.0587 60.8287ZM37.9423 65.0093C39.1237 64.7544 39.9072 65.2643 40.1684 65.4682C40.2181 65.5064 40.243 65.5957 40.2057 65.6466C40.044 65.9398 39.5217 66.73 38.3402 66.9722C37.1588 67.2271 36.3753 66.7173 36.1141 66.5134C36.0644 66.4751 36.0395 66.3859 36.0768 66.3349C36.2261 66.0545 36.7608 65.2643 37.9423 65.0093ZM39.8077 58.6364C39.8407 58.6303 39.8746 58.6376 39.9024 58.6566C39.9302 58.6756 39.9498 58.7049 39.957 58.7384C40.0316 59.057 40.1684 60.013 39.4844 61.0199C38.788 62.0268 37.8801 62.218 37.5567 62.2562C37.4821 62.269 37.4199 62.218 37.4075 62.1543C37.3329 61.8356 37.1961 60.8797 37.8801 59.8728C38.5765 58.8658 39.4844 58.6746 39.8077 58.6364ZM34.6839 61.415C35.8778 61.5297 36.4997 62.2435 36.6862 62.5112C36.7235 62.5749 36.7235 62.6514 36.6738 62.7023C36.4375 62.9318 35.7162 63.5308 34.5098 63.4161C33.3159 63.3014 32.6941 62.5876 32.5076 62.32C32.4703 62.2562 32.4703 62.1798 32.52 62.1288C32.7563 61.8993 33.49 61.3003 34.6839 61.415ZM30.8162 57.1324C31.1022 56.9794 31.9604 56.6098 33.0796 57.0432C34.1989 57.4765 34.6093 58.3432 34.7212 58.6619C34.7461 58.7256 34.7212 58.8021 34.6591 58.8403C34.373 58.9933 33.5149 59.3629 32.3956 58.9296C31.2764 58.4962 30.866 57.6295 30.754 57.3108C30.7292 57.2471 30.754 57.1706 30.8162 57.1324ZM35.6291 58.6619C35.5545 58.6491 35.5172 58.5854 35.5172 58.5217C35.5296 58.1903 35.6415 57.2344 36.5743 56.4569C37.507 55.6666 38.4397 55.7431 38.7506 55.7941C38.8253 55.8068 38.8626 55.8705 38.8626 55.9343C38.8501 56.2657 38.7382 57.2216 37.8055 57.9991C36.8727 58.7894 35.94 58.7256 35.6291 58.6619ZM34.5844 54.2773C34.5844 54.3538 34.5347 54.4048 34.4601 54.4175C34.1367 54.4558 33.204 54.494 32.3086 53.6783C31.4132 52.8625 31.3261 51.9066 31.3261 51.5752C31.3261 51.4987 31.3758 51.4477 31.4505 51.435C31.7738 51.3967 32.7065 51.3585 33.602 52.1742C34.5098 52.99 34.5969 53.9459 34.5844 54.2773ZM35.3679 54.4303C35.4923 54.1244 35.9276 53.2704 37.0717 52.888C38.2159 52.4929 39.0616 52.9008 39.3352 53.0665C39.3973 53.1047 39.4222 53.1812 39.3973 53.2449C39.273 53.5508 38.8377 54.4048 37.6936 54.7871C36.5494 55.1823 35.7037 54.7744 35.4301 54.6087C35.3679 54.5705 35.3431 54.494 35.3679 54.4303ZM36.3629 50.7595C36.3131 50.7085 36.3007 50.632 36.338 50.5683C36.4997 50.2879 37.0593 49.5104 38.2408 49.3064C39.4222 49.0897 40.2057 49.6251 40.4544 49.8417C40.5042 49.8927 40.5166 49.9692 40.4793 50.0329C40.3052 50.3133 39.758 51.0908 38.5765 51.2948C37.3951 51.4987 36.6116 50.9634 36.3629 50.7595ZM35.5794 50.3006C35.5669 50.3771 35.5047 50.4281 35.4426 50.4153C35.1192 50.4026 34.1989 50.3006 33.4279 49.3447C32.6568 48.3887 32.719 47.4328 32.7687 47.1014C32.7812 47.0249 32.8433 46.9739 32.9055 46.9867C33.2289 46.9994 34.1492 47.1014 34.9202 48.0573C35.6913 49.0133 35.6291 49.9692 35.5794 50.3006ZM37.3329 46.7445C37.022 46.6553 36.1639 46.2984 35.654 45.164C35.1565 44.0424 35.455 43.1247 35.5918 42.8315C35.6167 42.7678 35.6913 42.7295 35.7535 42.755C36.0644 42.8443 36.9225 43.2011 37.4324 44.3355C37.9423 45.4699 37.6314 46.3749 37.4946 46.668C37.489 46.6841 37.4804 46.6988 37.4692 46.7114C37.458 46.7239 37.4445 46.7341 37.4295 46.7412C37.4144 46.7483 37.3981 46.7523 37.3815 46.7528C37.3649 46.7534 37.3484 46.7506 37.3329 46.7445ZM42.3199 47.5475C42.3572 47.5985 42.3448 47.6749 42.295 47.7259C42.0587 47.9554 41.3374 48.5544 40.1311 48.4397C39.74 48.4097 39.3595 48.2955 39.0144 48.1044C38.6694 47.9133 38.3676 47.6497 38.1288 47.3308C38.0915 47.2671 38.0915 47.1906 38.1413 47.1396C38.3776 46.9102 39.1113 46.3239 40.3052 46.4386C41.5115 46.5533 42.1209 47.2671 42.3199 47.5475ZM39.3476 45.1385C39.273 45.1258 39.2232 45.0748 39.2232 44.9983C39.0989 43.507 40.8897 41.8246 42.3075 42.0923C42.3821 42.105 42.4318 42.156 42.4318 42.2325C42.5686 43.7237 40.7653 45.4062 39.3476 45.1385Z" fill="#C5B098"/>
<path d="M334.007 67.9536C332.962 67.3291 332.054 67.5585 331.756 67.6605C331.693 67.686 331.656 67.7497 331.669 67.8262C331.731 68.1576 331.992 69.0753 333.037 69.6871C334.081 70.3116 334.989 70.0822 335.288 69.9802C335.35 69.9547 335.387 69.891 335.375 69.8145C335.312 69.4959 335.051 68.5654 334.007 67.9536ZM331.358 62.6386C331.308 62.5876 331.233 62.5876 331.171 62.6386C330.935 62.8553 330.288 63.5563 330.288 64.7927C330.288 66.029 330.935 66.73 331.171 66.9467C331.221 66.9977 331.295 66.9977 331.358 66.9467C331.594 66.73 332.241 66.029 332.241 64.7927C332.241 63.5563 331.606 62.868 331.358 62.6386ZM333.907 60.8287C333.845 60.8032 333.77 60.8287 333.733 60.8924C333.571 61.1728 333.173 62.0523 333.546 63.2249C333.92 64.3975 334.74 64.8564 335.039 64.9839C335.101 65.0093 335.176 64.9839 335.213 64.9201C335.375 64.6397 335.773 63.7602 335.399 62.5876C335.026 61.415 334.206 60.9562 333.907 60.8287ZM338.024 65.0093C336.842 64.7544 336.059 65.2643 335.797 65.4682C335.748 65.5064 335.723 65.5957 335.76 65.6466C335.922 65.9398 336.444 66.73 337.626 66.9722C338.807 67.2271 339.591 66.7173 339.852 66.5134C339.901 66.4751 339.926 66.3859 339.889 66.3349C339.74 66.0545 339.205 65.2643 338.024 65.0093ZM336.158 58.6364C336.125 58.6303 336.091 58.6376 336.063 58.6566C336.036 58.6756 336.016 58.7049 336.009 58.7384C335.934 59.057 335.797 60.013 336.481 61.0199C337.178 62.0268 338.086 62.218 338.409 62.2562C338.484 62.269 338.546 62.218 338.558 62.1543C338.633 61.8356 338.77 60.8797 338.086 59.8728C337.389 58.8658 336.481 58.6746 336.158 58.6364ZM341.282 61.415C340.088 61.5297 339.466 62.2435 339.28 62.5112C339.242 62.5749 339.242 62.6514 339.292 62.7023C339.528 62.9318 340.25 63.5308 341.456 63.4161C342.65 63.3014 343.272 62.5876 343.458 62.32C343.496 62.2562 343.496 62.1798 343.446 62.1288C343.21 61.8993 342.476 61.3003 341.282 61.415ZM345.15 57.1324C344.864 56.9794 344.005 56.6098 342.886 57.0432C341.767 57.4765 341.357 58.3432 341.245 58.6619C341.22 58.7256 341.245 58.8021 341.307 58.8403C341.593 58.9933 342.451 59.3629 343.57 58.9296C344.689 58.4962 345.1 57.6295 345.212 57.3108C345.237 57.2471 345.212 57.1706 345.15 57.1324ZM340.337 58.6619C340.411 58.6491 340.449 58.5854 340.449 58.5217C340.436 58.1903 340.324 57.2344 339.392 56.4569C338.459 55.6666 337.526 55.7431 337.215 55.7941C337.141 55.8068 337.103 55.8705 337.103 55.9343C337.116 56.2657 337.228 57.2216 338.16 57.9991C339.093 58.7894 340.026 58.7256 340.337 58.6619ZM341.381 54.2773C341.381 54.3538 341.431 54.4048 341.506 54.4175C341.829 54.4558 342.762 54.494 343.657 53.6783C344.553 52.8625 344.64 51.9066 344.64 51.5752C344.64 51.4987 344.59 51.4477 344.515 51.435C344.192 51.3967 343.259 51.3585 342.364 52.1742C341.456 52.99 341.369 53.9459 341.381 54.2773ZM340.598 54.4303C340.474 54.1244 340.038 53.2704 338.894 52.888C337.75 52.4929 336.904 52.9008 336.631 53.0665C336.568 53.1047 336.544 53.1812 336.568 53.2449C336.693 53.5508 337.128 54.4048 338.272 54.7871C339.416 55.1823 340.262 54.7744 340.536 54.6087C340.598 54.5705 340.623 54.494 340.598 54.4303ZM339.603 50.7595C339.653 50.7085 339.665 50.632 339.628 50.5683C339.466 50.2879 338.907 49.5104 337.725 49.3064C336.544 49.0897 335.76 49.6251 335.511 49.8417C335.462 49.8927 335.449 49.9692 335.487 50.0329C335.661 50.3133 336.208 51.0908 337.389 51.2948C338.571 51.4987 339.354 50.9634 339.603 50.7595ZM340.386 50.3006C340.399 50.3771 340.461 50.4281 340.523 50.4153C340.847 50.4026 341.767 50.3006 342.538 49.3447C343.309 48.3887 343.247 47.4328 343.197 47.1014C343.185 47.0249 343.122 46.9739 343.06 46.9867C342.737 46.9994 341.817 47.1014 341.046 48.0573C340.275 49.0133 340.337 49.9692 340.386 50.3006ZM338.633 46.7445C338.944 46.6553 339.802 46.2984 340.312 45.164C340.809 44.0424 340.511 43.1247 340.374 42.8315C340.349 42.7678 340.275 42.7295 340.212 42.755C339.901 42.8443 339.043 43.2011 338.533 44.3355C338.024 45.4699 338.334 46.3749 338.471 46.668C338.477 46.6841 338.485 46.6988 338.497 46.7114C338.508 46.7239 338.521 46.7341 338.536 46.7412C338.551 46.7483 338.568 46.7523 338.584 46.7528C338.601 46.7534 338.617 46.7506 338.633 46.7445ZM333.646 47.5475C333.609 47.5985 333.621 47.6749 333.671 47.7259C333.907 47.9554 334.628 48.5544 335.835 48.4397C336.226 48.4097 336.606 48.2955 336.951 48.1044C337.296 47.9133 337.598 47.6497 337.837 47.3308C337.874 47.2671 337.874 47.1906 337.825 47.1396C337.588 46.9102 336.855 46.3239 335.661 46.4386C334.454 46.5533 333.845 47.2671 333.646 47.5475ZM336.618 45.1385C336.693 45.1258 336.743 45.0748 336.743 44.9983C336.867 43.507 335.076 41.8246 333.658 42.0923C333.584 42.105 333.534 42.156 333.534 42.2325C333.397 43.7237 335.2 45.4062 336.618 45.1385Z" fill="#C5B098"/>
</svg>
