<svg width="22" height="22" viewBox="0 0 22 22" fill="none" xmlns="http://www.w3.org/2000/svg">
<path d="M18.8732 5.53025H13.6207V1.83975C13.6207 0.82225 12.8425 0 11.8745 0H3.12125C2.15325 0 1.375 0.82225 1.375 1.83975V18.425H20.625V7.37C20.625 6.3525 19.8412 5.53025 18.8732 5.53025ZM6.27 15.9005H3.8225V13.3155H6.27V15.9005ZM6.27 10.648H3.8225V8.063H6.27V10.648ZM6.27 5.39275H3.8225V2.80775H6.27V5.39275ZM11.1705 15.9005H8.723V13.3155H11.1705V15.9005ZM11.1705 10.648H8.723V8.063H11.1705V10.648ZM11.1705 5.39275H8.723V2.80775H11.1705V5.39275ZM17.8337 15.9005H15.3862V13.3155H17.8337V15.9005ZM17.8337 10.736H15.3862V8.1565H17.8337V10.736ZM21.956 22H0.044C0.01925 22 0 21.9807 0 21.956V19.844C0 19.8193 0.01925 19.8 0.044 19.8H21.956C21.9807 19.8 22 19.8193 22 19.844V21.956C22 21.9807 21.9807 22 21.956 22Z" fill="#20C38C"/>
</svg>
