<svg width="31" height="5" viewBox="0 0 31 5" fill="none" xmlns="http://www.w3.org/2000/svg">
<path opacity="0.3" d="M1.43 0.43H1.79L3.22 4H2.885L2.47 2.935H0.75L0.335 4H0L1.43 0.43ZM0.85 2.675H2.37L1.62 0.76H1.605L0.85 2.675ZM3.58277 0.43H3.88777V2.62C3.88777 3 3.96777 3.29 4.13777 3.485C4.31777 3.69 4.59277 3.795 4.97277 3.795C5.35277 3.795 5.62777 3.69 5.80777 3.485C5.97277 3.29 6.05777 3 6.05777 2.62V0.43H6.36277V2.62C6.36277 3.085 6.24777 3.44 6.02777 3.685C5.79277 3.94 5.44277 4.07 4.97277 4.07C4.50277 4.07 4.15277 3.94 3.92277 3.69C3.69277 3.44 3.58277 3.085 3.58277 2.62V0.43ZM7.09352 0.43H8.36352C8.91852 0.43 9.33852 0.595 9.61852 0.93C9.87352 1.23 10.0035 1.66 10.0035 2.215C10.0035 2.76 9.85852 3.19 9.57352 3.505C9.27352 3.835 8.84852 4 8.29852 4H7.09352V0.43ZM7.39852 0.7V3.73H8.25352C8.72852 3.73 9.09352 3.595 9.34352 3.325C9.58352 3.065 9.70352 2.695 9.70352 2.215C9.70352 1.715 9.59852 1.345 9.38852 1.1C9.15852 0.83 8.79852 0.7 8.31852 0.7H7.39852ZM10.6297 0.43H10.9347V4H10.6297V0.43ZM11.4328 0.43H14.3578V0.7H13.0478V4H12.7428V0.7H11.4328V0.43ZM16.3582 0.36C16.8832 0.36 17.2982 0.54 17.6082 0.9C17.8982 1.24 18.0432 1.675 18.0432 2.215C18.0432 2.755 17.8982 3.195 17.6082 3.535C17.2982 3.89 16.8832 4.07 16.3532 4.07C15.8232 4.07 15.4032 3.89 15.0982 3.53C14.8082 3.19 14.6632 2.75 14.6632 2.215C14.6632 1.68 14.8082 1.24 15.0982 0.9C15.4082 0.54 15.8282 0.36 16.3582 0.36ZM16.3582 0.64C15.9232 0.64 15.5782 0.79 15.3282 1.09C15.0882 1.38 14.9682 1.755 14.9682 2.215C14.9682 2.68 15.0832 3.055 15.3232 3.34C15.5732 3.64 15.9182 3.79 16.3532 3.79C16.7882 3.79 17.1282 3.64 17.3782 3.345C17.6182 3.06 17.7382 2.685 17.7382 2.215C17.7382 1.745 17.6182 1.365 17.3782 1.085C17.1282 0.785 16.7882 0.64 16.3582 0.64ZM18.6218 0.43H20.1318C20.4818 0.43 20.7618 0.51 20.9618 0.68C21.1618 0.85 21.2668 1.09 21.2668 1.41C21.2668 1.62 21.2068 1.8 21.0968 1.955C20.9768 2.115 20.8068 2.22 20.5918 2.27V2.28C20.9518 2.36 21.1518 2.58 21.1918 2.94L21.2418 3.475C21.2618 3.695 21.3168 3.87 21.4168 4H21.0818C21.0068 3.88 20.9618 3.715 20.9418 3.515L20.8968 3.025C20.8768 2.805 20.7918 2.645 20.6518 2.55C20.5218 2.46 20.3368 2.415 20.1068 2.415H18.9268V4H18.6218V0.43ZM18.9268 0.7V2.145H20.1018C20.3818 2.145 20.5968 2.075 20.7518 1.94C20.8918 1.81 20.9618 1.64 20.9618 1.42C20.9618 1.18 20.8918 1.005 20.7568 0.885C20.6168 0.76 20.3968 0.7 20.0968 0.7H18.9268ZM21.992 0.43H22.297V4H21.992V0.43ZM23.0701 0.43H23.3751V2.62C23.3751 3 23.4551 3.29 23.6251 3.485C23.8051 3.69 24.0801 3.795 24.4601 3.795C24.8401 3.795 25.1151 3.69 25.2951 3.485C25.4601 3.29 25.5451 3 25.5451 2.62V0.43H25.8501V2.62C25.8501 3.085 25.7351 3.44 25.5151 3.685C25.2801 3.94 24.9301 4.07 24.4601 4.07C23.9901 4.07 23.6401 3.94 23.4101 3.69C23.1801 3.44 23.0701 3.085 23.0701 2.62V0.43ZM26.5808 0.43H26.9858L28.3858 3.615H28.4008L29.7908 0.43H30.1958V4H29.8908V0.935H29.8758L28.5358 4H28.2408L26.9058 0.935H26.8858V4H26.5808V0.43Z" fill="black"/>
</svg>
