<svg width="51" height="5" viewBox="0 0 51 5" fill="none" xmlns="http://www.w3.org/2000/svg">
<path opacity="0.3" d="M0.365 0.43H1.935C2.255 0.43 2.515 0.505 2.705 0.665C2.895 0.825 2.99 1.045 2.99 1.325C2.99 1.53 2.93 1.705 2.815 1.85C2.7 1.99 2.55 2.085 2.37 2.14C2.605 2.18 2.79 2.275 2.93 2.425C3.065 2.58 3.135 2.775 3.135 3.015C3.135 3.355 3.01 3.61 2.77 3.78C2.56 3.925 2.275 4 1.92 4H0.365V0.43ZM0.67 0.695V2.025H1.87C2.125 2.025 2.325 1.965 2.465 1.855C2.61 1.74 2.685 1.575 2.685 1.355C2.685 1.135 2.61 0.965 2.47 0.855C2.325 0.745 2.125 0.695 1.875 0.695H0.67ZM0.67 2.285V3.735H1.91C2.175 3.735 2.39 3.68 2.55 3.575C2.735 3.445 2.83 3.26 2.83 3.01C2.83 2.765 2.74 2.58 2.57 2.46C2.405 2.34 2.185 2.285 1.905 2.285H0.67ZM4.77961 0.43H5.13961L6.56961 4H6.23461L5.81961 2.935H4.09961L3.68461 4H3.34961L4.77961 0.43ZM4.19961 2.675H5.71961L4.96961 0.76H4.95461L4.19961 2.675ZM8.09738 0.36C8.48738 0.36 8.79738 0.455 9.02738 0.645C9.26238 0.835 9.39738 1.115 9.42738 1.485H9.12238C9.08238 1.205 8.97738 0.995 8.80738 0.85C8.63738 0.705 8.39738 0.635 8.08738 0.635C7.79738 0.635 7.57238 0.685 7.40738 0.785C7.21738 0.895 7.12738 1.065 7.12738 1.29C7.12738 1.49 7.23738 1.645 7.46238 1.765C7.56738 1.815 7.79738 1.895 8.14738 1.995C8.60238 2.125 8.90738 2.235 9.06738 2.335C9.36238 2.51 9.51238 2.76 9.51238 3.085C9.51238 3.39 9.38238 3.635 9.12738 3.815C8.88238 3.985 8.55738 4.07 8.15238 4.07C7.74238 4.07 7.41738 3.975 7.18238 3.79C6.91238 3.575 6.76238 3.25 6.73238 2.82H7.03238C7.06738 3.155 7.18238 3.405 7.38238 3.57C7.56238 3.715 7.81738 3.79 8.14738 3.79C8.46238 3.79 8.71738 3.725 8.91238 3.605C9.10238 3.48 9.20238 3.31 9.20238 3.1C9.20238 2.855 9.07738 2.665 8.83738 2.53C8.71738 2.46 8.45738 2.365 8.05238 2.255C7.62738 2.135 7.35238 2.04 7.23238 1.97C6.95738 1.815 6.82238 1.59 6.82238 1.3C6.82238 0.99 6.94738 0.755 7.20738 0.59C7.43738 0.435 7.73738 0.36 8.09738 0.36ZM12.4277 0.43H12.8377L11.1977 1.955L13.0627 4H12.6427L10.9877 2.15L10.3477 2.745V4H10.0427V0.43H10.3477V2.39L12.4277 0.43ZM13.4265 0.43H15.9315V0.7H13.7315V2.015H15.8115V2.29H13.7315V3.73H16.0165V4H13.4265V0.43ZM16.3205 0.43H19.2455V0.7H17.9355V4H17.6305V0.7H16.3205V0.43ZM19.7009 0.43H21.2709C21.5909 0.43 21.8509 0.505 22.0409 0.665C22.2309 0.825 22.3259 1.045 22.3259 1.325C22.3259 1.53 22.2659 1.705 22.1509 1.85C22.0359 1.99 21.8859 2.085 21.7059 2.14C21.9409 2.18 22.1259 2.275 22.2659 2.425C22.4009 2.58 22.4709 2.775 22.4709 3.015C22.4709 3.355 22.3459 3.61 22.1059 3.78C21.8959 3.925 21.6109 4 21.2559 4H19.7009V0.43ZM20.0059 0.695V2.025H21.2059C21.4609 2.025 21.6609 1.965 21.8009 1.855C21.9459 1.74 22.0209 1.575 22.0209 1.355C22.0209 1.135 21.9459 0.965 21.8059 0.855C21.6609 0.745 21.4609 0.695 21.2109 0.695H20.0059ZM20.0059 2.285V3.735H21.2459C21.5109 3.735 21.7259 3.68 21.8859 3.575C22.0709 3.445 22.1659 3.26 22.1659 3.01C22.1659 2.765 22.0759 2.58 21.9059 2.46C21.7409 2.34 21.5209 2.285 21.2409 2.285H20.0059ZM24.1155 0.43H24.4755L25.9055 4H25.5705L25.1555 2.935H23.4355L23.0205 4H22.6855L24.1155 0.43ZM23.5355 2.675H25.0555L24.3055 0.76H24.2905L23.5355 2.675ZM26.2683 0.43H26.5733V3.73H28.7183V4H26.2683V0.43ZM29.198 0.43H29.503V3.73H31.648V4H29.198V0.43ZM35.3327 0.36C35.7077 0.36 36.0327 0.46 36.3027 0.67C36.5827 0.88 36.7427 1.16 36.7877 1.51H36.4927C36.4477 1.235 36.3127 1.02 36.0877 0.865C35.8727 0.715 35.6177 0.64 35.3277 0.64C34.8877 0.64 34.5477 0.795 34.2977 1.105C34.0627 1.395 33.9477 1.77 33.9477 2.23C33.9477 2.69 34.0627 3.065 34.2927 3.345C34.5327 3.64 34.8677 3.79 35.2977 3.79C35.6027 3.79 35.8627 3.705 36.0827 3.545C36.3177 3.365 36.4727 3.11 36.5427 2.78H36.8377C36.7627 3.19 36.5777 3.515 36.2777 3.75C36.0027 3.96 35.6777 4.07 35.3027 4.07C34.7677 4.07 34.3527 3.885 34.0527 3.52C33.7777 3.185 33.6427 2.755 33.6427 2.23C33.6427 1.705 33.7827 1.27 34.0627 0.925C34.3677 0.545 34.7927 0.36 35.3327 0.36ZM38.9608 0.36C39.4858 0.36 39.9008 0.54 40.2108 0.9C40.5008 1.24 40.6458 1.675 40.6458 2.215C40.6458 2.755 40.5008 3.195 40.2108 3.535C39.9008 3.89 39.4858 4.07 38.9558 4.07C38.4258 4.07 38.0058 3.89 37.7008 3.53C37.4108 3.19 37.2658 2.75 37.2658 2.215C37.2658 1.68 37.4108 1.24 37.7008 0.9C38.0108 0.54 38.4308 0.36 38.9608 0.36ZM38.9608 0.64C38.5258 0.64 38.1808 0.79 37.9308 1.09C37.6908 1.38 37.5708 1.755 37.5708 2.215C37.5708 2.68 37.6858 3.055 37.9258 3.34C38.1758 3.64 38.5208 3.79 38.9558 3.79C39.3908 3.79 39.7308 3.64 39.9808 3.345C40.2208 3.06 40.3408 2.685 40.3408 2.215C40.3408 1.745 40.2208 1.365 39.9808 1.085C39.7308 0.785 39.3908 0.64 38.9608 0.64ZM41.2244 0.43H41.5294V2.62C41.5294 3 41.6094 3.29 41.7794 3.485C41.9594 3.69 42.2344 3.795 42.6144 3.795C42.9944 3.795 43.2694 3.69 43.4494 3.485C43.6144 3.29 43.6994 3 43.6994 2.62V0.43H44.0044V2.62C44.0044 3.085 43.8894 3.44 43.6694 3.685C43.4344 3.94 43.0844 4.07 42.6144 4.07C42.1444 4.07 41.7944 3.94 41.5644 3.69C41.3344 3.44 41.2244 3.085 41.2244 2.62V0.43ZM44.7351 0.43H46.2451C46.5951 0.43 46.8751 0.51 47.0751 0.68C47.2751 0.85 47.3801 1.09 47.3801 1.41C47.3801 1.62 47.3201 1.8 47.2101 1.955C47.0901 2.115 46.9201 2.22 46.7051 2.27V2.28C47.0651 2.36 47.2651 2.58 47.3051 2.94L47.3551 3.475C47.3751 3.695 47.4301 3.87 47.5301 4H47.1951C47.1201 3.88 47.0751 3.715 47.0551 3.515L47.0101 3.025C46.9901 2.805 46.9051 2.645 46.7651 2.55C46.6351 2.46 46.4501 2.415 46.2201 2.415H45.0401V4H44.7351V0.43ZM45.0401 0.7V2.145H46.2151C46.4951 2.145 46.7101 2.075 46.8651 1.94C47.0051 1.81 47.0751 1.64 47.0751 1.42C47.0751 1.18 47.0051 1.005 46.8701 0.885C46.7301 0.76 46.5101 0.7 46.2101 0.7H45.0401ZM47.7853 0.43H50.7103V0.7H49.4003V4H49.0953V0.7H47.7853V0.43Z" fill="black"/>
</svg>
