<svg width="24" height="5" viewBox="0 0 24 5" fill="none" xmlns="http://www.w3.org/2000/svg">
<path opacity="0.3" d="M1.905 0.36C2.28 0.36 2.605 0.46 2.875 0.67C3.155 0.88 3.315 1.16 3.36 1.51H3.065C3.02 1.235 2.885 1.02 2.66 0.865C2.445 0.715 2.19 0.64 1.9 0.64C1.46 0.64 1.12 0.795 0.87 1.105C0.635 1.395 0.52 1.77 0.52 2.23C0.52 2.69 0.635 3.065 0.865 3.345C1.105 3.64 1.44 3.79 1.87 3.79C2.175 3.79 2.435 3.705 2.655 3.545C2.89 3.365 3.045 3.11 3.115 2.78H3.41C3.335 3.19 3.15 3.515 2.85 3.75C2.575 3.96 2.25 4.07 1.875 4.07C1.34 4.07 0.925 3.885 0.625 3.52C0.35 3.185 0.215 2.755 0.215 2.23C0.215 1.705 0.355 1.27 0.635 0.925C0.94 0.545 1.365 0.36 1.905 0.36ZM5.05305 0.43H5.41305L6.84305 4H6.50805L6.09305 2.935H4.37305L3.95805 4H3.62305L5.05305 0.43ZM4.47305 2.675H5.99305L5.24305 0.76H5.22805L4.47305 2.675ZM7.20582 0.43H7.55082L9.71082 3.525H9.72582V0.43H10.0358V4H9.69582L7.52582 0.88H7.51082V4H7.20582V0.43ZM10.4904 0.43H13.4154V0.7H12.1054V4H11.8004V0.7H10.4904V0.43ZM13.8709 0.43H16.3759V0.7H14.1759V2.015H16.2559V2.29H14.1759V3.73H16.4609V4H13.8709V0.43ZM17.0398 0.43H19.5448V0.7H17.3448V2.015H19.4248V2.29H17.3448V3.73H19.6298V4H17.0398V0.43ZM20.2088 0.43H20.5538L22.7138 3.525H22.7288V0.43H23.0388V4H22.6988L20.5288 0.88H20.5138V4H20.2088V0.43Z" fill="black"/>
</svg>
