<svg width="58" height="5" viewBox="0 0 58 5" fill="none" xmlns="http://www.w3.org/2000/svg">
<path opacity="0.3" d="M0.365122 0.43H0.670122V3.73H2.81512V4H0.365122V0.43ZM4.35981 0.43H4.71981L6.14981 4H5.81481L5.39981 2.935H3.67981L3.26481 4H2.92981L4.35981 0.43ZM3.77981 2.675H5.29981L4.54981 0.76H4.53481L3.77981 2.675ZM6.51258 0.43H8.08258C8.40258 0.43 8.66258 0.505 8.85258 0.665C9.04258 0.825 9.13758 1.045 9.13758 1.325C9.13758 1.53 9.07758 1.705 8.96258 1.85C8.84758 1.99 8.69758 2.085 8.51758 2.14C8.75258 2.18 8.93758 2.275 9.07758 2.425C9.21258 2.58 9.28258 2.775 9.28258 3.015C9.28258 3.355 9.15758 3.61 8.91758 3.78C8.70758 3.925 8.42258 4 8.06758 4H6.51258V0.43ZM6.81758 0.695V2.025H8.01758C8.27258 2.025 8.47258 1.965 8.61258 1.855C8.75758 1.74 8.83258 1.575 8.83258 1.355C8.83258 1.135 8.75758 0.965 8.61758 0.855C8.47258 0.745 8.27258 0.695 8.02258 0.695H6.81758ZM6.81758 2.285V3.735H8.05758C8.32258 3.735 8.53758 3.68 8.69758 3.575C8.88258 3.445 8.97758 3.26 8.97758 3.01C8.97758 2.765 8.88758 2.58 8.71758 2.46C8.55258 2.34 8.33258 2.285 8.05258 2.285H6.81758ZM11.4072 0.36C11.9322 0.36 12.3472 0.54 12.6572 0.9C12.9472 1.24 13.0922 1.675 13.0922 2.215C13.0922 2.755 12.9472 3.195 12.6572 3.535C12.3472 3.89 11.9322 4.07 11.4022 4.07C10.8722 4.07 10.4522 3.89 10.1472 3.53C9.85719 3.19 9.71219 2.75 9.71219 2.215C9.71219 1.68 9.85719 1.24 10.1472 0.9C10.4572 0.54 10.8772 0.36 11.4072 0.36ZM11.4072 0.64C10.9722 0.64 10.6272 0.79 10.3772 1.09C10.1372 1.38 10.0172 1.755 10.0172 2.215C10.0172 2.68 10.1322 3.055 10.3722 3.34C10.6222 3.64 10.9672 3.79 11.4022 3.79C11.8372 3.79 12.1772 3.64 12.4272 3.345C12.6672 3.06 12.7872 2.685 12.7872 2.215C12.7872 1.745 12.6672 1.365 12.4272 1.085C12.1772 0.785 11.8372 0.64 11.4072 0.64ZM13.6708 0.43H15.1808C15.5308 0.43 15.8108 0.51 16.0108 0.68C16.2108 0.85 16.3158 1.09 16.3158 1.41C16.3158 1.62 16.2558 1.8 16.1458 1.955C16.0258 2.115 15.8558 2.22 15.6408 2.27V2.28C16.0008 2.36 16.2008 2.58 16.2408 2.94L16.2908 3.475C16.3108 3.695 16.3658 3.87 16.4658 4H16.1308C16.0558 3.88 16.0108 3.715 15.9908 3.515L15.9458 3.025C15.9258 2.805 15.8408 2.645 15.7008 2.55C15.5708 2.46 15.3858 2.415 15.1558 2.415H13.9758V4H13.6708V0.43ZM13.9758 0.7V2.145H15.1508C15.4308 2.145 15.6458 2.075 15.8008 1.94C15.9408 1.81 16.0108 1.64 16.0108 1.42C16.0108 1.18 15.9408 1.005 15.8058 0.885C15.6658 0.76 15.4458 0.7 15.1458 0.7H13.9758ZM18.061 0.43H18.421L19.851 4H19.516L19.101 2.935H17.381L16.966 4H16.631L18.061 0.43ZM17.481 2.675H19.001L18.251 0.76H18.236L17.481 2.675ZM19.9388 0.43H22.8638V0.7H21.5538V4H21.2488V0.7H19.9388V0.43ZM24.8642 0.36C25.3892 0.36 25.8042 0.54 26.1142 0.9C26.4042 1.24 26.5492 1.675 26.5492 2.215C26.5492 2.755 26.4042 3.195 26.1142 3.535C25.8042 3.89 25.3892 4.07 24.8592 4.07C24.3292 4.07 23.9092 3.89 23.6042 3.53C23.3142 3.19 23.1692 2.75 23.1692 2.215C23.1692 1.68 23.3142 1.24 23.6042 0.9C23.9142 0.54 24.3342 0.36 24.8642 0.36ZM24.8642 0.64C24.4292 0.64 24.0842 0.79 23.8342 1.09C23.5942 1.38 23.4742 1.755 23.4742 2.215C23.4742 2.68 23.5892 3.055 23.8292 3.34C24.0792 3.64 24.4242 3.79 24.8592 3.79C25.2942 3.79 25.6342 3.64 25.8842 3.345C26.1242 3.06 26.2442 2.685 26.2442 2.215C26.2442 1.745 26.1242 1.365 25.8842 1.085C25.6342 0.785 25.2942 0.64 24.8642 0.64ZM27.1278 0.43H28.6378C28.9878 0.43 29.2678 0.51 29.4678 0.68C29.6678 0.85 29.7728 1.09 29.7728 1.41C29.7728 1.62 29.7128 1.8 29.6028 1.955C29.4828 2.115 29.3128 2.22 29.0978 2.27V2.28C29.4578 2.36 29.6578 2.58 29.6978 2.94L29.7478 3.475C29.7678 3.695 29.8228 3.87 29.9228 4H29.5878C29.5128 3.88 29.4678 3.715 29.4478 3.515L29.4028 3.025C29.3828 2.805 29.2978 2.645 29.1578 2.55C29.0278 2.46 28.8428 2.415 28.6128 2.415H27.4328V4H27.1278V0.43ZM27.4328 0.7V2.145H28.6078C28.8878 2.145 29.1028 2.075 29.2578 1.94C29.3978 1.81 29.4678 1.64 29.4678 1.42C29.4678 1.18 29.3978 1.005 29.2628 0.885C29.1228 0.76 28.9028 0.7 28.6028 0.7H27.4328ZM30.113 0.43H30.488L31.703 2.245L32.913 0.43H33.288L31.853 2.53V4H31.548V2.53L30.113 0.43ZM35.3407 0.43H36.9107C37.2307 0.43 37.4907 0.505 37.6807 0.665C37.8707 0.825 37.9657 1.045 37.9657 1.325C37.9657 1.53 37.9057 1.705 37.7907 1.85C37.6757 1.99 37.5257 2.085 37.3457 2.14C37.5807 2.18 37.7657 2.275 37.9057 2.425C38.0407 2.58 38.1107 2.775 38.1107 3.015C38.1107 3.355 37.9857 3.61 37.7457 3.78C37.5357 3.925 37.2507 4 36.8957 4H35.3407V0.43ZM35.6457 0.695V2.025H36.8457C37.1007 2.025 37.3007 1.965 37.4407 1.855C37.5857 1.74 37.6607 1.575 37.6607 1.355C37.6607 1.135 37.5857 0.965 37.4457 0.855C37.3007 0.745 37.1007 0.695 36.8507 0.695H35.6457ZM35.6457 2.285V3.735H36.8857C37.1507 3.735 37.3657 3.68 37.5257 3.575C37.7107 3.445 37.8057 3.26 37.8057 3.01C37.8057 2.765 37.7157 2.58 37.5457 2.46C37.3807 2.34 37.1607 2.285 36.8807 2.285H35.6457ZM38.6903 0.43H38.9953V2.62C38.9953 3 39.0753 3.29 39.2453 3.485C39.4253 3.69 39.7003 3.795 40.0803 3.795C40.4603 3.795 40.7353 3.69 40.9153 3.485C41.0803 3.29 41.1653 3 41.1653 2.62V0.43H41.4703V2.62C41.4703 3.085 41.3553 3.44 41.1353 3.685C40.9003 3.94 40.5503 4.07 40.0803 4.07C39.6103 4.07 39.2603 3.94 39.0303 3.69C38.8003 3.44 38.6903 3.085 38.6903 2.62V0.43ZM42.2461 0.43H42.5511V4H42.2461V0.43ZM43.3241 0.43H43.6291V3.73H45.7741V4H43.3241V0.43ZM46.2538 0.43H47.5238C48.0788 0.43 48.4988 0.595 48.7788 0.93C49.0338 1.23 49.1638 1.66 49.1638 2.215C49.1638 2.76 49.0188 3.19 48.7338 3.505C48.4338 3.835 48.0088 4 47.4588 4H46.2538V0.43ZM46.5588 0.7V3.73H47.4138C47.8888 3.73 48.2538 3.595 48.5038 3.325C48.7438 3.065 48.8638 2.695 48.8638 2.215C48.8638 1.715 48.7588 1.345 48.5488 1.1C48.3188 0.83 47.9588 0.7 47.4788 0.7H46.5588ZM49.79 0.43H50.095V4H49.79V0.43ZM50.8681 0.43H51.2131L53.3731 3.525H53.3881V0.43H53.6981V4H53.3581L51.1881 0.88H51.1731V4H50.8681V0.43ZM55.9376 0.36C56.3776 0.36 56.7276 0.47 56.9926 0.695C57.2376 0.905 57.3926 1.205 57.4576 1.585H57.1476C57.0926 1.295 56.9676 1.065 56.7676 0.9C56.5576 0.725 56.2776 0.64 55.9376 0.64C55.5176 0.64 55.1876 0.79 54.9426 1.09C54.7026 1.38 54.5826 1.76 54.5826 2.235C54.5826 2.7 54.7026 3.07 54.9426 3.345C55.1976 3.645 55.5626 3.795 56.0426 3.795C56.2526 3.795 56.4526 3.765 56.6526 3.705C56.8426 3.645 57.0076 3.575 57.1376 3.485V2.47H55.9176V2.2H57.4426V3.63C57.2776 3.76 57.0726 3.87 56.8276 3.95C56.5676 4.03 56.2976 4.07 56.0176 4.07C55.4576 4.07 55.0176 3.885 54.7076 3.525C54.4176 3.19 54.2776 2.76 54.2776 2.235C54.2776 1.705 54.4176 1.27 54.7026 0.925C55.0076 0.545 55.4176 0.36 55.9376 0.36Z" fill="black"/>
</svg>
