<svg width="21" height="4" viewBox="0 0 21 4" fill="none" xmlns="http://www.w3.org/2000/svg">
<path opacity="0.3" d="M0.365 0.43H0.67V3.73H2.815V4H0.365V0.43ZM3.33969 0.43H3.64469V4H3.33969V0.43ZM4.41773 0.43H5.98773C6.30773 0.43 6.56773 0.505 6.75773 0.665C6.94773 0.825 7.04273 1.045 7.04273 1.325C7.04273 1.53 6.98273 1.705 6.86773 1.85C6.75273 1.99 6.60273 2.085 6.42273 2.14C6.65773 2.18 6.84273 2.275 6.98273 2.425C7.11773 2.58 7.18773 2.775 7.18773 3.015C7.18773 3.355 7.06273 3.61 6.82273 3.78C6.61273 3.925 6.32773 4 5.97273 4H4.41773V0.43ZM4.72273 0.695V2.025H5.92273C6.17773 2.025 6.37773 1.965 6.51773 1.855C6.66273 1.74 6.73773 1.575 6.73773 1.355C6.73773 1.135 6.66273 0.965 6.52273 0.855C6.37773 0.745 6.17773 0.695 5.92773 0.695H4.72273ZM4.72273 2.285V3.735H5.96273C6.22773 3.735 6.44273 3.68 6.60273 3.575C6.78773 3.445 6.88273 3.26 6.88273 3.01C6.88273 2.765 6.79273 2.58 6.62273 2.46C6.45773 2.34 6.23773 2.285 5.95773 2.285H4.72273ZM7.76734 0.43H9.27734C9.62734 0.43 9.90734 0.51 10.1073 0.68C10.3073 0.85 10.4123 1.09 10.4123 1.41C10.4123 1.62 10.3523 1.8 10.2423 1.955C10.1223 2.115 9.95234 2.22 9.73734 2.27V2.28C10.0973 2.36 10.2973 2.58 10.3373 2.94L10.3873 3.475C10.4073 3.695 10.4623 3.87 10.5623 4H10.2273C10.1523 3.88 10.1073 3.715 10.0873 3.515L10.0423 3.025C10.0223 2.805 9.93734 2.645 9.79734 2.55C9.66734 2.46 9.48234 2.415 9.25234 2.415H8.07234V4H7.76734V0.43ZM8.07234 0.7V2.145H9.24734C9.52734 2.145 9.74234 2.075 9.89734 1.94C10.0373 1.81 10.1073 1.64 10.1073 1.42C10.1073 1.18 10.0373 1.005 9.90234 0.885C9.76234 0.76 9.54234 0.7 9.24234 0.7H8.07234ZM12.1575 0.43H12.5175L13.9475 4H13.6125L13.1975 2.935H11.4775L11.0625 4H10.7275L12.1575 0.43ZM11.5775 2.675H13.0975L12.3475 0.76H12.3325L11.5775 2.675ZM14.3103 0.43H15.8203C16.1703 0.43 16.4503 0.51 16.6503 0.68C16.8503 0.85 16.9553 1.09 16.9553 1.41C16.9553 1.62 16.8953 1.8 16.7853 1.955C16.6653 2.115 16.4953 2.22 16.2803 2.27V2.28C16.6403 2.36 16.8403 2.58 16.8803 2.94L16.9303 3.475C16.9503 3.695 17.0053 3.87 17.1053 4H16.7703C16.6953 3.88 16.6503 3.715 16.6303 3.515L16.5853 3.025C16.5653 2.805 16.4803 2.645 16.3403 2.55C16.2103 2.46 16.0253 2.415 15.7953 2.415H14.6153V4H14.3103V0.43ZM14.6153 0.7V2.145H15.7903C16.0703 2.145 16.2853 2.075 16.4403 1.94C16.5803 1.81 16.6503 1.64 16.6503 1.42C16.6503 1.18 16.5803 1.005 16.4453 0.885C16.3053 0.76 16.0853 0.7 15.7853 0.7H14.6153ZM17.2955 0.43H17.6705L18.8855 2.245L20.0955 0.43H20.4705L19.0355 2.53V4H18.7305V2.53L17.2955 0.43Z" fill="black"/>
</svg>
