<svg width="33" height="5" viewBox="0 0 33 5" fill="none" xmlns="http://www.w3.org/2000/svg">
<path opacity="0.3" d="M0.365 0.43H1.635C2.19 0.43 2.61 0.595 2.89 0.93C3.145 1.23 3.275 1.66 3.275 2.215C3.275 2.76 3.13 3.19 2.845 3.505C2.545 3.835 2.12 4 1.57 4H0.365V0.43ZM0.67 0.7V3.73H1.525C2 3.73 2.365 3.595 2.615 3.325C2.855 3.065 2.975 2.695 2.975 2.215C2.975 1.715 2.87 1.345 2.66 1.1C2.43 0.83 2.07 0.7 1.59 0.7H0.67ZM5.40121 0.36C5.92621 0.36 6.34121 0.54 6.65121 0.9C6.94121 1.24 7.08621 1.675 7.08621 2.215C7.08621 2.755 6.94121 3.195 6.65121 3.535C6.34121 3.89 5.92621 4.07 5.39621 4.07C4.86621 4.07 4.44621 3.89 4.14121 3.53C3.85121 3.19 3.70621 2.75 3.70621 2.215C3.70621 1.68 3.85121 1.24 4.14121 0.9C4.45121 0.54 4.87121 0.36 5.40121 0.36ZM5.40121 0.64C4.96621 0.64 4.62121 0.79 4.37121 1.09C4.13121 1.38 4.01121 1.755 4.01121 2.215C4.01121 2.68 4.12621 3.055 4.36621 3.34C4.61621 3.64 4.96121 3.79 5.39621 3.79C5.83121 3.79 6.17121 3.64 6.42121 3.345C6.66121 3.06 6.78121 2.685 6.78121 2.215C6.78121 1.745 6.66121 1.365 6.42121 1.085C6.17121 0.785 5.83121 0.64 5.40121 0.64ZM7.3248 0.43H7.6648L8.8598 3.675H8.8748L10.0698 0.43H10.4098L9.0648 4H8.6748L7.3248 0.43ZM10.7996 0.43H13.3046V0.7H11.1046V2.015H13.1846V2.29H11.1046V3.73H13.3896V4H10.7996V0.43ZM15.6336 0.43H15.9386V2.015H18.1536V0.43H18.4586V4H18.1536V2.29H15.9386V4H15.6336V0.43ZM20.7332 0.36C21.2582 0.36 21.6732 0.54 21.9832 0.9C22.2732 1.24 22.4182 1.675 22.4182 2.215C22.4182 2.755 22.2732 3.195 21.9832 3.535C21.6732 3.89 21.2582 4.07 20.7282 4.07C20.1982 4.07 19.7782 3.89 19.4732 3.53C19.1832 3.19 19.0382 2.75 19.0382 2.215C19.0382 1.68 19.1832 1.24 19.4732 0.9C19.7832 0.54 20.2032 0.36 20.7332 0.36ZM20.7332 0.64C20.2982 0.64 19.9532 0.79 19.7032 1.09C19.4632 1.38 19.3432 1.755 19.3432 2.215C19.3432 2.68 19.4582 3.055 19.6982 3.34C19.9482 3.64 20.2932 3.79 20.7282 3.79C21.1632 3.79 21.5032 3.64 21.7532 3.345C21.9932 3.06 22.1132 2.685 22.1132 2.215C22.1132 1.745 21.9932 1.365 21.7532 1.085C21.5032 0.785 21.1632 0.64 20.7332 0.64ZM22.9968 0.43H23.3018V2.62C23.3018 3 23.3818 3.29 23.5518 3.485C23.7318 3.69 24.0068 3.795 24.3868 3.795C24.7668 3.795 25.0418 3.69 25.2218 3.485C25.3868 3.29 25.4718 3 25.4718 2.62V0.43H25.7768V2.62C25.7768 3.085 25.6618 3.44 25.4418 3.685C25.2068 3.94 24.8568 4.07 24.3868 4.07C23.9168 4.07 23.5668 3.94 23.3368 3.69C23.1068 3.44 22.9968 3.085 22.9968 2.62V0.43ZM27.6726 0.36C28.0626 0.36 28.3726 0.455 28.6026 0.645C28.8376 0.835 28.9726 1.115 29.0026 1.485H28.6976C28.6576 1.205 28.5526 0.995 28.3826 0.85C28.2126 0.705 27.9726 0.635 27.6626 0.635C27.3726 0.635 27.1476 0.685 26.9826 0.785C26.7926 0.895 26.7026 1.065 26.7026 1.29C26.7026 1.49 26.8126 1.645 27.0376 1.765C27.1426 1.815 27.3726 1.895 27.7226 1.995C28.1776 2.125 28.4826 2.235 28.6426 2.335C28.9376 2.51 29.0876 2.76 29.0876 3.085C29.0876 3.39 28.9576 3.635 28.7026 3.815C28.4576 3.985 28.1326 4.07 27.7276 4.07C27.3176 4.07 26.9926 3.975 26.7576 3.79C26.4876 3.575 26.3376 3.25 26.3076 2.82H26.6076C26.6426 3.155 26.7576 3.405 26.9576 3.57C27.1376 3.715 27.3926 3.79 27.7226 3.79C28.0376 3.79 28.2926 3.725 28.4876 3.605C28.6776 3.48 28.7776 3.31 28.7776 3.1C28.7776 2.855 28.6526 2.665 28.4126 2.53C28.2926 2.46 28.0326 2.365 27.6276 2.255C27.2026 2.135 26.9276 2.04 26.8076 1.97C26.5326 1.815 26.3976 1.59 26.3976 1.3C26.3976 0.99 26.5226 0.755 26.7826 0.59C27.0126 0.435 27.3126 0.36 27.6726 0.36ZM29.6179 0.43H32.1229V0.7H29.9229V2.015H32.0029V2.29H29.9229V3.73H32.2079V4H29.6179V0.43Z" fill="black"/>
</svg>
