<svg width="31" height="5" viewBox="0 0 31 5" fill="none" xmlns="http://www.w3.org/2000/svg">
<path opacity="0.3" d="M0.365 0.43H0.71L2.87 3.525H2.885V0.43H3.195V4H2.855L0.685 0.88H0.67V4H0.365V0.43ZM5.46957 0.36C5.99457 0.36 6.40957 0.54 6.71957 0.9C7.00957 1.24 7.15457 1.675 7.15457 2.215C7.15457 2.755 7.00957 3.195 6.71957 3.535C6.40957 3.89 5.99457 4.07 5.46457 4.07C4.93457 4.07 4.51457 3.89 4.20957 3.53C3.91957 3.19 3.77457 2.75 3.77457 2.215C3.77457 1.68 3.91957 1.24 4.20957 0.9C4.51957 0.54 4.93957 0.36 5.46957 0.36ZM5.46957 0.64C5.03457 0.64 4.68957 0.79 4.43957 1.09C4.19957 1.38 4.07957 1.755 4.07957 2.215C4.07957 2.68 4.19457 3.055 4.43457 3.34C4.68457 3.64 5.02957 3.79 5.46457 3.79C5.89957 3.79 6.23957 3.64 6.48957 3.345C6.72957 3.06 6.84957 2.685 6.84957 2.215C6.84957 1.745 6.72957 1.365 6.48957 1.085C6.23957 0.785 5.89957 0.64 5.46957 0.64ZM7.73316 0.43H9.24316C9.59316 0.43 9.87316 0.51 10.0732 0.68C10.2732 0.85 10.3782 1.09 10.3782 1.41C10.3782 1.62 10.3182 1.8 10.2082 1.955C10.0882 2.115 9.91816 2.22 9.70316 2.27V2.28C10.0632 2.36 10.2632 2.58 10.3032 2.94L10.3532 3.475C10.3732 3.695 10.4282 3.87 10.5282 4H10.1932C10.1182 3.88 10.0732 3.715 10.0532 3.515L10.0082 3.025C9.98816 2.805 9.90316 2.645 9.76316 2.55C9.63316 2.46 9.44816 2.415 9.21816 2.415H8.03816V4H7.73316V0.43ZM8.03816 0.7V2.145H9.21316C9.49316 2.145 9.70816 2.075 9.86316 1.94C10.0032 1.81 10.0732 1.64 10.0732 1.42C10.0732 1.18 10.0032 1.005 9.86816 0.885C9.72816 0.76 9.50816 0.7 9.20816 0.7H8.03816ZM10.7834 0.43H13.7084V0.7H12.3984V4H12.0934V0.7H10.7834V0.43ZM14.1638 0.43H14.4688V2.015H16.6838V0.43H16.9888V4H16.6838V2.29H14.4688V4H14.1638V0.43ZM19.2285 0.36C19.6685 0.36 20.0185 0.47 20.2835 0.695C20.5285 0.905 20.6835 1.205 20.7485 1.585H20.4385C20.3835 1.295 20.2585 1.065 20.0585 0.9C19.8485 0.725 19.5685 0.64 19.2285 0.64C18.8085 0.64 18.4785 0.79 18.2335 1.09C17.9935 1.38 17.8735 1.76 17.8735 2.235C17.8735 2.7 17.9935 3.07 18.2335 3.345C18.4885 3.645 18.8535 3.795 19.3335 3.795C19.5435 3.795 19.7435 3.765 19.9435 3.705C20.1335 3.645 20.2985 3.575 20.4285 3.485V2.47H19.2085V2.2H20.7335V3.63C20.5685 3.76 20.3635 3.87 20.1185 3.95C19.8585 4.03 19.5885 4.07 19.3085 4.07C18.7485 4.07 18.3085 3.885 17.9985 3.525C17.7085 3.19 17.5685 2.76 17.5685 2.235C17.5685 1.705 17.7085 1.27 17.9935 0.925C18.2985 0.545 18.7085 0.36 19.2285 0.36ZM22.4993 0.43H22.8593L24.2893 4H23.9543L23.5393 2.935H21.8193L21.4043 4H21.0693L22.4993 0.43ZM21.9193 2.675H23.4393L22.6893 0.76H22.6743L21.9193 2.675ZM24.3771 0.43H27.3021V0.7H25.9921V4H25.6871V0.7H24.3771V0.43ZM27.7576 0.43H30.2626V0.7H28.0626V2.015H30.1426V2.29H28.0626V3.73H30.3476V4H27.7576V0.43Z" fill="black"/>
</svg>
