<svg width="34" height="5" viewBox="0 0 34 5" fill="none" xmlns="http://www.w3.org/2000/svg">
<path opacity="0.3" d="M0.365 0.43H1.815C2.605 0.43 3.005 0.77 3.005 1.455C3.005 2.14 2.605 2.485 1.81 2.485H0.67V4H0.365V0.43ZM0.67 0.7V2.215H1.795C2.105 2.215 2.33 2.15 2.48 2.025C2.62 1.9 2.695 1.71 2.695 1.455C2.695 1.2 2.62 1.015 2.48 0.895C2.33 0.765 2.1 0.7 1.795 0.7H0.67ZM3.53395 0.43H3.83895V3.73H5.98395V4H3.53395V0.43ZM7.52863 0.43H7.88863L9.31863 4H8.98363L8.56863 2.935H6.84863L6.43363 4H6.09863L7.52863 0.43ZM6.94863 2.675H8.46863L7.71863 0.76H7.70363L6.94863 2.675ZM9.34141 0.43H9.71641L10.9314 2.245L12.1414 0.43H12.5164L11.0814 2.53V4H10.7764V2.53L9.34141 0.43ZM14.4141 0.36C14.8541 0.36 15.2041 0.47 15.4691 0.695C15.7141 0.905 15.8691 1.205 15.9341 1.585H15.6241C15.5691 1.295 15.4441 1.065 15.2441 0.9C15.0341 0.725 14.7541 0.64 14.4141 0.64C13.9941 0.64 13.6641 0.79 13.4191 1.09C13.1791 1.38 13.0591 1.76 13.0591 2.235C13.0591 2.7 13.1791 3.07 13.4191 3.345C13.6741 3.645 14.0391 3.795 14.5191 3.795C14.7291 3.795 14.9291 3.765 15.1291 3.705C15.3191 3.645 15.4841 3.575 15.6141 3.485V2.47H14.3941V2.2H15.9191V3.63C15.7541 3.76 15.5491 3.87 15.3041 3.95C15.0441 4.03 14.7741 4.07 14.4941 4.07C13.9341 4.07 13.4941 3.885 13.1841 3.525C12.8941 3.19 12.7541 2.76 12.7541 2.235C12.7541 1.705 12.8941 1.27 13.1791 0.925C13.4841 0.545 13.8941 0.36 14.4141 0.36ZM16.6199 0.43H18.1299C18.4799 0.43 18.7599 0.51 18.9599 0.68C19.1599 0.85 19.2649 1.09 19.2649 1.41C19.2649 1.62 19.2049 1.8 19.0949 1.955C18.9749 2.115 18.8049 2.22 18.5899 2.27V2.28C18.9499 2.36 19.1499 2.58 19.1899 2.94L19.2399 3.475C19.2599 3.695 19.3149 3.87 19.4149 4H19.0799C19.0049 3.88 18.9599 3.715 18.9399 3.515L18.8949 3.025C18.8749 2.805 18.7899 2.645 18.6499 2.55C18.5199 2.46 18.3349 2.415 18.1049 2.415H16.9249V4H16.6199V0.43ZM16.9249 0.7V2.145H18.0999C18.3799 2.145 18.5949 2.075 18.7499 1.94C18.8899 1.81 18.9599 1.64 18.9599 1.42C18.9599 1.18 18.8899 1.005 18.7549 0.885C18.6149 0.76 18.3949 0.7 18.0949 0.7H16.9249ZM21.4901 0.36C22.0151 0.36 22.4301 0.54 22.7401 0.9C23.0301 1.24 23.1751 1.675 23.1751 2.215C23.1751 2.755 23.0301 3.195 22.7401 3.535C22.4301 3.89 22.0151 4.07 21.4851 4.07C20.9551 4.07 20.5351 3.89 20.2301 3.53C19.9401 3.19 19.7951 2.75 19.7951 2.215C19.7951 1.68 19.9401 1.24 20.2301 0.9C20.5401 0.54 20.9601 0.36 21.4901 0.36ZM21.4901 0.64C21.0551 0.64 20.7101 0.79 20.4601 1.09C20.2201 1.38 20.1001 1.755 20.1001 2.215C20.1001 2.68 20.2151 3.055 20.4551 3.34C20.7051 3.64 21.0501 3.79 21.4851 3.79C21.9201 3.79 22.2601 3.64 22.5101 3.345C22.7501 3.06 22.8701 2.685 22.8701 2.215C22.8701 1.745 22.7501 1.365 22.5101 1.085C22.2601 0.785 21.9201 0.64 21.4901 0.64ZM23.7537 0.43H24.0587V2.62C24.0587 3 24.1387 3.29 24.3087 3.485C24.4887 3.69 24.7637 3.795 25.1437 3.795C25.5237 3.795 25.7987 3.69 25.9787 3.485C26.1437 3.29 26.2287 3 26.2287 2.62V0.43H26.5337V2.62C26.5337 3.085 26.4187 3.44 26.1987 3.685C25.9637 3.94 25.6137 4.07 25.1437 4.07C24.6737 4.07 24.3237 3.94 24.0937 3.69C23.8637 3.44 23.7537 3.085 23.7537 2.62V0.43ZM27.2644 0.43H27.6094L29.7694 3.525H29.7844V0.43H30.0944V4H29.7544L27.5844 0.88H27.5694V4H27.2644V0.43ZM30.824 0.43H32.094C32.649 0.43 33.069 0.595 33.349 0.93C33.604 1.23 33.734 1.66 33.734 2.215C33.734 2.76 33.589 3.19 33.304 3.505C33.004 3.835 32.579 4 32.029 4H30.824V0.43ZM31.129 0.7V3.73H31.984C32.459 3.73 32.824 3.595 33.074 3.325C33.314 3.065 33.434 2.695 33.434 2.215C33.434 1.715 33.329 1.345 33.119 1.1C32.889 0.83 32.529 0.7 32.049 0.7H31.129Z" fill="black"/>
</svg>
