<svg width="32" height="5" viewBox="0 0 32 5" fill="none" xmlns="http://www.w3.org/2000/svg">
<path opacity="0.3" d="M1.53 0.36C1.92 0.36 2.23 0.455 2.46 0.645C2.695 0.835 2.83 1.115 2.86 1.485H2.555C2.515 1.205 2.41 0.995 2.24 0.85C2.07 0.705 1.83 0.635 1.52 0.635C1.23 0.635 1.005 0.685 0.84 0.785C0.65 0.895 0.56 1.065 0.56 1.29C0.56 1.49 0.67 1.645 0.895 1.765C1 1.815 1.23 1.895 1.58 1.995C2.035 2.125 2.34 2.235 2.5 2.335C2.795 2.51 2.945 2.76 2.945 3.085C2.945 3.39 2.815 3.635 2.56 3.815C2.315 3.985 1.99 4.07 1.585 4.07C1.175 4.07 0.85 3.975 0.615 3.79C0.345 3.575 0.195 3.25 0.165 2.82H0.465C0.5 3.155 0.615 3.405 0.815 3.57C0.995 3.715 1.25 3.79 1.58 3.79C1.895 3.79 2.15 3.725 2.345 3.605C2.535 3.48 2.635 3.31 2.635 3.1C2.635 2.855 2.51 2.665 2.27 2.53C2.15 2.46 1.89 2.365 1.485 2.255C1.06 2.135 0.785 2.04 0.665 1.97C0.39 1.815 0.255 1.59 0.255 1.3C0.255 0.99 0.38 0.755 0.64 0.59C0.87 0.435 1.17 0.36 1.53 0.36ZM5.02035 0.36C5.54535 0.36 5.96035 0.54 6.27035 0.9C6.56035 1.24 6.70535 1.675 6.70535 2.215C6.70535 2.755 6.56035 3.195 6.27035 3.535C5.96035 3.89 5.54535 4.07 5.01535 4.07C4.48535 4.07 4.06535 3.89 3.76035 3.53C3.47035 3.19 3.32535 2.75 3.32535 2.215C3.32535 1.68 3.47035 1.24 3.76035 0.9C4.07035 0.54 4.49035 0.36 5.02035 0.36ZM5.02035 0.64C4.58535 0.64 4.24035 0.79 3.99035 1.09C3.75035 1.38 3.63035 1.755 3.63035 2.215C3.63035 2.68 3.74535 3.055 3.98535 3.34C4.23535 3.64 4.58035 3.79 5.01535 3.79C5.45035 3.79 5.79035 3.64 6.04035 3.345C6.28035 3.06 6.40035 2.685 6.40035 2.215C6.40035 1.745 6.28035 1.365 6.04035 1.085C5.79035 0.785 5.45035 0.64 5.02035 0.64ZM7.28395 0.43H7.58895V2.62C7.58895 3 7.66895 3.29 7.83895 3.485C8.01895 3.69 8.29395 3.795 8.67395 3.795C9.05395 3.795 9.32895 3.69 9.50895 3.485C9.67395 3.29 9.75895 3 9.75895 2.62V0.43H10.0639V2.62C10.0639 3.085 9.94895 3.44 9.72895 3.685C9.49395 3.94 9.14395 4.07 8.67395 4.07C8.20395 4.07 7.85395 3.94 7.62395 3.69C7.39395 3.44 7.28395 3.085 7.28395 2.62V0.43ZM10.5197 0.43H13.4447V0.7H12.1347V4H11.8297V0.7H10.5197V0.43ZM13.9002 0.43H14.2052V2.015H16.4202V0.43H16.7252V4H16.4202V2.29H14.2052V4H13.9002V0.43ZM20.6299 0.36C21.0699 0.36 21.4199 0.47 21.6849 0.695C21.9299 0.905 22.0849 1.205 22.1499 1.585H21.8399C21.7849 1.295 21.6599 1.065 21.4599 0.9C21.2499 0.725 20.9699 0.64 20.6299 0.64C20.2099 0.64 19.8799 0.79 19.6349 1.09C19.3949 1.38 19.2749 1.76 19.2749 2.235C19.2749 2.7 19.3949 3.07 19.6349 3.345C19.8899 3.645 20.2549 3.795 20.7349 3.795C20.9449 3.795 21.1449 3.765 21.3449 3.705C21.5349 3.645 21.6999 3.575 21.8299 3.485V2.47H20.6099V2.2H22.1349V3.63C21.9699 3.76 21.7649 3.87 21.5199 3.95C21.2599 4.03 20.9899 4.07 20.7099 4.07C20.1499 4.07 19.7099 3.885 19.3999 3.525C19.1099 3.19 18.9699 2.76 18.9699 2.235C18.9699 1.705 19.1099 1.27 19.3949 0.925C19.6999 0.545 20.1099 0.36 20.6299 0.36ZM23.9007 0.43H24.2607L25.6907 4H25.3557L24.9407 2.935H23.2207L22.8057 4H22.4707L23.9007 0.43ZM23.3207 2.675H24.8407L24.0907 0.76H24.0757L23.3207 2.675ZM25.7785 0.43H28.7035V0.7H27.3935V4H27.0885V0.7H25.7785V0.43ZM29.1589 0.43H31.6639V0.7H29.4639V2.015H31.5439V2.29H29.4639V3.73H31.7489V4H29.1589V0.43Z" fill="black"/>
</svg>
