<svg width="50" height="5" viewBox="0 0 50 5" fill="none" xmlns="http://www.w3.org/2000/svg">
<path opacity="0.3" d="M0.09 0.43H3.015V0.7H1.705V4H1.4V0.7H0.09V0.43ZM3.47047 0.43H5.97547V0.7H3.77547V2.015H5.85547V2.29H3.77547V3.73H6.06047V4H3.47047V0.43ZM7.70441 0.43H8.06441L9.49441 4H9.15941L8.74441 2.935H7.02441L6.60941 4H6.27441L7.70441 0.43ZM7.12441 2.675H8.64441L7.89441 0.76H7.87941L7.12441 2.675ZM11.3972 0.36C11.7722 0.36 12.0972 0.46 12.3672 0.67C12.6472 0.88 12.8072 1.16 12.8522 1.51H12.5572C12.5122 1.235 12.3772 1.02 12.1522 0.865C11.9372 0.715 11.6822 0.64 11.3922 0.64C10.9522 0.64 10.6122 0.795 10.3622 1.105C10.1272 1.395 10.0122 1.77 10.0122 2.23C10.0122 2.69 10.1272 3.065 10.3572 3.345C10.5972 3.64 10.9322 3.79 11.3622 3.79C11.6672 3.79 11.9272 3.705 12.1472 3.545C12.3822 3.365 12.5372 3.11 12.6072 2.78H12.9022C12.8272 3.19 12.6422 3.515 12.3422 3.75C12.0672 3.96 11.7422 4.07 11.3672 4.07C10.8322 4.07 10.4172 3.885 10.1172 3.52C9.84219 3.185 9.70719 2.755 9.70719 2.23C9.70719 1.705 9.84719 1.27 10.1272 0.925C10.4322 0.545 10.8572 0.36 11.3972 0.36ZM13.4802 0.43H13.7852V2.015H16.0002V0.43H16.3052V4H16.0002V2.29H13.7852V4H13.4802V0.43ZM17.0799 0.43H17.3849V4H17.0799V0.43ZM18.158 0.43H18.503L20.663 3.525H20.678V0.43H20.988V4H20.648L18.478 0.88H18.463V4H18.158V0.43ZM23.2275 0.36C23.6675 0.36 24.0175 0.47 24.2825 0.695C24.5275 0.905 24.6825 1.205 24.7475 1.585H24.4375C24.3825 1.295 24.2575 1.065 24.0575 0.9C23.8475 0.725 23.5675 0.64 23.2275 0.64C22.8075 0.64 22.4775 0.79 22.2325 1.09C21.9925 1.38 21.8725 1.76 21.8725 2.235C21.8725 2.7 21.9925 3.07 22.2325 3.345C22.4875 3.645 22.8525 3.795 23.3325 3.795C23.5425 3.795 23.7425 3.765 23.9425 3.705C24.1325 3.645 24.2975 3.575 24.4275 3.485V2.47H23.2075V2.2H24.7325V3.63C24.5675 3.76 24.3625 3.87 24.1175 3.95C23.8575 4.03 23.5875 4.07 23.3075 4.07C22.7475 4.07 22.3075 3.885 21.9975 3.525C21.7075 3.19 21.5675 2.76 21.5675 2.235C21.5675 1.705 21.7075 1.27 21.9925 0.925C22.2975 0.545 22.7075 0.36 23.2275 0.36ZM27.0984 0.43H28.6684C28.9884 0.43 29.2484 0.505 29.4384 0.665C29.6284 0.825 29.7234 1.045 29.7234 1.325C29.7234 1.53 29.6634 1.705 29.5484 1.85C29.4334 1.99 29.2834 2.085 29.1034 2.14C29.3384 2.18 29.5234 2.275 29.6634 2.425C29.7984 2.58 29.8684 2.775 29.8684 3.015C29.8684 3.355 29.7434 3.61 29.5034 3.78C29.2934 3.925 29.0084 4 28.6534 4H27.0984V0.43ZM27.4034 0.695V2.025H28.6034C28.8584 2.025 29.0584 1.965 29.1984 1.855C29.3434 1.74 29.4184 1.575 29.4184 1.355C29.4184 1.135 29.3434 0.965 29.2034 0.855C29.0584 0.745 28.8584 0.695 28.6084 0.695H27.4034ZM27.4034 2.285V3.735H28.6434C28.9084 3.735 29.1234 3.68 29.2834 3.575C29.4684 3.445 29.5634 3.26 29.5634 3.01C29.5634 2.765 29.4734 2.58 29.3034 2.46C29.1384 2.34 28.9184 2.285 28.6384 2.285H27.4034ZM30.448 0.43H30.753V2.62C30.753 3 30.833 3.29 31.003 3.485C31.183 3.69 31.458 3.795 31.838 3.795C32.218 3.795 32.493 3.69 32.673 3.485C32.838 3.29 32.923 3 32.923 2.62V0.43H33.228V2.62C33.228 3.085 33.113 3.44 32.893 3.685C32.658 3.94 32.308 4.07 31.838 4.07C31.368 4.07 31.018 3.94 30.788 3.69C30.558 3.44 30.448 3.085 30.448 2.62V0.43ZM34.0038 0.43H34.3088V4H34.0038V0.43ZM35.0818 0.43H35.3868V3.73H37.5318V4H35.0818V0.43ZM38.0115 0.43H39.2815C39.8365 0.43 40.2565 0.595 40.5365 0.93C40.7915 1.23 40.9215 1.66 40.9215 2.215C40.9215 2.76 40.7765 3.19 40.4915 3.505C40.1915 3.835 39.7665 4 39.2165 4H38.0115V0.43ZM38.3165 0.7V3.73H39.1715C39.6465 3.73 40.0115 3.595 40.2615 3.325C40.5015 3.065 40.6215 2.695 40.6215 2.215C40.6215 1.715 40.5165 1.345 40.3065 1.1C40.0765 0.83 39.7165 0.7 39.2365 0.7H38.3165ZM41.5477 0.43H41.8527V4H41.5477V0.43ZM42.6257 0.43H42.9707L45.1307 3.525H45.1457V0.43H45.4557V4H45.1157L42.9457 0.88H42.9307V4H42.6257V0.43ZM47.6953 0.36C48.1353 0.36 48.4853 0.47 48.7503 0.695C48.9953 0.905 49.1503 1.205 49.2153 1.585H48.9053C48.8503 1.295 48.7253 1.065 48.5253 0.9C48.3153 0.725 48.0353 0.64 47.6953 0.64C47.2753 0.64 46.9453 0.79 46.7003 1.09C46.4603 1.38 46.3403 1.76 46.3403 2.235C46.3403 2.7 46.4603 3.07 46.7003 3.345C46.9553 3.645 47.3203 3.795 47.8003 3.795C48.0103 3.795 48.2103 3.765 48.4103 3.705C48.6003 3.645 48.7653 3.575 48.8953 3.485V2.47H47.6753V2.2H49.2003V3.63C49.0353 3.76 48.8303 3.87 48.5853 3.95C48.3253 4.03 48.0553 4.07 47.7753 4.07C47.2153 4.07 46.7753 3.885 46.4653 3.525C46.1753 3.19 46.0353 2.76 46.0353 2.235C46.0353 1.705 46.1753 1.27 46.4603 0.925C46.7653 0.545 47.1753 0.36 47.6953 0.36Z" fill="black"/>
</svg>
