<svg width="24" height="24" viewBox="0 0 24 24" fill="none" xmlns="http://www.w3.org/2000/svg">
<path d="M7.5 13C6.77773 13 6.06253 12.8577 5.39524 12.5813C4.72795 12.3049 4.12163 11.8998 3.61091 11.3891C3.10019 10.8784 2.69506 10.272 2.41866 9.60476C2.14226 8.93747 2 8.22227 2 7.5C2 6.77773 2.14226 6.06253 2.41866 5.39524C2.69506 4.72795 3.10019 4.12163 3.61091 3.61091C4.12163 3.10019 4.72795 2.69506 5.39524 2.41866C6.06253 2.14226 6.77773 2 7.5 2C8.95869 2 10.3576 2.57946 11.3891 3.61091C12.4205 4.64236 13 6.04131 13 7.5C13 8.95869 12.4205 10.3576 11.3891 11.3891C10.3576 12.4205 8.95869 13 7.5 13ZM7.5 12C8.09095 12 8.67611 11.8836 9.22208 11.6575C9.76804 11.4313 10.2641 11.0998 10.682 10.682C11.0998 10.2641 11.4313 9.76804 11.6575 9.22207C11.8836 8.67611 12 8.09095 12 7.5C12 6.90905 11.8836 6.32389 11.6575 5.77792C11.4313 5.23196 11.0998 4.73588 10.682 4.31802C10.2641 3.90016 9.76804 3.56869 9.22208 3.34254C8.67611 3.1164 8.09095 3 7.5 3C6.30653 3 5.16193 3.47411 4.31802 4.31802C3.47411 5.16193 3 6.30653 3 7.5C3 8.69347 3.47411 9.83807 4.31802 10.682C5.16193 11.5259 6.30653 12 7.5 12ZM16.5 22C15.0413 22 13.6424 21.4205 12.6109 20.3891C11.5795 19.3576 11 17.9587 11 16.5C11 15.0413 11.5795 13.6424 12.6109 12.6109C13.6424 11.5795 15.0413 11 16.5 11C17.9587 11 19.3576 11.5795 20.3891 12.6109C21.4205 13.6424 22 15.0413 22 16.5C22 17.9587 21.4205 19.3576 20.3891 20.3891C19.3576 21.4205 17.9587 22 16.5 22ZM16.5 21C17.0909 21 17.6761 20.8836 18.2221 20.6575C18.768 20.4313 19.2641 20.0998 19.682 19.682C20.0998 19.2641 20.4313 18.768 20.6575 18.2221C20.8836 17.6761 21 17.0909 21 16.5C21 15.9091 20.8836 15.3239 20.6575 14.7779C20.4313 14.232 20.0998 13.7359 19.682 13.318C19.2641 12.9002 18.768 12.5687 18.2221 12.3425C17.6761 12.1164 17.0909 12 16.5 12C15.3065 12 14.1619 12.4741 13.318 13.318C12.4741 14.1619 12 15.3065 12 16.5C12 17.6935 12.4741 18.8381 13.318 19.682C14.1619 20.5259 15.3065 21 16.5 21Z" fill="#292945"/>
<path d="M16 4H17V12H16V4Z" fill="#292945"/>
<path d="M14 6H19V7H14V6ZM7 12H8V20H7V12Z" fill="#292945"/>
<path d="M7.475 19.31L9.243 17.543L9.95 18.25L7.475 20.725L5 18.25L5.707 17.543L7.475 19.31Z" fill="#292945"/>
</svg>
