<svg width="15" height="16" viewBox="0 0 15 16" fill="none" xmlns="http://www.w3.org/2000/svg">
<g clip-path="url(#clip0_117_198470)">
<path d="M7.73438 0.96875C4.76156 0.96875 2.34375 3.38281 2.34375 6.35C2.34375 7.45156 2.67563 8.51187 3.29625 9.40391C3.32719 9.45734 3.35859 9.50891 3.39562 9.55906L7.33031 14.7369C7.43719 14.8555 7.58062 14.9211 7.73438 14.9211C7.88625 14.9211 8.03063 14.855 8.15578 14.7148L12.0722 9.55859C12.1106 9.50703 12.1439 9.45078 12.1617 9.41797C12.7901 8.51844 13.1265 7.44729 13.125 6.35C13.125 3.38281 10.7067 0.96875 7.73438 0.96875ZM7.73438 8.27422C7.22431 8.27397 6.73516 8.07146 6.37418 7.7111C6.01321 7.35074 5.80987 6.86194 5.80875 6.35187C5.82231 5.85024 6.03111 5.3737 6.39071 5.02368C6.75031 4.67367 7.23232 4.47782 7.73414 4.47782C8.23596 4.47782 8.71797 4.67367 9.07757 5.02368C9.43717 5.3737 9.64597 5.85024 9.65953 6.35187C9.65829 6.86177 9.45496 7.35039 9.0941 7.71063C8.73324 8.07088 8.24428 8.27338 7.73438 8.27375V8.27422Z" fill="white"/>
</g>
<defs>
<clipPath id="clip0_117_198470">
<rect width="15" height="15" fill="white" transform="translate(0 0.5)"/>
</clipPath>
</defs>
</svg>
