<svg width="146" height="93" viewBox="0 0 146 93" fill="none" xmlns="http://www.w3.org/2000/svg">
<g clip-path="url(#clip0_117_198473)">
<path d="M117.323 61.7136H114.86C112.808 61.7136 112.347 61.3457 112.193 60.5572C112.039 59.7688 112.193 58.6124 114.296 57.8765C116.015 57.2588 117.613 56.3333 119.016 55.1433C122.941 52.7252 127.595 51.865 132.097 52.7254C132.991 52.8306 133.869 53.0422 134.714 53.3562C137.054 54.3656 139.452 55.2258 141.896 55.9317C144.666 56.7727 145.846 58.0868 146 59.4008C146.154 60.7149 144.41 62.2918 141.486 63.2905C140.174 63.7118 138.807 63.9245 137.433 63.9212C137.741 61.7662 138.715 59.5585 133.124 58.0868C131.561 57.5014 129.897 57.2552 128.237 57.3638C126.576 57.4724 124.956 57.9334 123.479 58.7175C121.607 60.066 119.526 61.0791 117.323 61.7136Z" fill="#4C9658"/>
<path d="M94.4939 80.7936L91.9802 79.9526C89.0047 78.9539 88.9534 78.6911 91.6211 77.4822C93.303 76.7619 94.8889 75.8258 96.3408 74.6964C98.8269 73.2207 101.596 72.3155 104.457 72.0432C107.318 71.771 110.202 72.1382 112.911 73.1195C115.681 74.2233 118.4 75.3271 120.914 76.5361C123.428 77.745 124.197 78.7437 122.863 80.2154C122.028 81.2502 120.964 82.0663 119.76 82.5964C118.556 83.1265 117.245 83.3554 115.938 83.264C114.963 81.4244 115.938 79.3744 111.475 78.0078C108.16 76.7748 104.529 76.7748 101.214 78.0078C99.2493 79.5204 96.9327 80.4807 94.4939 80.7936Z" fill="#4C9658"/>
<path d="M107.267 70.8595H101.009C99.8801 70.8595 99.7262 70.4915 99.6749 70.1236C99.6236 69.7556 100.239 69.0723 101.163 68.7044C103.556 67.9965 105.801 66.8379 107.78 65.2878C108.656 64.6689 109.627 64.2068 110.653 63.9212C114.561 62.5556 118.801 62.5556 122.709 63.9212C125.479 64.8673 127.839 65.9186 130.815 66.8647C134.662 68.0736 135.38 71.8056 131.122 73.0671C129.217 74.038 127.141 74.6098 125.018 74.7491C125.992 72.8043 127.839 70.8595 122.914 69.4928C121.077 68.6563 119.079 68.2594 117.07 68.3322C115.061 68.4051 113.095 68.9458 111.32 69.9133C110.019 70.4201 108.655 70.7386 107.267 70.8595Z" fill="#4C9658"/>
<path d="M112.244 52.6203L110.653 52.1998C106.652 50.5704 106.652 50.5178 110.653 48.8358C111.927 48.3573 113.095 47.6248 114.091 46.6808C114.938 45.9287 115.911 45.341 116.963 44.9462C118.583 44.2429 120.336 43.9197 122.094 44.0001H126.454C128.211 43.9284 129.962 44.2513 131.584 44.9462C133.893 45.9449 136.201 46.9961 138.664 47.9423C142.05 49.2038 141.845 50.7281 140.972 52.3575C140.665 52.9357 139.074 53.1985 137.946 52.8831L133.431 51.6742C131.722 50.4993 129.805 49.678 127.788 49.2563C126.346 48.6718 124.794 48.4297 123.248 48.548C121.702 48.6664 120.202 49.1421 118.862 49.9396C116.951 51.4625 114.654 52.3928 112.244 52.6203Z" fill="#4C9658"/>
<path d="M88.3887 60.0841L86.8496 60.5046C84.7976 61.0303 83.5664 60.82 83.3098 59.979C83.2587 59.3494 83.2587 58.7164 83.3098 58.0868C83.3098 57.0355 83.9768 56.142 86.1314 55.6163C87.6878 55.3826 89.1091 54.5798 90.1329 53.3562C92.9032 50.0973 102.291 49.5717 107.473 51.8844L114.911 55.1433C116.04 55.6163 115.886 55.9843 114.501 56.4573C113.116 56.9304 112.141 57.1406 110.91 57.456C108.652 57.7306 106.363 57.3671 104.292 56.4048C102.71 55.7949 101.021 55.5313 99.333 55.6309C97.6454 55.7305 95.9969 56.1911 94.4935 56.983C92.3901 58.0342 90.3894 59.0329 88.3887 60.0841Z" fill="#4C9758"/>
<path d="M94.4937 80.7936C96.2379 79.7949 97.8795 78.7437 99.6238 77.7976C101.567 76.8974 103.668 76.4056 105.8 76.3515C107.932 76.2973 110.054 76.6818 112.039 77.4822L113.321 78.0078C117.887 79.8475 118.451 80.6885 115.784 83.2641C114.22 83.649 112.62 83.8605 111.013 83.8948C108.499 83.8948 105.882 83.8948 103.523 83.8948C99.4699 83.8948 96.6483 83.8948 95.8275 81.7397C95.7249 81.3718 94.9554 80.7936 94.4937 80.7936Z" fill="#366E3E"/>
<path d="M117.323 61.7136C117.323 61.3982 117.323 60.9777 117.99 60.7149C119.516 60.0041 120.961 59.1227 122.299 58.0868C123.917 57.1559 125.711 56.5899 127.56 56.4267C129.409 56.2635 131.271 56.5069 133.021 57.1407C135.05 57.8168 137.009 58.6971 138.869 59.7688C140.665 60.7149 140.408 61.9239 139.177 63.0277C138.637 63.4608 138.052 63.831 137.433 64.1315C135.25 64.5391 133.034 64.7327 130.815 64.7097C128.946 64.9151 127.06 64.5686 125.377 63.711C122.844 62.5175 120.108 61.8392 117.323 61.7136Z" fill="#366E3E"/>
<path d="M77 67.7056V66.6018C79.4062 66.2971 81.6537 65.2102 83.4126 63.5006C85.4134 60.8199 95.3658 60.1366 99.6238 62.0288C101.506 62.9387 103.463 63.6774 105.472 64.2364C104.959 65.7608 104.19 67.0748 100.804 67.653C98.5021 66.4164 95.9276 65.8102 93.33 65.8931C90.7324 65.976 88.1998 66.7452 85.9777 68.1261C84.7832 68.718 83.4453 68.9373 82.1301 68.7568C80.2833 68.5466 79.2572 67.6004 77 67.7056Z" fill="#4D9758"/>
<path d="M107.268 70.8594C107.934 70.1236 109.217 69.5454 109.987 68.8095C111.656 67.8717 113.49 67.282 115.383 67.0745C117.276 66.867 119.191 67.0458 121.016 67.6006C123.127 68.2557 125.158 69.155 127.07 70.2812C129.071 71.4902 129.173 72.6465 126.711 73.6978L124.761 74.6965C121.621 75.1116 118.432 74.5242 115.63 73.0145C113.075 71.5573 110.191 70.8141 107.268 70.8594Z" fill="#366F3E"/>
<path d="M82.1299 68.7568C83.7502 68.3718 85.2718 67.6371 86.5931 66.6017C88.4539 65.5266 90.562 64.9821 92.6979 65.0249C94.1589 64.814 95.6475 64.9457 97.0516 65.4101C98.4557 65.8744 99.7385 66.6593 100.803 67.7056C100.034 67.8639 99.3422 68.2913 98.8463 68.9144C98.3503 69.5376 98.081 70.318 98.0845 71.1221C97.828 72.5939 95.8786 73.2246 92.6979 73.0669C91.934 73.0837 91.1723 72.9773 90.4407 72.7515C87.7217 71.6477 85.3106 70.4914 82.5403 69.335C82.1299 69.1247 82.1299 68.9145 82.1299 68.7568Z" fill="#376F3E"/>
<path d="M112.244 52.6201C113.731 51.3586 116.604 50.5702 118.041 49.2561C121.239 47.6498 124.927 47.4042 128.301 48.5728C130.25 49.2561 132.2 49.8869 133.995 50.6228C134.919 51.0433 134.508 51.4638 133.534 51.7791C132.559 52.0945 131.482 51.7791 130.456 51.7791C126.367 51.2732 122.225 52.0233 118.554 53.9342C118.077 54.1834 117.55 54.3133 117.015 54.3133C116.48 54.3133 115.952 54.1834 115.476 53.9342L112.244 52.6201Z" fill="#37703E"/>
</g>
<path d="M32.6079 45.8609C23.6248 49.2509 14.2181 51.0809 4.72487 51.2855C4.14366 51.3105 3.56503 51.1879 3.03367 50.9271C2.55667 50.712 2.07966 50.4252 1.62434 50.1624C0.51695 47.1745 -0.980456 44.3809 -2.82047 41.8701L-3.29747 41.4161C-5.27053 39.6955 -7.37369 38.1183 -7.76396 34.9877C-7.78441 34.8774 -7.78441 34.7636 -7.76396 34.6532C-7.45217 34.0808 -7.08898 33.5444 -6.67986 33.0521C-5.85595 32.1679 -5.20549 32.1918 -4.51166 33.0521C-3.81784 33.9124 -3.57934 34.6293 -3.03729 35.2984C-1.19432 37.473 0.345102 37.3775 2.14471 34.9639C2.93255 33.8184 3.65662 32.6214 4.31291 31.3793C5.63551 31.7377 6.24261 33.0282 7.15325 33.769C8.56258 35.0116 9.32145 34.9161 10.7741 33.4583C11.8012 32.0822 12.6344 30.5435 13.2459 28.894C14.1782 26.9344 14.5685 26.8866 16.1296 28.3683L17.7991 30.065C18.662 30.9627 19.7498 31.5538 20.9213 31.7616C21.6344 32.0009 22.4005 31.9629 23.0912 31.6541C23.7819 31.3452 24.3554 30.7842 24.7157 30.065C24.8067 29.7353 24.9614 29.4313 25.169 29.1737C25.3766 28.9162 25.6323 28.7111 25.9186 28.5726C26.2048 28.4342 26.5149 28.3656 26.8275 28.3716C27.14 28.3775 27.4477 28.4579 27.7295 28.6072C28.6618 28.9179 29.2906 27.9859 30.0928 27.4124C30.3789 27.2035 30.7058 27.0725 31.0468 27.03C32.2005 29.8043 33.1363 32.6825 33.8438 35.633C33.9564 36.3505 34.2324 37.0247 34.646 37.5925C34.9765 38.127 35.2596 38.6951 35.4916 39.2892C36.9443 42.4197 36.1204 44.3793 32.6079 45.8609Z" fill="#0C7651"/>
<path d="M37.7917 46.4445C36.2382 48.0339 34.3661 49.1965 32.3279 49.8379C29.4658 50.8893 26.5821 51.8213 23.6551 52.5621C20.1643 53.4702 16.6518 53.972 13.1827 54.5456C10.189 55.035 7.16765 55.2906 4.14126 55.3103C3.76837 55.2697 3.39191 55.3169 3.03681 55.4487C2.68171 55.5805 2.35608 55.794 2.08147 56.075L1.86465 55.5732C1.25756 54.0915 0.628778 52.6338 0 51.1761H1.10578C5.14376 51.0904 9.17163 50.6991 13.161 50.0051C19.0286 49.3202 24.8051 47.8929 30.3765 45.7515C31.038 45.5599 31.678 45.2874 32.2845 44.939C32.5618 44.8443 32.819 44.6893 33.0409 44.483C33.2628 44.2768 33.4449 44.0235 33.5764 43.7382C33.7078 43.4529 33.7859 43.1415 33.8061 42.8223C33.8263 42.5031 33.7881 42.1827 33.6938 41.8801C33.5377 41.1706 33.4146 40.4528 33.3252 39.7294C33.3252 39.2993 33.3252 38.8691 33.1518 38.439C34.5789 39.0132 35.9696 39.6918 37.3147 40.4702C39.7214 42.1669 39.8081 44.2698 37.7917 46.4445Z" fill="#8C9656"/>
<path d="M6.39617 50.0827C5.59394 50.0827 5.05189 49.5091 4.98684 48.4099C4.9218 47.3106 5.3988 46.1396 6.26608 46.1396C7.13336 46.1396 7.74046 46.9521 7.76214 48.2187C7.78617 48.4404 7.76968 48.6652 7.71364 48.8798C7.65759 49.0944 7.56313 49.2945 7.43582 49.4682C7.30852 49.6419 7.15094 49.7858 6.97238 49.8913C6.79383 49.9968 6.59791 50.0619 6.39617 50.0827Z" fill="#DBE362"/>
<path d="M5.89386 32.9213L5.69872 33.1603C5.33013 33.5904 4.93985 34.0445 4.59294 34.4985C2.21738 37.5307 0.292725 40.9587 -1.10942 44.6548C-2.41034 45.1088 -3.68958 45.4434 -4.83873 45.7302C-6.63796 46.1416 -8.46601 46.3814 -10.3026 46.4471L-10.1942 46.2081L-9.17513 44.7026C-14.7908 44.3919 -22.1843 46.2798 -22.6396 43.9857C-22.6396 43.8423 -22.6396 43.2927 -22.6396 42.1456C-22.6396 40.4967 -22.4879 39.0868 -22.4011 38.1548C-22.3993 36.7838 -22.2831 35.4159 -22.0542 34.0684C-21.6273 31.7118 -20.8972 29.4345 -19.886 27.3055C-19.4524 26.3257 -19.0404 25.346 -18.6068 24.414C-17.9858 22.8847 -17.1599 21.4669 -16.1567 20.2081C-15.3437 19.1157 -14.3111 18.2469 -13.1408 17.6704C-11.9704 17.0939 -10.6944 16.8255 -9.41363 16.8864C-6.81277 16.991 -4.29605 17.9294 -2.17184 19.5868C-1.86829 19.8496 -1.56475 20.1603 -1.2612 20.471C2.19086 23.5704 4.59026 27.8657 5.54695 32.6585C5.65643 32.7556 5.7724 32.8434 5.89386 32.9213Z" fill="#2A8D4A"/>
<path d="M24.824 15.164C24.6298 15.4453 24.3865 15.6809 24.1085 15.8571C23.1811 16.3884 22.1109 16.5326 21.0947 16.2633C20.1624 16.2633 19.2084 15.9288 18.4061 16.6457C14.9804 19.6328 12.9206 17.6016 11.0343 14.949C10.9451 14.857 10.878 14.742 10.8391 14.6144C10.4922 14.017 10.5139 13.0611 9.66829 12.7982C9.2997 13.9692 10.1019 14.3516 10.6223 14.9012C10.733 14.9969 10.822 15.1196 10.8825 15.2596C11.2772 16.0853 11.362 17.0487 11.1187 17.9425C10.8754 18.8364 10.3234 19.5892 9.58156 20.0391C8.89926 20.5322 8.07292 20.7225 7.26853 20.5718C6.46414 20.4211 5.74128 19.9405 5.24516 19.2266C3.70574 17.4821 2.57828 17.5299 1.01718 19.5133C0.692731 20.0595 0.257369 20.515 -0.254441 20.8437C-0.766251 21.1723 -1.34046 21.3652 -1.93159 21.4069C-2.52273 21.4487 -3.11456 21.3381 -3.66023 21.0841C-4.20591 20.8301 -4.69044 20.4396 -5.07547 19.9435C-5.31479 19.5772 -5.61931 19.2686 -5.97044 19.0364C-6.32158 18.8042 -6.71196 18.6533 -7.11776 18.593C-7.52357 18.5326 -7.93628 18.564 -8.33071 18.6852C-8.72514 18.8065 -9.09301 19.0151 -9.41187 19.2982C-9.61026 19.4981 -9.84592 19.6478 -10.1023 19.7367C-10.3587 19.8256 -10.6297 19.8516 -10.8962 19.8129C-11.1627 19.7742 -11.4183 19.6717 -11.645 19.5126C-11.8718 19.3535 -12.0642 19.1417 -12.2088 18.892C-12.9894 17.6015 -14.377 17.5299 -15.3311 16.9563C-13.6785 12.9613 -11.3871 9.3268 -8.56627 6.22655C-6.59107 3.9607 -4.16335 2.23415 -1.47626 1.18427C0.252936 0.613686 2.05302 0.347543 3.85752 0.395668C13.918 0.586845 20.9212 9.42876 22.916 12.1769C23.5998 13.1344 24.2367 14.1316 24.824 15.164Z" fill="#479D4D"/>
<path d="M9.90851 24.3457C9.92871 24.4319 9.92871 24.5224 9.90851 24.6086C9.68371 28.1068 8.48766 31.4441 6.48275 34.1674L6.15752 34.5975C3.2955 34.8604 0.606932 33.9284 -2.16836 33.9762C-2.52844 33.9936 -2.88355 33.8786 -3.17789 33.6493C-3.47223 33.4201 -3.68913 33.0896 -3.79451 32.7097C-3.87324 32.5716 -3.92493 32.417 -3.94629 32.2556C-3.83543 32.3363 -3.7195 32.4082 -3.59938 32.4707C-3.10187 32.8371 -2.50286 32.998 -1.90818 32.9247C0.877675 32.6561 3.68374 33.0305 6.33098 34.024C7.18338 30.703 8.36875 27.497 9.86515 24.4652L9.90851 24.3457Z" fill="#B9C572"/>
<path d="M31.7308 68.4365C31.526 68.6948 31.2796 68.9071 31.0047 69.0622C30.6489 69.2578 30.2582 69.3595 29.8622 69.3595C29.4663 69.3595 29.0756 69.2578 28.7197 69.0622C28.0416 68.7053 27.2744 68.6255 26.5497 68.8362C25.825 69.0469 25.188 69.5352 24.7477 70.2173C22.9539 72.4072 20.9679 70.7708 19.409 69.4472C17.85 68.1236 16.8677 67.8589 15.6505 69.0622L15.4583 69.2788C15.4583 69.2788 15.3302 69.3991 15.2661 69.4953C12.4259 70.097 9.64972 70.7467 6.91628 71.3965C6.78979 71.3309 6.67422 71.2414 6.5746 71.1317C5.61362 70.4339 4.80213 70.0007 3.75573 71.7334C1.38533 75.5837 -1.02779 76.1372 -4.55137 73.9233C-5.11633 73.4101 -5.81529 73.1203 -6.54069 73.0986C-7.2661 73.0768 -7.97774 73.3243 -8.56611 73.8029C-9.30536 74.4764 -10.2389 74.8192 -11.1883 74.766C-12.1377 74.7127 -13.0364 74.267 -13.7127 73.5142C-14.1918 73.0105 -14.8107 72.7089 -15.4646 72.6607C-16.1184 72.6124 -16.767 72.8204 -17.3003 73.2495C-22.1265 76.1613 -25.0095 74.6693 -26.3121 68.6531C-26.4651 68.0372 -26.5792 67.41 -26.6538 66.776C-26.2481 65.0674 -25.8423 63.3347 -25.3725 61.6261C-24.9367 59.9691 -24.3721 58.3585 -23.6855 56.8132C-23.6396 56.6547 -23.5671 56.5076 -23.4719 56.38L-21.913 54.8158C-21.6781 54.5992 -21.4218 54.1901 -21.2296 54.2142C-19.0941 54.5029 -18.2399 52.313 -16.9586 51.0376C-16.2988 50.4244 -15.5829 49.8919 -14.8231 49.4493C-13.0293 48.0536 -11.8548 48.2942 -10.8084 50.436C-10.7016 50.6285 -10.6375 50.7969 -10.5308 51.0135C-7.98952 57.0057 -5.59776 57.3185 -1.64709 52.5777C-0.878306 51.6392 -0.152236 50.7007 0.659255 49.7862C0.869653 49.4589 1.13687 49.1831 1.4447 48.9756C1.75253 48.7682 2.09455 48.6334 2.45001 48.5794C2.80547 48.5254 3.16696 48.5533 3.51255 48.6615C3.85814 48.7696 4.18063 48.9558 4.46045 49.2087C7.17254 51.3745 9.47888 52.6499 12.5967 48.8477C13.9421 47.1632 17.2735 46.8984 19.8147 47.9092C20.95 48.4319 22.156 48.733 23.381 48.7996H23.9149C26.9259 50.3156 27.4598 53.9735 28.9974 56.8372C29.1169 57.0869 29.2239 57.344 29.3177 57.6073C29.4428 57.842 29.5431 58.0924 29.6167 58.3533C30.0105 59.3809 30.2279 60.4833 30.2573 61.6021C30.2786 61.8984 30.2786 62.1962 30.2573 62.4925C30.7485 64.4658 31.261 66.4391 31.7308 68.4365Z" fill="#218A49"/>
<path d="M7.4879 71.1695C6.33875 73.5593 4.04046 74.9931 2.99972 77.4545C2.90592 77.6094 2.8329 77.7784 2.7829 77.9563C1.07471 81.2974 -0.375854 84.7906 -1.5535 88.3993C-1.76387 89.5507 -2.30338 90.5976 -3.09292 91.3865L-3.43983 91.6015H-3.63497C-11.3563 92.0253 -19.0877 91.0237 -26.5095 88.6383C-28.5476 88.0648 -29.4582 87.0133 -29.5233 85.4122C-29.5467 84.1922 -29.3168 82.9825 -28.8511 81.8754C-28.4283 76.7719 -27.5717 71.7234 -26.2927 66.7964C-26.1409 67.1787 -25.9457 67.5611 -25.794 67.9434C-25.4813 68.6044 -25.1991 69.2824 -24.9484 69.9747C-24.5792 70.9597 -24.025 71.8474 -23.3222 72.5795C-22.8247 73.3557 -22.0678 73.8823 -21.2181 74.0436C-20.3683 74.205 -19.4952 73.9878 -18.7907 73.4398C-17.9668 72.7945 -17.1212 72.1732 -16.2539 71.5519C-14.8662 70.5482 -14.6494 70.5482 -13.4135 71.9343C-12.7197 72.7229 -12.1343 73.6309 -11.2454 73.7265C-10.6894 73.886 -10.1045 73.8745 -9.55404 73.6933C-9.0036 73.5122 -8.50872 73.1683 -8.12314 72.699C-7.77623 72.2449 -7.36427 71.8626 -6.974 71.4324C-6.8846 71.3245 -6.77576 71.2382 -6.65443 71.1792C-6.5331 71.1202 -6.40195 71.0897 -6.26933 71.0897C-6.13672 71.0897 -6.00556 71.1202 -5.88423 71.1792C-5.7629 71.2382 -5.65406 71.3245 -5.56467 71.4324C-5.37856 71.574 -5.21079 71.7428 -5.06598 71.9343C-4.36973 72.7697 -3.50355 73.4111 -2.53862 73.8057C-1.57369 74.2004 -0.537563 74.3371 0.48461 74.2045C1.068 74.214 1.64199 74.0419 2.1406 73.7079C2.63921 73.3739 3.04221 72.8917 3.30327 72.3166C3.84532 71.2412 4.30064 69.9269 4.86437 68.9471C5.4281 67.9673 5.84006 68.0629 6.46884 68.7559C6.80171 69.0389 7.06803 69.4058 7.24537 69.8258C7.42272 70.2458 7.50589 70.7067 7.4879 71.1695Z" fill="#0C7651"/>
<path d="M31.0252 27.089C30.765 27.3997 30.5048 27.7342 30.2663 27.9732C25.7131 32.9677 21.4417 33.7085 16.4115 30.3629C14.9371 29.3592 14.2433 29.646 13.3326 31.1754C10.3405 35.9548 10.2538 35.9548 5.31031 33.9236C4.31293 33.5173 4.00939 34.1147 3.46734 34.6883C-0.261968 38.7747 -0.327012 38.8464 -4.57668 35.3335C-5.02188 34.9864 -5.54672 34.7844 -6.09119 34.7505C-6.63566 34.7167 -7.17777 34.8525 -7.65553 35.1423H-7.78562C-11.7651 32.7955 -15.4894 29.9574 -18.8868 26.6828C-18.8868 26.6828 -18.9952 26.6827 -19.0386 26.5394C-18.1862 23.2184 -17.0008 20.0123 -15.5044 16.9805L-15.396 16.7894C-14.7455 16.5982 -14.0517 16.4548 -13.4229 16.2158C-12.7942 15.9769 -12.3172 16.2158 -12.1437 16.9328C-12.0791 17.4527 -11.9702 17.9647 -11.8185 18.4622C-11.7622 18.6093 -11.6775 18.7412 -11.5703 18.8486C-11.4631 18.9561 -11.3359 19.0365 -11.1977 19.0842C-11.0594 19.132 -10.9134 19.146 -10.7697 19.1252C-10.626 19.1045 -10.4882 19.0494 -10.3658 18.964C-9.42442 18.2999 -8.57076 17.4958 -7.82898 16.5743C-7.65958 16.3961 -7.4344 16.2966 -7.20021 16.2966C-6.96602 16.2966 -6.74083 16.3961 -6.57143 16.5743C-5.85592 17.4346 -5.22714 18.3666 -4.40323 19.1791C-2.66867 20.9475 -1.49784 20.8997 0.215036 18.964C1.104 17.9603 1.88455 16.8372 2.73015 15.7379C3.68415 15.7379 4.09611 16.646 4.70321 17.1956C5.3103 17.7453 5.93908 18.51 6.58954 19.0596C6.8659 19.3604 7.21048 19.5738 7.58727 19.6776C7.96406 19.7814 8.35923 19.7717 8.73148 19.6496C9.10372 19.5275 9.43938 19.2974 9.70336 18.9835C9.96734 18.6695 10.15 18.2831 10.2321 17.8647C10.4502 17.0865 10.5955 16.2858 10.6658 15.475C10.5898 15.2681 10.5898 15.0367 10.6658 14.8298C10.6658 14.6625 10.6658 14.5908 10.8826 14.543C11.0813 14.4831 11.291 14.4831 11.4897 14.543C12.5087 15.26 13.4627 16.1203 14.5252 16.7894C16.0646 17.7691 16.6934 17.5302 17.5606 15.6662C18.0376 14.5191 18.493 13.8978 19.5554 14.4953C20.9111 15.179 22.4101 15.4434 23.8918 15.26C24.2262 15.2438 24.5594 15.2039 24.8891 15.1405C27.5851 18.6725 29.6654 22.7234 31.0252 27.089Z" fill="#228B49"/>
<path d="M35.6454 95.9174C35.4997 96.4306 35.2801 96.9147 34.995 97.3512C33.7374 99.5258 31.5909 99.3824 29.2926 98.3787C26.9943 97.3751 25.3248 96.6821 23.3734 98.0442C23.3016 98.0668 23.2398 98.1179 23.2 98.1876H23.0482C18.9503 96.2519 14.8307 97.16 10.8412 96.4909C9.49235 96.3595 8.13559 96.3595 6.78671 96.4909H6.02784C4.70832 96.5389 3.42418 96.0156 2.45031 95.0332C2.19012 94.7703 1.34452 95.6545 0.737429 95.9174C-2.12459 97.1122 -4.01093 96.4192 -6.13576 93.3843L-6.28754 93.1453C-6.35999 92.9688 -6.39746 92.7774 -6.39746 92.5837C-6.39746 92.39 -6.35999 92.1986 -6.28754 92.0221C-6.12944 91.7298 -5.89525 91.4967 -5.6154 91.353C-5.57445 90.7328 -5.48743 90.1174 -5.35521 89.5129C-4.24143 85.2871 -2.57619 81.2622 -0.411718 77.5644L0.347152 77.8034C1.69144 78.3291 3.01404 79.1416 4.51009 77.8034C6.00615 76.4651 6.67829 78.0901 7.3938 79.4523C8.54294 81.842 9.82219 82.6545 11.4917 80.1931C12.5975 78.5681 13.7683 78.353 15.6763 79.2372C16.7927 79.6831 17.9857 79.8465 19.1671 79.7151H19.2755C20.5331 79.5957 21.8123 79.3567 23.0482 79.3328C24.2841 79.3089 25.2164 79.1655 26.3872 79.0699C26.6614 79.0941 26.9369 79.0941 27.2111 79.0699H27.7098C30.832 80.1692 31.656 83.5865 33.2604 86.239C33.2471 86.2775 33.2471 86.3201 33.2604 86.3585C34.0524 88.0245 34.6359 89.8011 34.995 91.6398C35.0278 92.141 35.0278 92.6441 34.995 93.1453L35.6454 95.9174Z" fill="#228B49"/>
<path d="M33.3903 107.197C21.9585 110.051 10.0803 109.929 -1.30091 106.838C-1.53941 106.838 -1.7996 106.719 -2.0381 106.623C-3.77048 106.15 -5.35715 105.177 -6.63468 103.803C-8.80288 101.127 -8.80288 97.3033 -5.98422 93.2647L-5.72404 92.9302L-4.72667 93.9338C-4.00577 94.8416 -3.00995 95.4294 -1.92486 95.5877C-0.83978 95.746 0.260502 95.4639 1.17084 94.7941C1.90803 94.2684 2.62353 93.7427 3.33904 93.2647C4.05454 92.7868 4.20632 93.2647 4.4665 93.6471C4.72669 94.0294 5.26874 95.296 5.70238 96.0368C5.82092 96.269 6.0091 96.4484 6.23462 96.5444C6.46013 96.6403 6.70891 96.6467 6.93825 96.5625C7.11248 96.4947 7.27965 96.4066 7.43693 96.2997C8.41262 95.6783 8.41262 93.5754 9.60513 93.91C10.4507 94.0533 11.1662 95.4394 12.0335 96.2997C13.2694 97.3511 14.3969 96.9688 15.3725 95.2243C16.1097 93.9577 16.0664 93.9816 17.1722 94.7703C18.1697 95.541 19.2047 96.2511 20.2727 96.8971C21.8121 97.8052 23.2865 98.0919 24.3923 96.2758C24.8259 95.5111 25.5197 95.4872 26.322 95.9173C27.1242 96.3475 28.5986 97.1122 29.7694 97.7096C30.5616 98.2721 31.5117 98.4997 32.4442 98.3503C33.3768 98.201 34.2288 97.6848 34.843 96.8971C35.096 96.661 35.3641 96.4454 35.6452 96.2519L36.751 99.5975C37.0311 100.453 37.2487 101.332 37.4015 102.226C37.9435 105.094 36.816 106.504 33.3903 107.197Z" fill="#0D7651"/>
<path d="M38.7707 105.553C37.4992 107.566 35.7117 109.056 33.6668 109.806C29.2303 111.324 24.6233 112.053 20.0007 111.97C17.4356 112.056 14.8684 111.958 12.3135 111.678C7.35838 110.84 2.51439 109.271 -2.10257 107.011C-3.65832 106.154 -5.13767 105.12 -6.51905 103.924C-8.95645 101.809 -9.35227 100.035 -8.35231 96.6317C-8.35231 96.34 -8.35231 95.9511 -8.14399 95.4163C-10.5531 95.1154 -12.932 94.5456 -15.2479 93.7148C-19.4241 93.0152 -23.4719 91.512 -27.2265 89.2665C-27.9796 88.7749 -28.679 88.1791 -29.3098 87.4921C-29.6139 87.2243 -29.8697 86.8892 -30.0627 86.5059C-30.2556 86.1226 -30.3818 85.6986 -30.4341 85.2583C-30.4863 84.818 -30.4636 84.3699 -30.3672 83.9399C-30.2708 83.5098 -30.1026 83.1062 -29.8722 82.7521C-29.5742 82.3324 -29.2541 81.9346 -28.9139 81.561C-28.8927 81.982 -28.8927 82.4041 -28.9139 82.825C-28.9033 82.8892 -28.9033 82.9553 -28.9139 83.0195C-29.1431 85.3044 -28.9139 85.9364 -27.5807 86.9087C-27.2005 87.248 -26.7586 87.4808 -26.2891 87.5893C-23.9767 87.5893 -21.7267 88.9262 -19.3518 88.9505C-17.9984 88.9597 -16.655 89.2223 -15.3728 89.7284C-14.5196 90.0133 -13.6354 90.1525 -12.748 90.1416C-9.87308 90.4333 -6.9982 90.6763 -4.03999 90.9194C-4.09345 91.0603 -4.1353 91.2068 -4.16499 91.357C-4.28764 91.6975 -4.39201 92.0465 -4.47747 92.4022C-4.47747 92.5723 -4.47747 92.7911 -4.58164 92.9856C-4.89412 94.9059 -5.20661 96.8262 -5.53993 98.7708C-5.66776 99.5242 -5.74438 100.288 -5.76909 101.056C-5.76909 102.976 -5.49826 103.657 -3.99833 104.289C-1.41592 105.438 1.26666 106.253 4.00134 106.719C7.3137 107.181 10.6886 107.594 14.1051 107.813C16.5634 107.975 19.0288 107.918 21.4798 107.643C25.4796 107.157 29.4586 106.355 33.5626 105.698C34.1506 105.625 34.7303 105.478 35.2917 105.261C35.6328 105.126 35.9299 104.871 36.1424 104.532C36.3549 104.193 36.4725 103.785 36.4791 103.365C36.4791 102.441 36.4791 101.518 36.4791 100.618C36.4791 100.083 36.4791 99.5729 36.4791 99.0624C37.2071 99.8325 37.9024 100.644 38.5624 101.493C39.0251 102.017 39.3031 102.725 39.3417 103.476C39.3802 104.227 39.1765 104.968 38.7707 105.553Z" fill="#8C9656"/>
<path d="M33.4118 86.3585C33.2102 86.3847 33.0064 86.3847 32.8047 86.3585C31.9331 85.7652 31.2802 84.8509 30.9618 83.7777C30.2701 82.0134 29.1433 80.4983 27.7095 79.4045C27.3115 79.3602 26.9269 79.2216 26.582 78.9982C25.7696 78.4088 25.0392 77.6924 24.4138 76.8714C22.1452 74.4378 19.4327 72.5642 16.4565 71.3751C15.5892 70.9927 14.1582 71.2078 14.0498 69.6306C14.0381 69.4875 14.0381 69.3435 14.0498 69.2005C14.3534 68.3641 14.6786 67.5277 15.0472 66.5718C16.4348 66.978 17.3455 68.2685 18.538 68.9615C22.0288 71.0405 22.0938 72.0442 24.5873 67.4082C26.2572 68.0008 27.9687 68.4404 29.7042 68.7225H30.5932C32.02 72.7495 33.0592 76.9305 33.6937 81.1968C33.7699 81.9012 34.0171 82.5699 34.4092 83.1324C34.6113 83.5249 34.7714 83.9419 34.8862 84.3751C35.0597 85.4982 34.6911 86.2152 33.4118 86.3585Z" fill="#107751"/>
<path d="M38.3553 89.4172C37.2712 90.7077 36.1871 91.9981 35.0379 93.2408C34.9078 92.954 34.8211 92.6911 34.691 92.4044C33.675 90.5881 33.0312 88.5492 32.8047 86.4301C32.9849 86.341 33.1589 86.2371 33.3251 86.1195C33.641 85.8802 33.8938 85.5529 34.0575 85.1708C34.2213 84.7888 34.2903 84.3658 34.2574 83.9448C34.2796 83.6745 34.2796 83.4026 34.2574 83.1323C36.4256 83.4669 37.4663 85.307 38.5938 87.0753C38.8089 87.4348 38.9029 87.866 38.8593 88.2939C38.8157 88.7218 38.6374 89.1193 38.3553 89.4172Z" fill="#8C9756"/>
<path d="M24.1429 49.423C23.8493 49.8476 23.4255 50.1399 22.9508 50.2454C22.476 50.3509 21.9826 50.2625 21.5627 49.9966C20.6737 49.6381 19.8498 49.1363 18.9825 48.6822C18.7336 48.514 18.4435 48.4352 18.1522 48.4566C17.8609 48.478 17.5828 48.5986 17.3564 48.8017C16.9055 49.221 16.3529 49.4853 15.7671 49.5618C15.1813 49.6382 14.588 49.5235 14.0607 49.2318C13.8959 49.1657 13.7204 49.1383 13.5455 49.1514C13.3705 49.1645 13.2 49.2177 13.0448 49.3077C12.8896 49.3977 12.7533 49.5225 12.6444 49.6741C12.5356 49.8256 12.4567 50.0006 12.4129 50.1877C12.0226 51.1197 11.9576 52.3624 10.8951 52.6969C10.3179 52.9513 9.69767 53.0659 9.07667 53.0329C8.45567 52.9999 7.84837 52.8201 7.29594 52.5057C6.05536 51.9092 4.90685 51.1029 3.89186 50.116C2.78608 48.969 2.50422 49.0407 1.42012 50.3311C0.336018 51.6215 -1.18172 53.4616 -2.46096 55.1105C-3.01484 55.849 -3.73491 56.4142 -4.54917 56.7497C-5.36343 57.0852 -6.24334 57.1792 -7.10091 57.0223C-7.69187 56.9545 -8.2603 56.7356 -8.76095 56.3829C-9.26159 56.0303 -9.6806 55.5537 -9.98461 54.991C-10.289 54.3649 -10.637 53.7657 -11.0253 53.1988C-11.2408 52.8952 -11.396 52.5451 -11.4807 52.1712C-11.7842 51.1436 -11.8709 49.9966 -12.7165 49.3513C-13.6844 49.978 -14.6833 50.5445 -15.7087 51.048C-16.1934 51.2074 -16.6997 51.2721 -17.2047 51.2392C-17.7394 52.142 -18.3976 52.9481 -19.1561 53.6289C-20.0234 54.3936 -20.2836 54.298 -21.888 55.469C-22.8637 56.162 -23.4925 56.6877 -23.8177 56.8789C-24.143 57.0701 -24.0562 56.9984 -24.0996 56.8789C-24.143 56.7594 -24.0996 56.6399 -23.9261 56.2337C-23.8219 56.0064 -23.6985 55.7903 -23.5575 55.5885C-22.9288 54.298 -22.6252 53.6528 -22.2349 53.0076C-21.5194 51.8844 -20.2402 49.6142 -18.2021 45.8385L-18.0937 45.5995L-17.0746 44.094C-12.3263 37.2355 -9.70275 35.3238 -8.16332 35.0131C-6.54818 34.4226 -4.9631 33.7365 -3.41497 32.9579C-3.03573 32.722 -2.68589 32.4329 -2.37423 32.0977C-2.26337 32.1783 -2.14744 32.2502 -2.02732 32.3127C-1.52982 32.6792 -0.930799 32.84 -0.336124 32.7668C2.44973 32.4982 5.2558 32.8725 7.90303 33.866H8.07649C9.13891 34.4157 10.2447 34.9653 11.1987 35.5388C13.2582 36.6313 15.1292 38.1112 16.7276 39.912C17.3561 40.8368 18.1634 41.5959 19.0909 42.1344C19.1624 42.216 19.2277 42.3039 19.2861 42.3973C19.9799 43.3054 20.6521 44.2613 21.4543 45.1216C22.4727 46.2197 23.3092 47.5056 23.926 48.9212C24.0215 49.075 24.0947 49.2443 24.1429 49.423Z" fill="#479D4D"/>
<path d="M11.3809 14.5667L10.5787 15.5226C9.53796 15.5226 8.62731 15.5226 8.12863 14.3756C7.92178 13.9534 7.81348 13.4812 7.81348 13.0015C7.81348 12.5217 7.92178 12.0495 8.12863 11.6274C8.28958 11.2421 8.55595 10.9219 8.89036 10.7119C9.22478 10.5019 9.61046 10.4126 9.99328 10.4564C10.2994 10.4611 10.593 10.5907 10.8173 10.8203C11.0416 11.0499 11.1807 11.363 11.2075 11.6991C11.309 12.6512 11.3669 13.6083 11.3809 14.5667Z" fill="#DDE462"/>
<path d="M13.9414 69.2242C14.2232 69.4392 14.4617 69.8216 14.7653 69.8933C17.3795 70.4669 19.8642 71.6073 22.0751 73.2483C24.286 74.8892 26.1791 76.998 27.6444 79.4521C27.3192 79.8822 26.9072 80.2885 26.4085 80.1451C25.1943 79.7628 24.0669 79.3087 23.5682 81.1966C23.4164 81.7462 22.7443 81.7223 22.2889 81.5072C21.8661 81.2351 21.4604 80.9317 21.0747 80.5992C20.4676 80.1451 19.8822 79.5477 19.145 79.6911C18.4079 79.8344 18.3211 80.862 17.9959 81.5311C17.9489 81.6525 17.8757 81.7595 17.7828 81.8427C17.6898 81.9259 17.5799 81.983 17.4625 82.0089C17.345 82.0347 17.2237 82.0287 17.1088 81.9913C16.994 81.9538 16.8891 81.8861 16.8034 81.794C16.1746 81.1727 15.6109 80.4558 14.9821 79.8344C14.3533 79.2131 13.5294 78.9742 12.7055 80.169C12.1829 81.0063 11.6107 81.8046 10.9926 82.5587C9.8001 83.897 8.82441 83.7297 7.91377 82.2003C7.77705 81.9744 7.66085 81.7343 7.56685 81.4833C6.95976 80.3841 6.37434 79.2848 5.78893 78.1856C4.48801 78.1856 4.05437 79.5955 3.16541 80.2407C3.04187 80.3694 2.89307 80.465 2.73057 80.52C2.56807 80.575 2.39624 80.588 2.22845 80.558C2.06065 80.5279 1.9014 80.4556 1.76307 80.3467C1.62474 80.2378 1.51106 80.0952 1.43085 79.93L-0.303711 77.5403C0.744 74.8591 2.62855 72.6803 5.00838 71.3988C7.66166 69.5394 10.8244 68.7695 13.9414 69.2242Z" fill="#469C4D"/>
<path d="M4.87842 65.7113C4.87842 65.4007 5.07356 64.7555 5.26869 64.1819C5.33654 64.0444 5.43199 63.9258 5.54776 63.8352C5.66353 63.7445 5.79656 63.6842 5.9367 63.6588C6.07684 63.6335 6.22038 63.6437 6.35638 63.6888C6.49237 63.7339 6.61721 63.8127 6.72139 63.9191C7.0758 64.2616 7.32918 64.7131 7.44895 65.2156C7.56872 65.7181 7.54942 66.2486 7.39353 66.7389C7.13335 67.5036 6.80812 68.2683 6.00588 68.1488C5.20365 68.0294 5.00851 67.2408 4.92178 66.4283C4.9001 66.2849 4.9001 66.1654 4.87842 65.7113Z" fill="#CBD85D"/>
<path d="M3.66263 19.8718C3.66263 19.7045 3.31572 19.5133 3.3374 19.346C3.33204 19.2572 3.34933 19.1684 3.38731 19.0898C3.42529 19.0111 3.48245 18.9458 3.55234 18.901C3.62223 18.8563 3.70208 18.834 3.78286 18.8366C3.86365 18.8393 3.94216 18.8667 4.00954 18.9159C4.08468 18.9948 4.1416 19.0924 4.17555 19.2005C4.20949 19.3085 4.21948 19.424 4.20468 19.5372C4.13963 19.6806 3.85777 19.7523 3.66263 19.8718Z" fill="#479D4D"/>
<g clip-path="url(#clip1_117_198473)">
<path d="M35.6824 54.5846C35.4867 54.4197 35.337 54.1914 35.0032 54.3183C34.4161 54.5212 34.0247 54.2802 33.6794 53.6588C33.5461 53.2509 33.36 52.8664 33.1268 52.5173C33.0481 52.4295 33.0039 52.311 33.0039 52.1875C33.0039 52.0641 33.0481 51.9456 33.1268 51.8578C33.2002 51.7729 33.2474 51.6648 33.2619 51.5487C33.2764 51.4326 33.2573 51.3144 33.2074 51.2109C33.1386 51.0696 33.1024 50.9118 33.1021 50.7514C33.1018 50.591 33.1373 50.433 33.2056 50.2913C33.2739 50.1496 33.3728 50.0287 33.4935 49.9391C33.6143 49.8495 33.7532 49.7941 33.8981 49.7778C34.2042 49.7362 34.4863 49.574 34.6924 49.3212C34.7813 49.1927 34.908 49.1022 35.0508 49.0652C35.1935 49.0282 35.3435 49.047 35.4752 49.1183C35.5659 49.1563 35.665 49.1633 35.7595 49.1384C35.8539 49.1136 35.9394 49.0579 36.0047 48.9788C36.1904 48.7501 36.4504 48.6113 36.7283 48.5923C37.0062 48.5733 37.2798 48.6757 37.4897 48.8773C37.5963 48.9465 37.685 49.0446 37.7475 49.1622C37.81 49.2799 37.8441 49.4132 37.8466 49.5495C37.8323 49.6714 37.8598 49.7948 37.9236 49.8956C37.9875 49.9965 38.0831 50.0675 38.1919 50.0949C38.3544 50.1453 38.4945 50.2597 38.5858 50.4163C38.677 50.5728 38.7129 50.7608 38.6869 50.9446C38.6869 51.2617 38.6869 51.5914 38.6869 51.9212C38.6869 52.2509 38.6869 52.3144 38.0998 52.3524C37.5127 52.3905 37.2019 52.6188 37.3746 51.8324C37.373 51.8191 37.3738 51.8055 37.377 51.7925C37.3802 51.7795 37.3857 51.7674 37.3932 51.7567C37.4007 51.7461 37.41 51.7373 37.4207 51.7306C37.4313 51.724 37.443 51.7198 37.4552 51.7183C37.3746 51.7183 37.4552 51.8451 37.3746 51.8958C37.2364 52.4412 36.8681 52.8851 36.776 53.4431C36.776 53.5953 36.6263 53.8109 36.4191 53.7602C36.3382 53.7288 36.2698 53.6673 36.2257 53.5862C36.1815 53.5052 36.1645 53.4097 36.1774 53.3163C36.16 52.8463 36.2066 52.376 36.3155 51.9212C36.4271 51.7186 36.4918 51.4888 36.5038 51.2522C36.5159 51.0155 36.4749 50.7792 36.3846 50.5641C35.809 51.0714 36.3155 51.7563 36.2349 52.3905C36.2349 52.6188 36.2349 52.9358 36.0047 53.0119C35.7745 53.088 35.5212 52.7963 35.4982 52.5427C35.4752 52.289 35.0377 52.2636 34.865 52.0607C34.796 52.0607 34.8075 51.9339 34.7154 51.9466C34.7734 51.9552 34.8266 51.9868 34.865 52.0353C35.1252 52.4012 35.4019 52.7526 35.6939 53.088C35.8074 53.1693 35.9004 53.2808 35.9645 53.4122C36.0285 53.5436 36.0615 53.6907 36.0603 53.8398C36.0592 53.9889 36.024 54.1353 35.9579 54.2655C35.8918 54.3957 35.7971 54.5054 35.6824 54.5846Z" fill="#40AC4B"/>
<path d="M34.6001 51.8831H34.7728C35.1757 52.0099 35.1757 52.0099 35.4289 51.6801C35.518 52.126 35.6694 52.5539 35.8779 52.9484C35.9623 52.6849 35.9977 52.4053 35.9818 52.1264C35.966 51.8475 35.8993 51.5749 35.7858 51.325C35.6246 50.9953 35.6477 50.9318 35.993 50.8431C36.3384 50.7543 36.2232 50.4626 36.3384 50.1455C36.3384 50.3358 36.3384 50.4245 36.3384 50.5006C36.3384 50.9318 36.3384 50.9318 36.9139 50.8431C36.9139 51.046 36.7528 51.1221 36.6952 51.2616C36.6377 51.4011 36.5686 51.5279 36.5225 51.6675C36.4853 51.8209 36.4622 51.9782 36.4535 52.1367C36.4424 52.2802 36.4424 52.4245 36.4535 52.5679C36.4535 52.7455 36.4535 52.9231 36.4535 53.1006C36.4535 53.2782 36.4535 53.3923 36.4535 53.5572C36.8103 53.2275 36.8103 53.2275 36.6952 52.7328C36.5225 52.5299 36.4535 52.3904 36.7873 52.3904C37.1211 52.3904 37.0175 52.2382 37.0866 52.0987C37.1557 51.9592 37.2247 51.7055 37.432 51.6167V51.8704C37.432 52.2636 37.432 52.2636 37.8694 52.2382C37.8694 52.2382 37.996 52.2382 38.0651 52.3397C37.4179 52.7619 36.8884 53.3717 36.5341 54.1026C36.4543 54.2565 36.4182 54.4332 36.4304 54.6099C36.4304 54.8509 36.4304 55.0792 36.4304 55.3201C36.4304 55.5611 36.6837 55.9162 36.4304 56.1445C36.1772 56.3728 35.8894 56.1953 35.6131 56.1953H35.521C35.5901 55.6626 35.6477 55.1299 35.7167 54.5972C35.7167 54.407 35.7858 54.204 35.8088 54.0011C35.8209 53.8508 35.8035 53.6994 35.7578 53.5572C35.7121 53.415 35.6392 53.2852 35.5441 53.1767C35.4598 53.0904 35.3596 53.0253 35.2503 52.9859C35.1409 52.9465 35.0252 52.9337 34.9109 52.9484C34.8613 52.9383 34.8142 52.9167 34.7728 52.885C35.003 52.4158 35.003 52.4158 34.6461 51.8831H34.6001Z" fill="#7C533D"/>
</g>
<g clip-path="url(#clip2_117_198473)">
<path d="M36.9514 74.8771C36.7557 74.7122 36.6061 74.4839 36.2722 74.6107C35.6851 74.8137 35.2937 74.5727 34.9484 73.9512C34.8152 73.5434 34.6291 73.1589 34.3958 72.8098C34.3171 72.7219 34.2729 72.6035 34.2729 72.48C34.2729 72.3566 34.3171 72.2381 34.3958 72.1503C34.4692 72.0654 34.5165 71.9573 34.5309 71.8412C34.5454 71.7251 34.5263 71.6069 34.4764 71.5034C34.4076 71.3621 34.3714 71.2042 34.3711 71.0438C34.3708 70.8834 34.4064 70.7254 34.4746 70.5838C34.5429 70.4421 34.6418 70.3211 34.7626 70.2316C34.8834 70.142 35.0223 70.0866 35.1671 70.0703C35.4732 70.0287 35.7553 69.8665 35.9614 69.6137C36.0504 69.4852 36.177 69.3947 36.3198 69.3577C36.4626 69.3207 36.6126 69.3394 36.7442 69.4107C36.835 69.4488 36.934 69.4558 37.0285 69.4309C37.1229 69.406 37.2084 69.3504 37.2737 69.2712C37.4595 69.0426 37.7194 68.9038 37.9973 68.8848C38.2753 68.8658 38.5488 68.9682 38.7587 69.1698C38.8653 69.239 38.9541 69.3371 39.0165 69.4547C39.079 69.5724 39.1131 69.7057 39.1156 69.842C39.1014 69.9639 39.1288 70.0873 39.1927 70.1881C39.2565 70.289 39.3522 70.36 39.461 70.3873C39.6235 70.4378 39.7636 70.5522 39.8548 70.7087C39.946 70.8653 39.982 71.0533 39.956 71.2371C39.956 71.5542 39.956 71.8839 39.956 72.2137C39.956 72.5434 39.956 72.6068 39.3689 72.6449C38.7818 72.6829 38.471 72.9112 38.6436 72.1249C38.642 72.1116 38.6428 72.098 38.646 72.085C38.6492 72.072 38.6547 72.0599 38.6622 72.0492C38.6697 72.0386 38.6791 72.0297 38.6897 72.0231C38.7003 72.0165 38.7121 72.0123 38.7242 72.0107C38.6436 72.0107 38.7242 72.1376 38.6436 72.1883C38.5055 72.7337 38.1371 73.1776 38.045 73.7356C38.045 73.8878 37.8954 74.1034 37.6882 74.0527C37.6073 74.0213 37.5388 73.9598 37.4947 73.8787C37.4506 73.7977 37.4335 73.7022 37.4464 73.6088C37.4291 73.1388 37.4756 72.6685 37.5846 72.2137C37.6961 72.011 37.7608 71.7813 37.7729 71.5446C37.7849 71.308 37.744 71.0717 37.6536 70.8566C37.078 71.3639 37.5846 72.0488 37.504 72.6829C37.504 72.9112 37.504 73.2283 37.2737 73.3044C37.0435 73.3805 36.7903 73.0888 36.7672 72.8351C36.7442 72.5815 36.3068 72.5561 36.1341 72.3532C36.065 72.3532 36.0765 72.2264 35.9844 72.239C36.0424 72.2477 36.0956 72.2792 36.1341 72.3278C36.3943 72.6937 36.6709 73.045 36.9629 73.3805C37.0764 73.4618 37.1695 73.5733 37.2335 73.7047C37.2976 73.8361 37.3305 73.9831 37.3294 74.1323C37.3282 74.2814 37.293 74.4278 37.2269 74.558C37.1609 74.6882 37.0661 74.7979 36.9514 74.8771Z" fill="#40AC4B"/>
<path d="M35.8691 72.1755H36.0418C36.4447 72.3024 36.4447 72.3024 36.698 71.9726C36.787 72.4185 36.9385 72.8464 37.1469 73.2409C37.2314 72.9774 37.2667 72.6978 37.2509 72.4189C37.2351 72.14 37.1684 71.8674 37.0548 71.6175C36.8937 71.2877 36.9167 71.2243 37.262 71.1355C37.6074 71.0468 37.4923 70.7551 37.6074 70.438C37.6074 70.6282 37.6074 70.717 37.6074 70.7931C37.6074 71.2243 37.6074 71.2243 38.183 71.1355C38.183 71.3385 38.0218 71.4146 37.9643 71.5541C37.9067 71.6936 37.8376 71.8204 37.7916 71.9599C37.7544 72.1134 37.7312 72.2706 37.7225 72.4292C37.7114 72.5727 37.7114 72.7169 37.7225 72.8604C37.7225 73.038 37.7225 73.2155 37.7225 73.3931C37.7225 73.5707 37.7225 73.6848 37.7225 73.8497C38.0794 73.5199 38.0794 73.5199 37.9643 73.0253C37.7916 72.8224 37.7225 72.6829 38.0563 72.6829C38.3902 72.6829 38.2866 72.5307 38.3557 72.3912C38.4247 72.2516 38.4938 71.998 38.701 71.9092V72.1629C38.701 72.556 38.701 72.556 39.1384 72.5307C39.1384 72.5307 39.2651 72.5307 39.3341 72.6321C38.687 73.0544 38.1574 73.6641 37.8031 74.3951C37.7234 74.549 37.6873 74.7257 37.6995 74.9024C37.6995 75.1434 37.6995 75.3716 37.6995 75.6126C37.6995 75.8536 37.9527 76.2087 37.6995 76.437C37.4462 76.6653 37.1584 76.4877 36.8822 76.4877H36.7901C36.8591 75.9551 36.9167 75.4224 36.9858 74.8897C36.9858 74.6995 37.0548 74.4965 37.0779 74.2936C37.0899 74.1433 37.0725 73.9919 37.0269 73.8497C36.9812 73.7074 36.9083 73.5777 36.8131 73.4692C36.7289 73.3829 36.6286 73.3178 36.5193 73.2784C36.41 73.239 36.2942 73.2262 36.18 73.2409C36.1304 73.2308 36.0833 73.2092 36.0418 73.1775C36.272 72.7082 36.272 72.7082 35.9152 72.1755H35.8691Z" fill="#7C533D"/>
</g>
<g clip-path="url(#clip3_117_198473)">
<path d="M34.4133 25.4137C34.2176 25.2488 34.068 25.0205 33.7341 25.1474C33.1471 25.3503 32.7557 25.1093 32.4103 24.4879C32.2771 24.08 32.091 23.6955 31.8578 23.3464C31.779 23.2586 31.7349 23.1401 31.7349 23.0166C31.7349 22.8932 31.779 22.7747 31.8578 22.6869C31.9311 22.602 31.9784 22.4939 31.9929 22.3778C32.0073 22.2617 31.9882 22.1435 31.9383 22.0401C31.8695 21.8987 31.8333 21.7409 31.833 21.5805C31.8327 21.4201 31.8683 21.2621 31.9365 21.1204C32.0048 20.9787 32.1037 20.8578 32.2245 20.7682C32.3453 20.6786 32.4842 20.6232 32.629 20.6069C32.9351 20.5653 33.2173 20.4031 33.4233 20.1503C33.5123 20.0218 33.639 19.9313 33.7817 19.8943C33.9245 19.8573 34.0745 19.8761 34.2061 19.9474C34.2969 19.9854 34.396 19.9924 34.4904 19.9675C34.5849 19.9427 34.6703 19.887 34.7357 19.8079C34.9214 19.5792 35.1813 19.4404 35.4593 19.4214C35.7372 19.4024 36.0107 19.5048 36.2207 19.7064C36.3272 19.7756 36.416 19.8737 36.4784 19.9913C36.5409 20.109 36.575 20.2423 36.5775 20.3786C36.5633 20.5005 36.5908 20.6239 36.6546 20.7247C36.7184 20.8256 36.8141 20.8966 36.9229 20.924C37.0854 20.9744 37.2255 21.0888 37.3167 21.2454C37.4079 21.4019 37.4439 21.5899 37.4179 21.7737C37.4179 22.0908 37.4179 22.4205 37.4179 22.7503C37.4179 23.0801 37.4179 23.1435 36.8308 23.1815C36.2437 23.2196 35.9329 23.4479 36.1055 22.6615C36.1039 22.6482 36.1047 22.6346 36.1079 22.6216C36.1111 22.6086 36.1166 22.5965 36.1241 22.5859C36.1316 22.5752 36.141 22.5664 36.1516 22.5597C36.1623 22.5531 36.174 22.5489 36.1861 22.5474C36.1055 22.5474 36.1861 22.6742 36.1055 22.7249C35.9674 23.2703 35.599 23.7142 35.5069 24.2722C35.5069 24.4244 35.3573 24.6401 35.1501 24.5893C35.0692 24.5579 35.0008 24.4964 34.9566 24.4153C34.9125 24.3343 34.8954 24.2388 34.9083 24.1454C34.891 23.6754 34.9376 23.2051 35.0465 22.7503C35.1581 22.5477 35.2227 22.3179 35.2348 22.0813C35.2468 21.8446 35.2059 21.6083 35.1155 21.3932C34.54 21.9005 35.0465 22.5854 34.9659 23.2196C34.9659 23.4479 34.9659 23.7649 34.7357 23.841C34.5054 23.9171 34.2522 23.6254 34.2291 23.3718C34.2061 23.1181 33.7687 23.0927 33.596 22.8898C33.5269 22.8898 33.5384 22.763 33.4464 22.7757C33.5043 22.7843 33.5575 22.8159 33.596 22.8644C33.8562 23.2303 34.1328 23.5817 34.4248 23.9171C34.5383 23.9984 34.6314 24.1099 34.6954 24.2413C34.7595 24.3727 34.7924 24.5198 34.7913 24.6689C34.7901 24.818 34.7549 24.9644 34.6889 25.0946C34.6228 25.2248 34.528 25.3345 34.4133 25.4137Z" fill="#40AC4B"/>
<path d="M33.3311 22.7122H33.5037C33.9066 22.839 33.9066 22.839 34.1599 22.5092C34.2489 22.9551 34.4004 23.383 34.6088 23.7775C34.6933 23.514 34.7286 23.2344 34.7128 22.9555C34.697 22.6766 34.6303 22.404 34.5168 22.1541C34.3556 21.8244 34.3786 21.761 34.724 21.6722C35.0693 21.5834 34.9542 21.2917 35.0693 20.9746C35.0693 21.1649 35.0693 21.2536 35.0693 21.3297C35.0693 21.761 35.0693 21.761 35.6449 21.6722C35.6449 21.8751 35.4837 21.9512 35.4262 22.0907C35.3686 22.2302 35.2995 22.357 35.2535 22.4966C35.2163 22.65 35.1931 22.8073 35.1844 22.9658C35.1733 23.1093 35.1733 23.2536 35.1844 23.397C35.1844 23.5746 35.1844 23.7522 35.1844 23.9297C35.1844 24.1073 35.1844 24.2214 35.1844 24.3863C35.5413 24.0566 35.5413 24.0566 35.4262 23.5619C35.2535 23.359 35.1844 23.2195 35.5183 23.2195C35.8521 23.2195 35.7485 23.0673 35.8176 22.9278C35.8866 22.7883 35.9557 22.5346 36.1629 22.4458V22.6995C36.1629 23.0927 36.1629 23.0927 36.6004 23.0673C36.6004 23.0673 36.727 23.0673 36.7961 23.1688C36.1489 23.591 35.6193 24.2008 35.265 24.9317C35.1853 25.0856 35.1492 25.2623 35.1614 25.439C35.1614 25.68 35.1614 25.9083 35.1614 26.1492C35.1614 26.3902 35.4147 26.7453 35.1614 26.9736C34.9081 27.2019 34.6204 27.0244 34.3441 27.0244H34.252C34.3211 26.4917 34.3786 25.959 34.4477 25.4263C34.4477 25.2361 34.5168 25.0331 34.5398 24.8302C34.5518 24.6799 34.5344 24.5285 34.4888 24.3863C34.4431 24.2441 34.3702 24.1143 34.275 24.0058C34.1908 23.9195 34.0905 23.8544 33.9812 23.815C33.8719 23.7756 33.7561 23.7628 33.6419 23.7775C33.5923 23.7674 33.5452 23.7458 33.5037 23.7141C33.734 23.2449 33.734 23.2449 33.3771 22.7122H33.3311Z" fill="#7C533D"/>
</g>
<g clip-path="url(#clip4_117_198473)">
<path d="M34.4133 15.2672C34.2176 15.1023 34.068 14.8741 33.7341 15.0009C33.1471 15.2038 32.7557 14.9628 32.4103 14.3414C32.2771 13.9335 32.091 13.549 31.8578 13.1999C31.779 13.1121 31.7349 12.9936 31.7349 12.8702C31.7349 12.7467 31.779 12.6282 31.8578 12.5404C31.9311 12.4556 31.9784 12.3474 31.9929 12.2313C32.0073 12.1152 31.9882 11.997 31.9383 11.8936C31.8695 11.7522 31.8333 11.5944 31.833 11.434C31.8327 11.2736 31.8683 11.1156 31.9365 10.9739C32.0048 10.8322 32.1037 10.7113 32.2245 10.6217C32.3453 10.5322 32.4842 10.4768 32.629 10.4604C32.9351 10.4188 33.2173 10.2566 33.4233 10.0038C33.5123 9.87533 33.639 9.78485 33.7817 9.74784C33.9245 9.71083 34.0745 9.72958 34.2061 9.80088C34.2969 9.83891 34.396 9.84594 34.4904 9.82106C34.5849 9.79617 34.6703 9.74053 34.7357 9.66137C34.9214 9.43276 35.1813 9.29393 35.4593 9.27494C35.7372 9.25595 36.0107 9.35833 36.2207 9.55991C36.3272 9.62911 36.416 9.72721 36.4784 9.84487C36.5409 9.96252 36.575 10.0958 36.5775 10.2321C36.5633 10.354 36.5908 10.4774 36.6546 10.5783C36.7184 10.6791 36.8141 10.7501 36.9229 10.7775C37.0854 10.828 37.2255 10.9423 37.3167 11.0989C37.4079 11.2554 37.4439 11.4434 37.4179 11.6272C37.4179 11.9443 37.4179 12.2741 37.4179 12.6038C37.4179 12.9336 37.4179 12.997 36.8308 13.035C36.2437 13.0731 35.9329 13.3014 36.1055 12.515C36.1039 12.5017 36.1047 12.4881 36.1079 12.4751C36.1111 12.4621 36.1166 12.45 36.1241 12.4394C36.1316 12.4287 36.141 12.4199 36.1516 12.4133C36.1623 12.4067 36.174 12.4024 36.1861 12.4009C36.1055 12.4009 36.1861 12.5277 36.1055 12.5784C35.9674 13.1238 35.599 13.5677 35.5069 14.1258C35.5069 14.278 35.3573 14.4936 35.1501 14.4428C35.0692 14.4114 35.0008 14.3499 34.9566 14.2689C34.9125 14.1878 34.8954 14.0924 34.9083 13.9989C34.891 13.5289 34.9376 13.0587 35.0465 12.6038C35.1581 12.4012 35.2227 12.1714 35.2348 11.9348C35.2468 11.6981 35.2059 11.4618 35.1155 11.2467C34.54 11.7541 35.0465 12.4389 34.9659 13.0731C34.9659 13.3014 34.9659 13.6184 34.7357 13.6945C34.5054 13.7706 34.2522 13.4789 34.2291 13.2253C34.2061 12.9716 33.7687 12.9462 33.596 12.7433C33.5269 12.7433 33.5384 12.6165 33.4464 12.6292C33.5043 12.6378 33.5575 12.6694 33.596 12.718C33.8562 13.0838 34.1328 13.4352 34.4248 13.7706C34.5383 13.852 34.6314 13.9634 34.6954 14.0948C34.7595 14.2262 34.7924 14.3733 34.7913 14.5224C34.7901 14.6715 34.7549 14.818 34.6889 14.9481C34.6228 15.0783 34.528 15.188 34.4133 15.2672Z" fill="#A6C866"/>
<path d="M33.3311 12.5659H33.5037C33.9066 12.6928 33.9066 12.6928 34.1599 12.363C34.2489 12.8089 34.4004 13.2367 34.6088 13.6313C34.6933 13.3678 34.7286 13.0882 34.7128 12.8093C34.697 12.5303 34.6303 12.2578 34.5168 12.0079C34.3556 11.6781 34.3786 11.6147 34.724 11.5259C35.0693 11.4371 34.9542 11.1454 35.0693 10.8284C35.0693 11.0186 35.0693 11.1074 35.0693 11.1835C35.0693 11.6147 35.0693 11.6147 35.6449 11.5259C35.6449 11.7289 35.4837 11.805 35.4262 11.9445C35.3686 12.084 35.2995 12.2108 35.2535 12.3503C35.2163 12.5038 35.1931 12.661 35.1844 12.8196C35.1733 12.9631 35.1733 13.1073 35.1844 13.2508C35.1844 13.4284 35.1844 13.6059 35.1844 13.7835C35.1844 13.9611 35.1844 14.0752 35.1844 14.2401C35.5413 13.9103 35.5413 13.9103 35.4262 13.4157C35.2535 13.2128 35.1844 13.0732 35.5183 13.0732C35.8521 13.0732 35.7485 12.9211 35.8176 12.7815C35.8866 12.642 35.9557 12.3884 36.1629 12.2996V12.5532C36.1629 12.9464 36.1629 12.9464 36.6004 12.9211C36.6004 12.9211 36.727 12.9211 36.7961 13.0225C36.1489 13.4447 35.6193 14.0545 35.265 14.7854C35.1853 14.9394 35.1492 15.1161 35.1614 15.2928C35.1614 15.5337 35.1614 15.762 35.1614 16.003C35.1614 16.244 35.4147 16.5991 35.1614 16.8274C34.9081 17.0557 34.6204 16.8781 34.3441 16.8781H34.252C34.3211 16.3454 34.3786 15.8128 34.4477 15.2801C34.4477 15.0898 34.5168 14.8869 34.5398 14.684C34.5518 14.5337 34.5344 14.3823 34.4888 14.2401C34.4431 14.0978 34.3702 13.9681 34.275 13.8596C34.1908 13.7733 34.0905 13.7082 33.9812 13.6688C33.8719 13.6294 33.7561 13.6166 33.6419 13.6313C33.5923 13.6212 33.5452 13.5995 33.5037 13.5679C33.734 13.0986 33.734 13.0986 33.3771 12.5659H33.3311Z" fill="#7C533D"/>
</g>
<g clip-path="url(#clip5_117_198473)">
<path d="M35.6824 35.5599C35.4867 35.3951 35.337 35.1668 35.0032 35.2936C34.4161 35.4965 34.0247 35.2556 33.6794 34.6341C33.5461 34.2262 33.36 33.8417 33.1268 33.4926C33.0481 33.4048 33.0039 33.2863 33.0039 33.1629C33.0039 33.0394 33.0481 32.921 33.1268 32.8331C33.2002 32.7483 33.2474 32.6401 33.2619 32.524C33.2764 32.4079 33.2573 32.2898 33.2074 32.1863C33.1386 32.0449 33.1024 31.8871 33.1021 31.7267C33.1018 31.5663 33.1373 31.4083 33.2056 31.2666C33.2739 31.125 33.3728 31.004 33.4935 30.9144C33.6143 30.8249 33.7532 30.7695 33.8981 30.7531C34.2042 30.7115 34.4863 30.5494 34.6924 30.2965C34.7813 30.1681 34.908 30.0776 35.0508 30.0406C35.1935 30.0036 35.3435 30.0223 35.4752 30.0936C35.5659 30.1316 35.665 30.1387 35.7595 30.1138C35.8539 30.0889 35.9394 30.0333 36.0047 29.9541C36.1904 29.7255 36.4504 29.5867 36.7283 29.5677C37.0062 29.5487 37.2798 29.6511 37.4897 29.8526C37.5963 29.9218 37.685 30.0199 37.7475 30.1376C37.81 30.2552 37.8441 30.3886 37.8466 30.5248C37.8323 30.6468 37.8598 30.7702 37.9236 30.871C37.9875 30.9718 38.0831 31.0428 38.1919 31.0702C38.3544 31.1207 38.4945 31.235 38.5858 31.3916C38.677 31.5482 38.7129 31.7361 38.6869 31.9199C38.6869 32.237 38.6869 32.5668 38.6869 32.8965C38.6869 33.2263 38.6869 33.2897 38.0998 33.3278C37.5127 33.3658 37.2019 33.5941 37.3746 32.8078C37.373 32.7944 37.3738 32.7809 37.377 32.7679C37.3802 32.7549 37.3857 32.7427 37.3932 32.7321C37.4007 32.7215 37.41 32.7126 37.4207 32.706C37.4313 32.6994 37.443 32.6952 37.4552 32.6936C37.3746 32.6936 37.4552 32.8204 37.3746 32.8712C37.2364 33.4165 36.8681 33.8604 36.776 34.4185C36.776 34.5707 36.6263 34.7863 36.4191 34.7356C36.3382 34.7042 36.2698 34.6426 36.2257 34.5616C36.1815 34.4805 36.1645 34.3851 36.1774 34.2917C36.16 33.8216 36.2066 33.3514 36.3155 32.8965C36.4271 32.6939 36.4918 32.4641 36.5038 32.2275C36.5159 31.9909 36.4749 31.7546 36.3846 31.5395C35.809 32.0468 36.3155 32.7317 36.2349 33.3658C36.2349 33.5941 36.2349 33.9112 36.0047 33.9873C35.7745 34.0634 35.5212 33.7717 35.4982 33.518C35.4752 33.2643 35.0377 33.239 34.865 33.036C34.796 33.036 34.8075 32.9092 34.7154 32.9219C34.7734 32.9306 34.8266 32.9621 34.865 33.0107C35.1252 33.3766 35.4019 33.7279 35.6939 34.0634C35.8074 34.1447 35.9004 34.2562 35.9645 34.3876C36.0285 34.519 36.0615 34.666 36.0603 34.8151C36.0592 34.9643 36.024 35.1107 35.9579 35.2408C35.8918 35.371 35.7971 35.4808 35.6824 35.5599Z" fill="#A6C866"/>
<path d="M34.6001 32.8587H34.7728C35.1757 32.9855 35.1757 32.9855 35.4289 32.6557C35.518 33.1016 35.6694 33.5295 35.8779 33.924C35.9623 33.6605 35.9977 33.3809 35.9818 33.102C35.966 32.8231 35.8993 32.5505 35.7858 32.3006C35.6246 31.9709 35.6477 31.9074 35.993 31.8187C36.3384 31.7299 36.2232 31.4382 36.3384 31.1211C36.3384 31.3113 36.3384 31.4001 36.3384 31.4762C36.3384 31.9074 36.3384 31.9074 36.9139 31.8187C36.9139 32.0216 36.7528 32.0977 36.6952 32.2372C36.6377 32.3767 36.5686 32.5035 36.5225 32.643C36.4853 32.7965 36.4622 32.9537 36.4535 33.1123C36.4424 33.2558 36.4424 33.4001 36.4535 33.5435C36.4535 33.7211 36.4535 33.8987 36.4535 34.0762C36.4535 34.2538 36.4535 34.3679 36.4535 34.5328C36.8103 34.203 36.8103 34.203 36.6952 33.7084C36.5225 33.5055 36.4535 33.366 36.7873 33.366C37.1211 33.366 37.0175 33.2138 37.0866 33.0743C37.1557 32.9348 37.2247 32.6811 37.432 32.5923V32.846C37.432 33.2391 37.432 33.2391 37.8694 33.2138C37.8694 33.2138 37.996 33.2138 38.0651 33.3152C37.4179 33.7375 36.8884 34.3472 36.5341 35.0782C36.4543 35.2321 36.4182 35.4088 36.4304 35.5855C36.4304 35.8265 36.4304 36.0548 36.4304 36.2957C36.4304 36.5367 36.6837 36.8918 36.4304 37.1201C36.1772 37.3484 35.8894 37.1709 35.6131 37.1709H35.521C35.5901 36.6382 35.6477 36.1055 35.7167 35.5728C35.7167 35.3826 35.7858 35.1796 35.8088 34.9767C35.8209 34.8264 35.8035 34.675 35.7578 34.5328C35.7121 34.3905 35.6392 34.2608 35.5441 34.1523C35.4598 34.066 35.3596 34.0009 35.2503 33.9615C35.1409 33.9221 35.0252 33.9093 34.9109 33.924C34.8613 33.9139 34.8142 33.8923 34.7728 33.8606C35.003 33.3913 35.003 33.3913 34.6461 32.8587H34.6001Z" fill="#7C533D"/>
</g>
<g clip-path="url(#clip6_117_198473)">
<path d="M36.9514 63.4623C36.7557 63.2974 36.6061 63.0691 36.2722 63.196C35.6851 63.3989 35.2937 63.1579 34.9484 62.5364C34.8152 62.1286 34.6291 61.7441 34.3958 61.395C34.3171 61.3071 34.2729 61.1887 34.2729 61.0652C34.2729 60.9418 34.3171 60.8233 34.3958 60.7355C34.4692 60.6506 34.5165 60.5425 34.5309 60.4264C34.5454 60.3103 34.5263 60.1921 34.4764 60.0886C34.4076 59.9473 34.3714 59.7894 34.3711 59.6291C34.3708 59.4687 34.4064 59.3106 34.4746 59.169C34.5429 59.0273 34.6418 58.9063 34.7626 58.8168C34.8834 58.7272 35.0223 58.6718 35.1671 58.6555C35.4732 58.6139 35.7553 58.4517 35.9614 58.1989C36.0504 58.0704 36.177 57.9799 36.3198 57.9429C36.4626 57.9059 36.6126 57.9246 36.7442 57.996C36.835 58.034 36.934 58.041 37.0285 58.0161C37.1229 57.9912 37.2084 57.9356 37.2737 57.8564C37.4595 57.6278 37.7194 57.489 37.9973 57.47C38.2753 57.451 38.5488 57.5534 38.7587 57.755C38.8653 57.8242 38.9541 57.9223 39.0165 58.0399C39.079 58.1576 39.1131 58.2909 39.1156 58.4272C39.1014 58.5491 39.1288 58.6725 39.1927 58.7733C39.2565 58.8742 39.3522 58.9452 39.461 58.9725C39.6235 59.023 39.7636 59.1374 39.8548 59.2939C39.946 59.4505 39.982 59.6385 39.956 59.8223C39.956 60.1394 39.956 60.4691 39.956 60.7989C39.956 61.1286 39.956 61.192 39.3689 61.2301C38.7818 61.2681 38.471 61.4964 38.6436 60.7101C38.642 60.6968 38.6428 60.6832 38.646 60.6702C38.6492 60.6572 38.6547 60.6451 38.6622 60.6344C38.6697 60.6238 38.6791 60.6149 38.6897 60.6083C38.7003 60.6017 38.7121 60.5975 38.7242 60.596C38.6436 60.596 38.7242 60.7228 38.6436 60.7735C38.5055 61.3189 38.1371 61.7628 38.045 62.3208C38.045 62.473 37.8954 62.6886 37.6882 62.6379C37.6073 62.6065 37.5388 62.545 37.4947 62.4639C37.4506 62.3829 37.4335 62.2874 37.4464 62.194C37.4291 61.724 37.4756 61.2537 37.5846 60.7989C37.6961 60.5962 37.7608 60.3665 37.7729 60.1298C37.7849 59.8932 37.744 59.6569 37.6536 59.4418C37.078 59.9491 37.5846 60.634 37.504 61.2681C37.504 61.4964 37.504 61.8135 37.2737 61.8896C37.0435 61.9657 36.7903 61.674 36.7672 61.4203C36.7442 61.1667 36.3068 61.1413 36.1341 60.9384C36.065 60.9384 36.0765 60.8116 35.9844 60.8242C36.0424 60.8329 36.0956 60.8644 36.1341 60.913C36.3943 61.2789 36.6709 61.6302 36.9629 61.9657C37.0764 62.047 37.1695 62.1585 37.2335 62.2899C37.2976 62.4213 37.3305 62.5683 37.3294 62.7175C37.3282 62.8666 37.293 63.013 37.2269 63.1432C37.1609 63.2734 37.0661 63.3831 36.9514 63.4623Z" fill="#A6C866"/>
<path d="M35.8691 60.761H36.0418C36.4447 60.8878 36.4447 60.8878 36.698 60.5581C36.787 61.0039 36.9385 61.4318 37.1469 61.8264C37.2314 61.5628 37.2667 61.2833 37.2509 61.0043C37.2351 60.7254 37.1684 60.4529 37.0548 60.2029C36.8937 59.8732 36.9167 59.8098 37.262 59.721C37.6074 59.6322 37.4923 59.3405 37.6074 59.0234C37.6074 59.2137 37.6074 59.3025 37.6074 59.3786C37.6074 59.8098 37.6074 59.8098 38.183 59.721C38.183 59.9239 38.0218 60 37.9643 60.1395C37.9067 60.279 37.8376 60.4059 37.7916 60.5454C37.7544 60.6989 37.7312 60.8561 37.7225 61.0147C37.7114 61.1581 37.7114 61.3024 37.7225 61.4459C37.7225 61.6234 37.7225 61.801 37.7225 61.9786C37.7225 62.1561 37.7225 62.2703 37.7225 62.4351C38.0794 62.1054 38.0794 62.1054 37.9643 61.6108C37.7916 61.4078 37.7225 61.2683 38.0563 61.2683C38.3902 61.2683 38.2866 61.1161 38.3557 60.9766C38.4247 60.8371 38.4938 60.5834 38.701 60.4947V60.7483C38.701 61.1415 38.701 61.1415 39.1384 61.1161C39.1384 61.1161 39.2651 61.1161 39.3341 61.2176C38.687 61.6398 38.1574 62.2496 37.8031 62.9805C37.7234 63.1344 37.6873 63.3111 37.6995 63.4878C37.6995 63.7288 37.6995 63.9571 37.6995 64.1981C37.6995 64.439 37.9527 64.7942 37.6995 65.0225C37.4462 65.2508 37.1584 65.0732 36.8822 65.0732H36.7901C36.8591 64.5405 36.9167 64.0078 36.9858 63.4751C36.9858 63.2849 37.0548 63.082 37.0779 62.879C37.0899 62.7288 37.0725 62.5774 37.0269 62.4351C36.9812 62.2929 36.9083 62.1631 36.8131 62.0547C36.7289 61.9684 36.6286 61.9033 36.5193 61.8638C36.41 61.8244 36.2942 61.8116 36.18 61.8264C36.1304 61.8162 36.0833 61.7946 36.0418 61.763C36.272 61.2937 36.272 61.2937 35.9152 60.761H35.8691Z" fill="#7C533D"/>
</g>
<g clip-path="url(#clip7_117_198473)">
<path d="M36.9514 87.5599C36.7557 87.3951 36.6061 87.1668 36.2722 87.2936C35.6851 87.4965 35.2937 87.2556 34.9484 86.6341C34.8152 86.2262 34.6291 85.8417 34.3958 85.4926C34.3171 85.4048 34.2729 85.2863 34.2729 85.1629C34.2729 85.0394 34.3171 84.921 34.3958 84.8331C34.4692 84.7483 34.5165 84.6401 34.5309 84.524C34.5454 84.4079 34.5263 84.2898 34.4764 84.1863C34.4076 84.0449 34.3714 83.8871 34.3711 83.7267C34.3708 83.5663 34.4064 83.4083 34.4746 83.2666C34.5429 83.125 34.6418 83.004 34.7626 82.9144C34.8834 82.8249 35.0223 82.7695 35.1671 82.7531C35.4732 82.7115 35.7553 82.5494 35.9614 82.2965C36.0504 82.1681 36.177 82.0776 36.3198 82.0406C36.4626 82.0036 36.6126 82.0223 36.7442 82.0936C36.835 82.1316 36.934 82.1387 37.0285 82.1138C37.1229 82.0889 37.2084 82.0333 37.2737 81.9541C37.4595 81.7255 37.7194 81.5867 37.9973 81.5677C38.2753 81.5487 38.5488 81.6511 38.7587 81.8526C38.8653 81.9218 38.9541 82.0199 39.0165 82.1376C39.079 82.2552 39.1131 82.3886 39.1156 82.5248C39.1014 82.6468 39.1288 82.7702 39.1927 82.871C39.2565 82.9718 39.3522 83.0428 39.461 83.0702C39.6235 83.1207 39.7636 83.235 39.8548 83.3916C39.946 83.5482 39.982 83.7361 39.956 83.9199C39.956 84.237 39.956 84.5668 39.956 84.8965C39.956 85.2263 39.956 85.2897 39.3689 85.3278C38.7818 85.3658 38.471 85.5941 38.6436 84.8078C38.642 84.7944 38.6428 84.7809 38.646 84.7679C38.6492 84.7549 38.6547 84.7427 38.6622 84.7321C38.6697 84.7215 38.6791 84.7126 38.6897 84.706C38.7003 84.6994 38.7121 84.6952 38.7242 84.6936C38.6436 84.6936 38.7242 84.8204 38.6436 84.8712C38.5055 85.4165 38.1371 85.8604 38.045 86.4185C38.045 86.5707 37.8954 86.7863 37.6882 86.7356C37.6073 86.7042 37.5388 86.6426 37.4947 86.5616C37.4506 86.4805 37.4335 86.3851 37.4464 86.2917C37.4291 85.8216 37.4756 85.3514 37.5846 84.8965C37.6961 84.6939 37.7608 84.4641 37.7729 84.2275C37.7849 83.9909 37.744 83.7546 37.6536 83.5395C37.078 84.0468 37.5846 84.7317 37.504 85.3658C37.504 85.5941 37.504 85.9112 37.2737 85.9873C37.0435 86.0634 36.7903 85.7717 36.7672 85.518C36.7442 85.2643 36.3068 85.239 36.1341 85.036C36.065 85.036 36.0765 84.9092 35.9844 84.9219C36.0424 84.9306 36.0956 84.9621 36.1341 85.0107C36.3943 85.3766 36.6709 85.7279 36.9629 86.0634C37.0764 86.1447 37.1695 86.2562 37.2335 86.3876C37.2976 86.519 37.3305 86.666 37.3294 86.8151C37.3282 86.9643 37.293 87.1107 37.2269 87.2408C37.1609 87.371 37.0661 87.4808 36.9514 87.5599Z" fill="#A6C866"/>
<path d="M35.8691 84.8587H36.0418C36.4447 84.9855 36.4447 84.9855 36.698 84.6557C36.787 85.1016 36.9385 85.5295 37.1469 85.924C37.2314 85.6605 37.2667 85.3809 37.2509 85.102C37.2351 84.8231 37.1684 84.5505 37.0548 84.3006C36.8937 83.9709 36.9167 83.9074 37.262 83.8187C37.6074 83.7299 37.4923 83.4382 37.6074 83.1211C37.6074 83.3113 37.6074 83.4001 37.6074 83.4762C37.6074 83.9074 37.6074 83.9074 38.183 83.8187C38.183 84.0216 38.0218 84.0977 37.9643 84.2372C37.9067 84.3767 37.8376 84.5035 37.7916 84.643C37.7544 84.7965 37.7312 84.9537 37.7225 85.1123C37.7114 85.2558 37.7114 85.4001 37.7225 85.5435C37.7225 85.7211 37.7225 85.8987 37.7225 86.0762C37.7225 86.2538 37.7225 86.3679 37.7225 86.5328C38.0794 86.203 38.0794 86.203 37.9643 85.7084C37.7916 85.5055 37.7225 85.366 38.0563 85.366C38.3902 85.366 38.2866 85.2138 38.3557 85.0743C38.4247 84.9348 38.4938 84.6811 38.701 84.5923V84.846C38.701 85.2391 38.701 85.2391 39.1384 85.2138C39.1384 85.2138 39.2651 85.2138 39.3341 85.3152C38.687 85.7375 38.1574 86.3472 37.8031 87.0782C37.7234 87.2321 37.6873 87.4088 37.6995 87.5855C37.6995 87.8265 37.6995 88.0548 37.6995 88.2957C37.6995 88.5367 37.9527 88.8918 37.6995 89.1201C37.4462 89.3484 37.1584 89.1709 36.8822 89.1709H36.7901C36.8591 88.6382 36.9167 88.1055 36.9858 87.5728C36.9858 87.3826 37.0548 87.1796 37.0779 86.9767C37.0899 86.8264 37.0725 86.675 37.0269 86.5328C36.9812 86.3905 36.9083 86.2608 36.8131 86.1523C36.7289 86.066 36.6286 86.0009 36.5193 85.9615C36.41 85.9221 36.2942 85.9093 36.18 85.924C36.1304 85.9139 36.0833 85.8923 36.0418 85.8606C36.272 85.3913 36.272 85.3913 35.9152 84.8587H35.8691Z" fill="#7C533D"/>
</g>
<defs>
<clipPath id="clip0_117_198473">
<rect width="69" height="40" fill="white" transform="translate(77 44)"/>
</clipPath>
<clipPath id="clip1_117_198473">
<rect width="5.68674" height="7.67317" fill="white" transform="translate(33 48.5854)"/>
</clipPath>
<clipPath id="clip2_117_198473">
<rect width="5.68674" height="7.67317" fill="white" transform="translate(34.269 68.8779)"/>
</clipPath>
<clipPath id="clip3_117_198473">
<rect width="5.68674" height="7.67317" fill="white" transform="translate(31.731 19.4146)"/>
</clipPath>
<clipPath id="clip4_117_198473">
<rect width="5.68674" height="7.67317" fill="white" transform="translate(31.731 9.26831)"/>
</clipPath>
<clipPath id="clip5_117_198473">
<rect width="5.68674" height="7.67317" fill="white" transform="translate(33 29.561)"/>
</clipPath>
<clipPath id="clip6_117_198473">
<rect width="5.68674" height="7.67317" fill="white" transform="translate(34.269 57.4634)"/>
</clipPath>
<clipPath id="clip7_117_198473">
<rect width="5.68674" height="7.67317" fill="white" transform="translate(34.269 81.561)"/>
</clipPath>
</defs>
</svg>
