<svg width="375" height="107" viewBox="0 0 375 107" fill="none" xmlns="http://www.w3.org/2000/svg">
<path opacity="0.7" d="M0 81C28.3849 47.5777 61.3222 24.0357 96.3123 19.0222C104.455 17.8554 112.89 17.2535 120.977 19.6514C129.381 22.1434 136.606 27.3347 144.205 33.3368C152.881 40.1896 161.834 46.0451 171.001 50.8763C176.627 53.8413 182.335 56.7489 188.075 59.0561C202.755 64.9567 217.844 66.5678 232.902 67.4718C262.265 69.2347 291.819 69.7776 320.762 60.5111C330.668 57.3395 340.436 53.3838 349.904 47.5729C358.907 42.0473 366.718 34.2415 375 26.4941" stroke="#8DD1B4" stroke-width="21" stroke-linecap="round"/>
<path d="M0 103C28.3849 69.5777 61.3222 46.0357 96.3123 41.0222C104.455 39.8554 112.89 39.2535 120.977 41.6514C129.381 44.1434 136.606 49.3347 144.205 55.3368C152.881 62.1896 161.834 68.0451 171.001 72.8763C176.627 75.8413 182.335 78.7489 188.075 81.0561C202.755 86.9567 217.844 88.5678 232.902 89.4718C262.265 91.2347 291.819 91.7776 320.762 82.5111C330.668 79.3395 340.436 75.3838 349.904 69.5729C358.907 64.0473 366.718 56.2415 375 48.4941" stroke="#8DD1B4" stroke-width="8" stroke-linecap="round"/>
<path opacity="0.45" d="M0 65C28.3849 31.5777 61.3222 8.03567 96.3123 3.02216C104.455 1.85542 112.89 1.25346 120.977 3.65137C129.381 6.14345 136.606 11.3347 144.205 17.3368C152.881 24.1896 161.834 30.0451 171.001 34.8763C176.627 37.8413 182.335 40.7489 188.075 43.0561C202.755 48.9567 217.844 50.5678 232.902 51.4718C262.265 53.2347 291.819 53.7776 320.762 44.5111C330.668 41.3395 340.436 37.3838 349.904 31.5729C358.907 26.0473 366.718 18.2415 375 10.4941" stroke="#8DD1B4" stroke-width="3" stroke-linecap="round"/>
</svg>
