<svg width="10" height="10" viewBox="0 0 10 10" fill="none" xmlns="http://www.w3.org/2000/svg">
<g clip-path="url(#clip0_407_8452)">
<path d="M4.99704 9.99997C4.35641 9.99997 3.73141 9.87985 3.13962 9.64255C2.54001 9.40231 1.99802 9.05173 1.53024 8.60056C1.06344 8.15036 0.693328 7.62302 0.430632 7.0322C0.158171 6.42087 0.0136402 5.76852 0.000944901 5.09372C-0.0117504 4.41892 0.108367 3.76169 0.35739 3.1406C0.597625 2.54099 0.948211 1.99899 1.39938 1.53122C1.84958 1.06345 2.37692 0.69333 2.96774 0.430634C3.57907 0.158173 4.23141 0.0136421 4.90622 0.000946808C5.58102 -0.0117485 6.23825 0.108369 6.85934 0.357392C7.45895 0.597626 8.00095 0.948212 8.46872 1.39938C8.93649 1.84958 9.30661 2.3779 9.5693 2.96872C9.84177 3.58005 9.9863 4.23239 9.99899 4.9072C10.0117 5.582 9.89157 6.23923 9.64255 6.86032C9.40231 7.45993 9.05173 8.00192 8.60055 8.4697C8.15036 8.93747 7.62204 9.30759 7.03122 9.57028C6.41989 9.84274 5.76755 9.98728 5.09274 9.99997H4.99704ZM5.0029 0.536103C4.97458 0.536103 4.94528 0.536103 4.91696 0.53708C4.31442 0.548798 3.73239 0.677705 3.18649 0.919892C2.65915 1.15427 2.18844 1.48532 1.7861 1.90329C1.38376 2.32126 1.07126 2.80466 0.856414 3.33981C0.632781 3.8945 0.526335 4.48044 0.537078 5.08395C0.548796 5.68649 0.677703 6.26852 0.91989 6.81442C1.15427 7.34177 1.48532 7.81247 1.90329 8.21481C2.32126 8.61716 2.80466 8.92966 3.33981 9.1445C3.8945 9.36716 4.48044 9.4736 5.08298 9.46286C5.68551 9.45114 6.26755 9.32224 6.81345 9.08005C7.34079 8.84567 7.81149 8.51462 8.21383 8.09665C8.61618 7.67868 8.92868 7.19528 9.14352 6.66013C9.36618 6.10544 9.47262 5.5195 9.46188 4.91696C9.45016 4.31442 9.32126 3.73239 9.07907 3.18649C8.8447 2.65915 8.51364 2.18845 8.09567 1.7861C7.6777 1.38376 7.1943 1.07126 6.65915 0.856416C6.1318 0.643525 5.57516 0.536103 5.0029 0.536103Z" fill="black"/>
<path d="M5 7.74707C4.94629 7.74707 4.89941 7.73926 4.85352 7.72363C4.80762 7.7002 4.76074 7.66992 4.73047 7.63965C4.69141 7.60059 4.66113 7.5625 4.64551 7.5166C4.62207 7.46973 4.61426 7.41699 4.61426 7.3623C4.61426 7.2627 4.65234 7.16211 4.72949 7.09277C4.86816 6.94727 5.12109 6.94727 5.26758 7.09277C5.34473 7.16309 5.38281 7.2627 5.38281 7.3623C5.38281 7.41602 5.375 7.46973 5.35156 7.5166C5.33594 7.5625 5.30566 7.60059 5.2666 7.63965C5.2002 7.70898 5.10059 7.74707 5 7.74707ZM5 6.05664C4.85156 6.05664 4.73145 5.93652 4.73145 5.78809V2.63379C4.73145 2.48535 4.85156 2.36523 5 2.36523C5.14844 2.36523 5.26855 2.48535 5.26855 2.63379V5.78809C5.26855 5.93652 5.14844 6.05664 5 6.05664Z" fill="black"/>
</g>
<defs>
<clipPath id="clip0_407_8452">
<rect width="10" height="10" fill="white"/>
</clipPath>
</defs>
</svg>
