<svg width="65" height="5" viewBox="0 0 65 5" fill="none" xmlns="http://www.w3.org/2000/svg">
<path opacity="0.8" d="M1.43 0.43H1.79L3.22 4H2.885L2.47 2.935H0.75L0.335 4H0L1.43 0.43ZM0.85 2.675H2.37L1.62 0.76H1.605L0.85 2.675ZM3.58277 0.43H4.85277C5.40777 0.43 5.82777 0.595 6.10777 0.93C6.36277 1.23 6.49277 1.66 6.49277 2.215C6.49277 2.76 6.34777 3.19 6.06277 3.505C5.76277 3.835 5.33777 4 4.78777 4H3.58277V0.43ZM3.88777 0.7V3.73H4.74277C5.21777 3.73 5.58277 3.595 5.83277 3.325C6.07277 3.065 6.19277 2.695 6.19277 2.215C6.19277 1.715 6.08777 1.345 5.87777 1.1C5.64777 0.83 5.28777 0.7 4.80777 0.7H3.88777ZM7.07398 0.43H7.47898L8.87898 3.615H8.89398L10.284 0.43H10.689V4H10.384V0.935H10.369L9.02898 4H8.73398L7.39898 0.935H7.37898V4H7.07398V0.43ZM11.4647 0.43H11.7697V4H11.4647V0.43ZM12.5427 0.43H12.8877L15.0477 3.525H15.0627V0.43H15.3727V4H15.0327L12.8627 0.88H12.8477V4H12.5427V0.43ZM16.1473 0.43H16.4523V4H16.1473V0.43ZM18.3904 0.36C18.7804 0.36 19.0904 0.455 19.3204 0.645C19.5554 0.835 19.6904 1.115 19.7204 1.485H19.4154C19.3754 1.205 19.2704 0.995 19.1004 0.85C18.9304 0.705 18.6904 0.635 18.3804 0.635C18.0904 0.635 17.8654 0.685 17.7004 0.785C17.5104 0.895 17.4204 1.065 17.4204 1.29C17.4204 1.49 17.5304 1.645 17.7554 1.765C17.8604 1.815 18.0904 1.895 18.4404 1.995C18.8954 2.125 19.2004 2.235 19.3604 2.335C19.6554 2.51 19.8054 2.76 19.8054 3.085C19.8054 3.39 19.6754 3.635 19.4204 3.815C19.1754 3.985 18.8504 4.07 18.4454 4.07C18.0354 4.07 17.7104 3.975 17.4754 3.79C17.2054 3.575 17.0554 3.25 17.0254 2.82H17.3254C17.3604 3.155 17.4754 3.405 17.6754 3.57C17.8554 3.715 18.1104 3.79 18.4404 3.79C18.7554 3.79 19.0104 3.725 19.2054 3.605C19.3954 3.48 19.4954 3.31 19.4954 3.1C19.4954 2.855 19.3704 2.665 19.1304 2.53C19.0104 2.46 18.7504 2.365 18.3454 2.255C17.9204 2.135 17.6454 2.04 17.5254 1.97C17.2504 1.815 17.1154 1.59 17.1154 1.3C17.1154 0.99 17.2404 0.755 17.5004 0.59C17.7304 0.435 18.0304 0.36 18.3904 0.36ZM20.0607 0.43H22.9857V0.7H21.6757V4H21.3707V0.7H20.0607V0.43ZM23.4412 0.43H24.9512C25.3012 0.43 25.5812 0.51 25.7812 0.68C25.9812 0.85 26.0862 1.09 26.0862 1.41C26.0862 1.62 26.0262 1.8 25.9162 1.955C25.7962 2.115 25.6262 2.22 25.4112 2.27V2.28C25.7712 2.36 25.9712 2.58 26.0112 2.94L26.0612 3.475C26.0812 3.695 26.1362 3.87 26.2362 4H25.9012C25.8262 3.88 25.7812 3.715 25.7612 3.515L25.7162 3.025C25.6962 2.805 25.6112 2.645 25.4712 2.55C25.3412 2.46 25.1562 2.415 24.9262 2.415H23.7462V4H23.4412V0.43ZM23.7462 0.7V2.145H24.9212C25.2012 2.145 25.4162 2.075 25.5712 1.94C25.7112 1.81 25.7812 1.64 25.7812 1.42C25.7812 1.18 25.7112 1.005 25.5762 0.885C25.4362 0.76 25.2162 0.7 24.9162 0.7H23.7462ZM27.8314 0.43H28.1914L29.6214 4H29.2864L28.8714 2.935H27.1514L26.7364 4H26.4014L27.8314 0.43ZM27.2514 2.675H28.7714L28.0214 0.76H28.0064L27.2514 2.675ZM29.7091 0.43H32.6341V0.7H31.3241V4H31.0191V0.7H29.7091V0.43ZM33.1346 0.43H33.4396V4H33.1346V0.43ZM33.8727 0.43H34.2127L35.4077 3.675H35.4227L36.6177 0.43H36.9577L35.6127 4H35.2227L33.8727 0.43ZM37.3474 0.43H39.8524V0.7H37.6524V2.015H39.7324V2.29H37.6524V3.73H39.9374V4H37.3474V0.43ZM42.1814 0.43H43.7514C44.0714 0.43 44.3314 0.505 44.5214 0.665C44.7114 0.825 44.8064 1.045 44.8064 1.325C44.8064 1.53 44.7464 1.705 44.6314 1.85C44.5164 1.99 44.3664 2.085 44.1864 2.14C44.4214 2.18 44.6064 2.275 44.7464 2.425C44.8814 2.58 44.9514 2.775 44.9514 3.015C44.9514 3.355 44.8264 3.61 44.5864 3.78C44.3764 3.925 44.0914 4 43.7364 4H42.1814V0.43ZM42.4864 0.695V2.025H43.6864C43.9414 2.025 44.1414 1.965 44.2814 1.855C44.4264 1.74 44.5014 1.575 44.5014 1.355C44.5014 1.135 44.4264 0.965 44.2864 0.855C44.1414 0.745 43.9414 0.695 43.6914 0.695H42.4864ZM42.4864 2.285V3.735H43.7264C43.9914 3.735 44.2064 3.68 44.3664 3.575C44.5514 3.445 44.6464 3.26 44.6464 3.01C44.6464 2.765 44.5564 2.58 44.3864 2.46C44.2214 2.34 44.0014 2.285 43.7214 2.285H42.4864ZM45.531 0.43H45.836V2.62C45.836 3 45.916 3.29 46.086 3.485C46.266 3.69 46.541 3.795 46.921 3.795C47.301 3.795 47.576 3.69 47.756 3.485C47.921 3.29 48.006 3 48.006 2.62V0.43H48.311V2.62C48.311 3.085 48.196 3.44 47.976 3.685C47.741 3.94 47.391 4.07 46.921 4.07C46.451 4.07 46.101 3.94 45.871 3.69C45.641 3.44 45.531 3.085 45.531 2.62V0.43ZM49.0868 0.43H49.3918V4H49.0868V0.43ZM50.1648 0.43H50.4698V3.73H52.6148V4H50.1648V0.43ZM53.0945 0.43H54.3645C54.9195 0.43 55.3395 0.595 55.6195 0.93C55.8745 1.23 56.0045 1.66 56.0045 2.215C56.0045 2.76 55.8595 3.19 55.5745 3.505C55.2745 3.835 54.8495 4 54.2995 4H53.0945V0.43ZM53.3995 0.7V3.73H54.2545C54.7295 3.73 55.0945 3.595 55.3445 3.325C55.5845 3.065 55.7045 2.695 55.7045 2.215C55.7045 1.715 55.5995 1.345 55.3895 1.1C55.1595 0.83 54.7995 0.7 54.3195 0.7H53.3995ZM56.6307 0.43H56.9357V4H56.6307V0.43ZM57.7088 0.43H58.0538L60.2138 3.525H60.2288V0.43H60.5388V4H60.1988L58.0288 0.88H58.0138V4H57.7088V0.43ZM62.7783 0.36C63.2183 0.36 63.5683 0.47 63.8333 0.695C64.0783 0.905 64.2333 1.205 64.2983 1.585H63.9883C63.9333 1.295 63.8083 1.065 63.6083 0.9C63.3983 0.725 63.1183 0.64 62.7783 0.64C62.3583 0.64 62.0283 0.79 61.7833 1.09C61.5433 1.38 61.4233 1.76 61.4233 2.235C61.4233 2.7 61.5433 3.07 61.7833 3.345C62.0383 3.645 62.4033 3.795 62.8833 3.795C63.0933 3.795 63.2933 3.765 63.4933 3.705C63.6833 3.645 63.8483 3.575 63.9783 3.485V2.47H62.7583V2.2H64.2833V3.63C64.1183 3.76 63.9133 3.87 63.6683 3.95C63.4083 4.03 63.1383 4.07 62.8583 4.07C62.2983 4.07 61.8583 3.885 61.5483 3.525C61.2583 3.19 61.1183 2.76 61.1183 2.235C61.1183 1.705 61.2583 1.27 61.5433 0.925C61.8483 0.545 62.2583 0.36 62.7783 0.36Z" fill="white"/>
</svg>
