<svg width="57" height="5" viewBox="0 0 57 5" fill="none" xmlns="http://www.w3.org/2000/svg">
<path opacity="0.8" d="M0.365 0.43H1.935C2.255 0.43 2.515 0.505 2.705 0.665C2.895 0.825 2.99 1.045 2.99 1.325C2.99 1.53 2.93 1.705 2.815 1.85C2.7 1.99 2.55 2.085 2.37 2.14C2.605 2.18 2.79 2.275 2.93 2.425C3.065 2.58 3.135 2.775 3.135 3.015C3.135 3.355 3.01 3.61 2.77 3.78C2.56 3.925 2.275 4 1.92 4H0.365V0.43ZM0.67 0.695V2.025H1.87C2.125 2.025 2.325 1.965 2.465 1.855C2.61 1.74 2.685 1.575 2.685 1.355C2.685 1.135 2.61 0.965 2.47 0.855C2.325 0.745 2.125 0.695 1.875 0.695H0.67ZM0.67 2.285V3.735H1.91C2.175 3.735 2.39 3.68 2.55 3.575C2.735 3.445 2.83 3.26 2.83 3.01C2.83 2.765 2.74 2.58 2.57 2.46C2.405 2.34 2.185 2.285 1.905 2.285H0.67ZM4.77961 0.43H5.13961L6.56961 4H6.23461L5.81961 2.935H4.09961L3.68461 4H3.34961L4.77961 0.43ZM4.19961 2.675H5.71961L4.96961 0.76H4.95461L4.19961 2.675ZM6.93238 0.43H7.23738V3.73H9.38238V4H6.93238V0.43ZM9.86207 0.43H10.1671V3.73H12.3121V4H9.86207V0.43ZM15.6218 0.36C16.0118 0.36 16.3218 0.455 16.5518 0.645C16.7868 0.835 16.9218 1.115 16.9518 1.485H16.6468C16.6068 1.205 16.5018 0.995 16.3318 0.85C16.1618 0.705 15.9218 0.635 15.6118 0.635C15.3218 0.635 15.0968 0.685 14.9318 0.785C14.7418 0.895 14.6518 1.065 14.6518 1.29C14.6518 1.49 14.7618 1.645 14.9868 1.765C15.0918 1.815 15.3218 1.895 15.6718 1.995C16.1268 2.125 16.4318 2.235 16.5918 2.335C16.8868 2.51 17.0368 2.76 17.0368 3.085C17.0368 3.39 16.9068 3.635 16.6518 3.815C16.4068 3.985 16.0818 4.07 15.6768 4.07C15.2668 4.07 14.9418 3.975 14.7068 3.79C14.4368 3.575 14.2868 3.25 14.2568 2.82H14.5568C14.5918 3.155 14.7068 3.405 14.9068 3.57C15.0868 3.715 15.3418 3.79 15.6718 3.79C15.9868 3.79 16.2418 3.725 16.4368 3.605C16.6268 3.48 16.7268 3.31 16.7268 3.1C16.7268 2.855 16.6018 2.665 16.3618 2.53C16.2418 2.46 15.9818 2.365 15.5768 2.255C15.1518 2.135 14.8768 2.04 14.7568 1.97C14.4818 1.815 14.3468 1.59 14.3468 1.3C14.3468 0.99 14.4718 0.755 14.7318 0.59C14.9618 0.435 15.2618 0.36 15.6218 0.36ZM17.5671 0.43H19.0171C19.8071 0.43 20.2071 0.77 20.2071 1.455C20.2071 2.14 19.8071 2.485 19.0121 2.485H17.8721V4H17.5671V0.43ZM17.8721 0.7V2.215H18.9971C19.3071 2.215 19.5321 2.15 19.6821 2.025C19.8221 1.9 19.8971 1.71 19.8971 1.455C19.8971 1.2 19.8221 1.015 19.6821 0.895C19.5321 0.765 19.3021 0.7 18.9971 0.7H17.8721ZM22.2811 0.36C22.8061 0.36 23.2211 0.54 23.5311 0.9C23.8211 1.24 23.9661 1.675 23.9661 2.215C23.9661 2.755 23.8211 3.195 23.5311 3.535C23.2211 3.89 22.8061 4.07 22.2761 4.07C21.7461 4.07 21.3261 3.89 21.0211 3.53C20.7311 3.19 20.5861 2.75 20.5861 2.215C20.5861 1.68 20.7311 1.24 21.0211 0.9C21.3311 0.54 21.7511 0.36 22.2811 0.36ZM22.2811 0.64C21.8461 0.64 21.5011 0.79 21.2511 1.09C21.0111 1.38 20.8911 1.755 20.8911 2.215C20.8911 2.68 21.0061 3.055 21.2461 3.34C21.4961 3.64 21.8411 3.79 22.2761 3.79C22.7111 3.79 23.0511 3.64 23.3011 3.345C23.5411 3.06 23.6611 2.685 23.6611 2.215C23.6611 1.745 23.5411 1.365 23.3011 1.085C23.0511 0.785 22.7111 0.64 22.2811 0.64ZM24.5447 0.43H26.0547C26.4047 0.43 26.6847 0.51 26.8847 0.68C27.0847 0.85 27.1897 1.09 27.1897 1.41C27.1897 1.62 27.1297 1.8 27.0197 1.955C26.8997 2.115 26.7297 2.22 26.5147 2.27V2.28C26.8747 2.36 27.0747 2.58 27.1147 2.94L27.1647 3.475C27.1847 3.695 27.2397 3.87 27.3397 4H27.0047C26.9297 3.88 26.8847 3.715 26.8647 3.515L26.8197 3.025C26.7997 2.805 26.7147 2.645 26.5747 2.55C26.4447 2.46 26.2597 2.415 26.0297 2.415H24.8497V4H24.5447V0.43ZM24.8497 0.7V2.145H26.0247C26.3047 2.145 26.5197 2.075 26.6747 1.94C26.8147 1.81 26.8847 1.64 26.8847 1.42C26.8847 1.18 26.8147 1.005 26.6797 0.885C26.5397 0.76 26.3197 0.7 26.0197 0.7H24.8497ZM27.5949 0.43H30.5199V0.7H29.2099V4H28.9049V0.7H27.5949V0.43ZM32.1404 0.36C32.5304 0.36 32.8404 0.455 33.0704 0.645C33.3054 0.835 33.4404 1.115 33.4704 1.485H33.1654C33.1254 1.205 33.0204 0.995 32.8504 0.85C32.6804 0.705 32.4404 0.635 32.1304 0.635C31.8404 0.635 31.6154 0.685 31.4504 0.785C31.2604 0.895 31.1704 1.065 31.1704 1.29C31.1704 1.49 31.2804 1.645 31.5054 1.765C31.6104 1.815 31.8404 1.895 32.1904 1.995C32.6454 2.125 32.9504 2.235 33.1104 2.335C33.4054 2.51 33.5554 2.76 33.5554 3.085C33.5554 3.39 33.4254 3.635 33.1704 3.815C32.9254 3.985 32.6004 4.07 32.1954 4.07C31.7854 4.07 31.4604 3.975 31.2254 3.79C30.9554 3.575 30.8054 3.25 30.7754 2.82H31.0754C31.1104 3.155 31.2254 3.405 31.4254 3.57C31.6054 3.715 31.8604 3.79 32.1904 3.79C32.5054 3.79 32.7604 3.725 32.9554 3.605C33.1454 3.48 33.2454 3.31 33.2454 3.1C33.2454 2.855 33.1204 2.665 32.8804 2.53C32.7604 2.46 32.5004 2.365 32.0954 2.255C31.6704 2.135 31.3954 2.04 31.2754 1.97C31.0004 1.815 30.8654 1.59 30.8654 1.3C30.8654 0.99 30.9904 0.755 31.2504 0.59C31.4804 0.435 31.7804 0.36 32.1404 0.36ZM37.2607 0.36C37.7007 0.36 38.0507 0.47 38.3157 0.695C38.5607 0.905 38.7157 1.205 38.7807 1.585H38.4707C38.4157 1.295 38.2907 1.065 38.0907 0.9C37.8807 0.725 37.6007 0.64 37.2607 0.64C36.8407 0.64 36.5107 0.79 36.2657 1.09C36.0257 1.38 35.9057 1.76 35.9057 2.235C35.9057 2.7 36.0257 3.07 36.2657 3.345C36.5207 3.645 36.8857 3.795 37.3657 3.795C37.5757 3.795 37.7757 3.765 37.9757 3.705C38.1657 3.645 38.3307 3.575 38.4607 3.485V2.47H37.2407V2.2H38.7657V3.63C38.6007 3.76 38.3957 3.87 38.1507 3.95C37.8907 4.03 37.6207 4.07 37.3407 4.07C36.7807 4.07 36.3407 3.885 36.0307 3.525C35.7407 3.19 35.6007 2.76 35.6007 2.235C35.6007 1.705 35.7407 1.27 36.0257 0.925C36.3307 0.545 36.7407 0.36 37.2607 0.36ZM39.4666 0.43H40.9766C41.3266 0.43 41.6066 0.51 41.8066 0.68C42.0066 0.85 42.1116 1.09 42.1116 1.41C42.1116 1.62 42.0516 1.8 41.9416 1.955C41.8216 2.115 41.6516 2.22 41.4366 2.27V2.28C41.7966 2.36 41.9966 2.58 42.0366 2.94L42.0866 3.475C42.1066 3.695 42.1616 3.87 42.2616 4H41.9266C41.8516 3.88 41.8066 3.715 41.7866 3.515L41.7416 3.025C41.7216 2.805 41.6366 2.645 41.4966 2.55C41.3666 2.46 41.1816 2.415 40.9516 2.415H39.7716V4H39.4666V0.43ZM39.7716 0.7V2.145H40.9466C41.2266 2.145 41.4416 2.075 41.5966 1.94C41.7366 1.81 41.8066 1.64 41.8066 1.42C41.8066 1.18 41.7366 1.005 41.6016 0.885C41.4616 0.76 41.2416 0.7 40.9416 0.7H39.7716ZM44.3368 0.36C44.8618 0.36 45.2768 0.54 45.5868 0.9C45.8768 1.24 46.0218 1.675 46.0218 2.215C46.0218 2.755 45.8768 3.195 45.5868 3.535C45.2768 3.89 44.8618 4.07 44.3318 4.07C43.8018 4.07 43.3818 3.89 43.0768 3.53C42.7868 3.19 42.6418 2.75 42.6418 2.215C42.6418 1.68 42.7868 1.24 43.0768 0.9C43.3868 0.54 43.8068 0.36 44.3368 0.36ZM44.3368 0.64C43.9018 0.64 43.5568 0.79 43.3068 1.09C43.0668 1.38 42.9468 1.755 42.9468 2.215C42.9468 2.68 43.0618 3.055 43.3018 3.34C43.5518 3.64 43.8968 3.79 44.3318 3.79C44.7668 3.79 45.1068 3.64 45.3568 3.345C45.5968 3.06 45.7168 2.685 45.7168 2.215C45.7168 1.745 45.5968 1.365 45.3568 1.085C45.1068 0.785 44.7668 0.64 44.3368 0.64ZM46.6004 0.43H46.9054V2.62C46.9054 3 46.9854 3.29 47.1554 3.485C47.3354 3.69 47.6104 3.795 47.9904 3.795C48.3704 3.795 48.6454 3.69 48.8254 3.485C48.9904 3.29 49.0754 3 49.0754 2.62V0.43H49.3804V2.62C49.3804 3.085 49.2654 3.44 49.0454 3.685C48.8104 3.94 48.4604 4.07 47.9904 4.07C47.5204 4.07 47.1704 3.94 46.9404 3.69C46.7104 3.44 46.6004 3.085 46.6004 2.62V0.43ZM50.1111 0.43H50.4561L52.6161 3.525H52.6311V0.43H52.9411V4H52.6011L50.4311 0.88H50.4161V4H50.1111V0.43ZM53.6707 0.43H54.9407C55.4957 0.43 55.9157 0.595 56.1957 0.93C56.4507 1.23 56.5807 1.66 56.5807 2.215C56.5807 2.76 56.4357 3.19 56.1507 3.505C55.8507 3.835 55.4257 4 54.8757 4H53.6707V0.43ZM53.9757 0.7V3.73H54.8307C55.3057 3.73 55.6707 3.595 55.9207 3.325C56.1607 3.065 56.2807 2.695 56.2807 2.215C56.2807 1.715 56.1757 1.345 55.9657 1.1C55.7357 0.83 55.3757 0.7 54.8957 0.7H53.9757Z" fill="white"/>
</svg>
