<svg width="45" height="5" viewBox="0 0 45 5" fill="none" xmlns="http://www.w3.org/2000/svg">
<path opacity="0.8" d="M0.365 0.43H1.935C2.255 0.43 2.515 0.505 2.705 0.665C2.895 0.825 2.99 1.045 2.99 1.325C2.99 1.53 2.93 1.705 2.815 1.85C2.7 1.99 2.55 2.085 2.37 2.14C2.605 2.18 2.79 2.275 2.93 2.425C3.065 2.58 3.135 2.775 3.135 3.015C3.135 3.355 3.01 3.61 2.77 3.78C2.56 3.925 2.275 4 1.92 4H0.365V0.43ZM0.67 0.695V2.025H1.87C2.125 2.025 2.325 1.965 2.465 1.855C2.61 1.74 2.685 1.575 2.685 1.355C2.685 1.135 2.61 0.965 2.47 0.855C2.325 0.745 2.125 0.695 1.875 0.695H0.67ZM0.67 2.285V3.735H1.91C2.175 3.735 2.39 3.68 2.55 3.575C2.735 3.445 2.83 3.26 2.83 3.01C2.83 2.765 2.74 2.58 2.57 2.46C2.405 2.34 2.185 2.285 1.905 2.285H0.67ZM3.71461 0.43H4.01961V2.62C4.01961 3 4.09961 3.29 4.26961 3.485C4.44961 3.69 4.72461 3.795 5.10461 3.795C5.48461 3.795 5.75961 3.69 5.93961 3.485C6.10461 3.29 6.18961 3 6.18961 2.62V0.43H6.49461V2.62C6.49461 3.085 6.37961 3.44 6.15961 3.685C5.92461 3.94 5.57461 4.07 5.10461 4.07C4.63461 4.07 4.28461 3.94 4.05461 3.69C3.82461 3.44 3.71461 3.085 3.71461 2.62V0.43ZM8.39035 0.36C8.78035 0.36 9.09035 0.455 9.32035 0.645C9.55535 0.835 9.69035 1.115 9.72035 1.485H9.41535C9.37535 1.205 9.27035 0.995 9.10035 0.85C8.93035 0.705 8.69035 0.635 8.38035 0.635C8.09035 0.635 7.86535 0.685 7.70035 0.785C7.51035 0.895 7.42035 1.065 7.42035 1.29C7.42035 1.49 7.53035 1.645 7.75535 1.765C7.86035 1.815 8.09035 1.895 8.44035 1.995C8.89535 2.125 9.20035 2.235 9.36035 2.335C9.65535 2.51 9.80535 2.76 9.80535 3.085C9.80535 3.39 9.67535 3.635 9.42035 3.815C9.17535 3.985 8.85035 4.07 8.44535 4.07C8.03535 4.07 7.71035 3.975 7.47535 3.79C7.20535 3.575 7.05535 3.25 7.02535 2.82H7.32535C7.36035 3.155 7.47535 3.405 7.67535 3.57C7.85535 3.715 8.11035 3.79 8.44035 3.79C8.75535 3.79 9.01035 3.725 9.20535 3.605C9.39535 3.48 9.49535 3.31 9.49535 3.1C9.49535 2.855 9.37035 2.665 9.13035 2.53C9.01035 2.46 8.75035 2.365 8.34535 2.255C7.92035 2.135 7.64535 2.04 7.52535 1.97C7.25035 1.815 7.11535 1.59 7.11535 1.3C7.11535 0.99 7.24035 0.755 7.50035 0.59C7.73035 0.435 8.03035 0.36 8.39035 0.36ZM10.3807 0.43H10.6857V4H10.3807V0.43ZM11.4588 0.43H11.8038L13.9638 3.525H13.9788V0.43H14.2888V4H13.9488L11.7788 0.88H11.7638V4H11.4588V0.43ZM15.0183 0.43H17.5233V0.7H15.3233V2.015H17.4033V2.29H15.3233V3.73H17.6083V4H15.0183V0.43ZM19.3523 0.36C19.7423 0.36 20.0523 0.455 20.2823 0.645C20.5173 0.835 20.6523 1.115 20.6823 1.485H20.3773C20.3373 1.205 20.2323 0.995 20.0623 0.85C19.8923 0.705 19.6523 0.635 19.3423 0.635C19.0523 0.635 18.8273 0.685 18.6623 0.785C18.4723 0.895 18.3823 1.065 18.3823 1.29C18.3823 1.49 18.4923 1.645 18.7173 1.765C18.8223 1.815 19.0523 1.895 19.4023 1.995C19.8573 2.125 20.1623 2.235 20.3223 2.335C20.6173 2.51 20.7673 2.76 20.7673 3.085C20.7673 3.39 20.6373 3.635 20.3823 3.815C20.1373 3.985 19.8123 4.07 19.4073 4.07C18.9973 4.07 18.6723 3.975 18.4373 3.79C18.1673 3.575 18.0173 3.25 17.9873 2.82H18.2873C18.3223 3.155 18.4373 3.405 18.6373 3.57C18.8173 3.715 19.0723 3.79 19.4023 3.79C19.7173 3.79 19.9723 3.725 20.1673 3.605C20.3573 3.48 20.4573 3.31 20.4573 3.1C20.4573 2.855 20.3323 2.665 20.0923 2.53C19.9723 2.46 19.7123 2.365 19.3073 2.255C18.8823 2.135 18.6073 2.04 18.4873 1.97C18.2123 1.815 18.0773 1.59 18.0773 1.3C18.0773 0.99 18.2023 0.755 18.4623 0.59C18.6923 0.435 18.9923 0.36 19.3523 0.36ZM22.4626 0.36C22.8526 0.36 23.1626 0.455 23.3926 0.645C23.6276 0.835 23.7626 1.115 23.7926 1.485H23.4876C23.4476 1.205 23.3426 0.995 23.1726 0.85C23.0026 0.705 22.7626 0.635 22.4526 0.635C22.1626 0.635 21.9376 0.685 21.7726 0.785C21.5826 0.895 21.4926 1.065 21.4926 1.29C21.4926 1.49 21.6026 1.645 21.8276 1.765C21.9326 1.815 22.1626 1.895 22.5126 1.995C22.9676 2.125 23.2726 2.235 23.4326 2.335C23.7276 2.51 23.8776 2.76 23.8776 3.085C23.8776 3.39 23.7476 3.635 23.4926 3.815C23.2476 3.985 22.9226 4.07 22.5176 4.07C22.1076 4.07 21.7826 3.975 21.5476 3.79C21.2776 3.575 21.1276 3.25 21.0976 2.82H21.3976C21.4326 3.155 21.5476 3.405 21.7476 3.57C21.9276 3.715 22.1826 3.79 22.5126 3.79C22.8276 3.79 23.0826 3.725 23.2776 3.605C23.4676 3.48 23.5676 3.31 23.5676 3.1C23.5676 2.855 23.4426 2.665 23.2026 2.53C23.0826 2.46 22.8226 2.365 22.4176 2.255C21.9926 2.135 21.7176 2.04 21.5976 1.97C21.3226 1.815 21.1876 1.59 21.1876 1.3C21.1876 0.99 21.3126 0.755 21.5726 0.59C21.8026 0.435 22.1026 0.36 22.4626 0.36ZM27.238 0.36C27.628 0.36 27.938 0.455 28.168 0.645C28.403 0.835 28.538 1.115 28.568 1.485H28.263C28.223 1.205 28.118 0.995 27.948 0.85C27.778 0.705 27.538 0.635 27.228 0.635C26.938 0.635 26.713 0.685 26.548 0.785C26.358 0.895 26.268 1.065 26.268 1.29C26.268 1.49 26.378 1.645 26.603 1.765C26.708 1.815 26.938 1.895 27.288 1.995C27.743 2.125 28.048 2.235 28.208 2.335C28.503 2.51 28.653 2.76 28.653 3.085C28.653 3.39 28.523 3.635 28.268 3.815C28.023 3.985 27.698 4.07 27.293 4.07C26.883 4.07 26.558 3.975 26.323 3.79C26.053 3.575 25.903 3.25 25.873 2.82H26.173C26.208 3.155 26.323 3.405 26.523 3.57C26.703 3.715 26.958 3.79 27.288 3.79C27.603 3.79 27.858 3.725 28.053 3.605C28.243 3.48 28.343 3.31 28.343 3.1C28.343 2.855 28.218 2.665 27.978 2.53C27.858 2.46 27.598 2.365 27.193 2.255C26.768 2.135 26.493 2.04 26.373 1.97C26.098 1.815 25.963 1.59 25.963 1.3C25.963 0.99 26.088 0.755 26.348 0.59C26.578 0.435 26.878 0.36 27.238 0.36ZM28.9084 0.43H31.8334V0.7H30.5234V4H30.2184V0.7H28.9084V0.43ZM32.2888 0.43H33.7988C34.1488 0.43 34.4288 0.51 34.6288 0.68C34.8288 0.85 34.9338 1.09 34.9338 1.41C34.9338 1.62 34.8738 1.8 34.7638 1.955C34.6438 2.115 34.4738 2.22 34.2588 2.27V2.28C34.6188 2.36 34.8188 2.58 34.8588 2.94L34.9088 3.475C34.9288 3.695 34.9838 3.87 35.0838 4H34.7488C34.6738 3.88 34.6288 3.715 34.6088 3.515L34.5638 3.025C34.5438 2.805 34.4588 2.645 34.3188 2.55C34.1888 2.46 34.0038 2.415 33.7738 2.415H32.5938V4H32.2888V0.43ZM32.5938 0.7V2.145H33.7688C34.0488 2.145 34.2638 2.075 34.4188 1.94C34.5588 1.81 34.6288 1.64 34.6288 1.42C34.6288 1.18 34.5588 1.005 34.4238 0.885C34.2838 0.76 34.0638 0.7 33.7638 0.7H32.5938ZM35.614 0.43H38.119V0.7H35.919V2.015H37.999V2.29H35.919V3.73H38.204V4H35.614V0.43ZM38.783 0.43H41.288V0.7H39.088V2.015H41.168V2.29H39.088V3.73H41.373V4H38.783V0.43ZM41.6769 0.43H44.6019V0.7H43.2919V4H42.9869V0.7H41.6769V0.43Z" fill="white"/>
</svg>
