<svg width="30" height="5" viewBox="0 0 30 5" fill="none" xmlns="http://www.w3.org/2000/svg">
<path opacity="0.8" d="M0.365 0.43H1.635C2.19 0.43 2.61 0.595 2.89 0.93C3.145 1.23 3.275 1.66 3.275 2.215C3.275 2.76 3.13 3.19 2.845 3.505C2.545 3.835 2.12 4 1.57 4H0.365V0.43ZM0.67 0.7V3.73H1.525C2 3.73 2.365 3.595 2.615 3.325C2.855 3.065 2.975 2.695 2.975 2.215C2.975 1.715 2.87 1.345 2.66 1.1C2.43 0.83 2.07 0.7 1.59 0.7H0.67ZM5.40121 0.36C5.92621 0.36 6.34121 0.54 6.65121 0.9C6.94121 1.24 7.08621 1.675 7.08621 2.215C7.08621 2.755 6.94121 3.195 6.65121 3.535C6.34121 3.89 5.92621 4.07 5.39621 4.07C4.86621 4.07 4.44621 3.89 4.14121 3.53C3.85121 3.19 3.70621 2.75 3.70621 2.215C3.70621 1.68 3.85121 1.24 4.14121 0.9C4.45121 0.54 4.87121 0.36 5.40121 0.36ZM5.40121 0.64C4.96621 0.64 4.62121 0.79 4.37121 1.09C4.13121 1.38 4.01121 1.755 4.01121 2.215C4.01121 2.68 4.12621 3.055 4.36621 3.34C4.61621 3.64 4.96121 3.79 5.39621 3.79C5.83121 3.79 6.17121 3.64 6.42121 3.345C6.66121 3.06 6.78121 2.685 6.78121 2.215C6.78121 1.745 6.66121 1.365 6.42121 1.085C6.17121 0.785 5.83121 0.64 5.40121 0.64ZM7.6648 0.43H9.1748C9.5248 0.43 9.8048 0.51 10.0048 0.68C10.2048 0.85 10.3098 1.09 10.3098 1.41C10.3098 1.62 10.2498 1.8 10.1398 1.955C10.0198 2.115 9.8498 2.22 9.6348 2.27V2.28C9.9948 2.36 10.1948 2.58 10.2348 2.94L10.2848 3.475C10.3048 3.695 10.3598 3.87 10.4598 4H10.1248C10.0498 3.88 10.0048 3.715 9.9848 3.515L9.9398 3.025C9.9198 2.805 9.8348 2.645 9.6948 2.55C9.5648 2.46 9.3798 2.415 9.1498 2.415H7.9698V4H7.6648V0.43ZM7.9698 0.7V2.145H9.1448C9.4248 2.145 9.6398 2.075 9.7948 1.94C9.9348 1.81 10.0048 1.64 10.0048 1.42C10.0048 1.18 9.9348 1.005 9.7998 0.885C9.6598 0.76 9.4398 0.7 9.1398 0.7H7.9698ZM10.99 0.43H11.395L12.795 3.615H12.81L14.2 0.43H14.605V4H14.3V0.935H14.285L12.945 4H12.65L11.315 0.935H11.295V4H10.99V0.43ZM15.3807 0.43H15.6857V4H15.3807V0.43ZM16.1838 0.43H19.1088V0.7H17.7988V4H17.4938V0.7H16.1838V0.43ZM21.1092 0.36C21.6342 0.36 22.0492 0.54 22.3592 0.9C22.6492 1.24 22.7942 1.675 22.7942 2.215C22.7942 2.755 22.6492 3.195 22.3592 3.535C22.0492 3.89 21.6342 4.07 21.1042 4.07C20.5742 4.07 20.1542 3.89 19.8492 3.53C19.5592 3.19 19.4142 2.75 19.4142 2.215C19.4142 1.68 19.5592 1.24 19.8492 0.9C20.1592 0.54 20.5792 0.36 21.1092 0.36ZM21.1092 0.64C20.6742 0.64 20.3292 0.79 20.0792 1.09C19.8392 1.38 19.7192 1.755 19.7192 2.215C19.7192 2.68 19.8342 3.055 20.0742 3.34C20.3242 3.64 20.6692 3.79 21.1042 3.79C21.5392 3.79 21.8792 3.64 22.1292 3.345C22.3692 3.06 22.4892 2.685 22.4892 2.215C22.4892 1.745 22.3692 1.365 22.1292 1.085C21.8792 0.785 21.5392 0.64 21.1092 0.64ZM23.3728 0.43H24.8828C25.2328 0.43 25.5128 0.51 25.7128 0.68C25.9128 0.85 26.0178 1.09 26.0178 1.41C26.0178 1.62 25.9578 1.8 25.8478 1.955C25.7278 2.115 25.5578 2.22 25.3428 2.27V2.28C25.7028 2.36 25.9028 2.58 25.9428 2.94L25.9928 3.475C26.0128 3.695 26.0678 3.87 26.1678 4H25.8328C25.7578 3.88 25.7128 3.715 25.6928 3.515L25.6478 3.025C25.6278 2.805 25.5428 2.645 25.4028 2.55C25.2728 2.46 25.0878 2.415 24.8578 2.415H23.6778V4H23.3728V0.43ZM23.6778 0.7V2.145H24.8528C25.1328 2.145 25.3478 2.075 25.5028 1.94C25.6428 1.81 25.7128 1.64 25.7128 1.42C25.7128 1.18 25.6428 1.005 25.5078 0.885C25.3678 0.76 25.1478 0.7 24.8478 0.7H23.6778ZM26.358 0.43H26.733L27.948 2.245L29.158 0.43H29.533L28.098 2.53V4H27.793V2.53L26.358 0.43Z" fill="white"/>
</svg>
