<svg width="48" height="5" viewBox="0 0 48 5" fill="none" xmlns="http://www.w3.org/2000/svg">
<path opacity="0.8" d="M0.365 0.43H1.635C2.19 0.43 2.61 0.595 2.89 0.93C3.145 1.23 3.275 1.66 3.275 2.215C3.275 2.76 3.13 3.19 2.845 3.505C2.545 3.835 2.12 4 1.57 4H0.365V0.43ZM0.67 0.7V3.73H1.525C2 3.73 2.365 3.595 2.615 3.325C2.855 3.065 2.975 2.695 2.975 2.215C2.975 1.715 2.87 1.345 2.66 1.1C2.43 0.83 2.07 0.7 1.59 0.7H0.67ZM3.85621 0.43H6.36121V0.7H4.16121V2.015H6.24121V2.29H4.16121V3.73H6.44621V4H3.85621V0.43ZM7.02516 0.43H7.33016V3.73H9.47516V4H7.02516V0.43ZM9.99984 0.43H10.3048V4H9.99984V0.43ZM10.7379 0.43H11.0779L12.2729 3.675H12.2879L13.4829 0.43H13.8229L12.4779 4H12.0879L10.7379 0.43ZM14.2127 0.43H16.7177V0.7H14.5177V2.015H16.5977V2.29H14.5177V3.73H16.8027V4H14.2127V0.43ZM17.3816 0.43H18.8916C19.2416 0.43 19.5216 0.51 19.7216 0.68C19.9216 0.85 20.0266 1.09 20.0266 1.41C20.0266 1.62 19.9666 1.8 19.8566 1.955C19.7366 2.115 19.5666 2.22 19.3516 2.27V2.28C19.7116 2.36 19.9116 2.58 19.9516 2.94L20.0016 3.475C20.0216 3.695 20.0766 3.87 20.1766 4H19.8416C19.7666 3.88 19.7216 3.715 19.7016 3.515L19.6566 3.025C19.6366 2.805 19.5516 2.645 19.4116 2.55C19.2816 2.46 19.0966 2.415 18.8666 2.415H17.6866V4H17.3816V0.43ZM17.6866 0.7V2.145H18.8616C19.1416 2.145 19.3566 2.075 19.5116 1.94C19.6516 1.81 19.7216 1.64 19.7216 1.42C19.7216 1.18 19.6516 1.005 19.5166 0.885C19.3766 0.76 19.1566 0.7 18.8566 0.7H17.6866ZM20.3668 0.43H20.7418L21.9568 2.245L23.1668 0.43H23.5418L22.1068 2.53V4H21.8018V2.53L20.3668 0.43ZM27.1395 0.36C27.6645 0.36 28.0795 0.54 28.3895 0.9C28.6795 1.24 28.8245 1.675 28.8245 2.215C28.8245 2.755 28.6795 3.195 28.3895 3.535C28.0795 3.89 27.6645 4.07 27.1345 4.07C26.6045 4.07 26.1845 3.89 25.8795 3.53C25.5895 3.19 25.4445 2.75 25.4445 2.215C25.4445 1.68 25.5895 1.24 25.8795 0.9C26.1895 0.54 26.6095 0.36 27.1395 0.36ZM27.1395 0.64C26.7045 0.64 26.3595 0.79 26.1095 1.09C25.8695 1.38 25.7495 1.755 25.7495 2.215C25.7495 2.68 25.8645 3.055 26.1045 3.34C26.3545 3.64 26.6995 3.79 27.1345 3.79C27.5695 3.79 27.9095 3.64 28.1595 3.345C28.3995 3.06 28.5195 2.685 28.5195 2.215C28.5195 1.745 28.3995 1.365 28.1595 1.085C27.9095 0.785 27.5695 0.64 27.1395 0.64ZM29.4031 0.43H29.7081V2.62C29.7081 3 29.7881 3.29 29.9581 3.485C30.1381 3.69 30.4131 3.795 30.7931 3.795C31.1731 3.795 31.4481 3.69 31.6281 3.485C31.7931 3.29 31.8781 3 31.8781 2.62V0.43H32.1831V2.62C32.1831 3.085 32.0681 3.44 31.8481 3.685C31.6131 3.94 31.2631 4.07 30.7931 4.07C30.3231 4.07 29.9731 3.94 29.7431 3.69C29.5131 3.44 29.4031 3.085 29.4031 2.62V0.43ZM32.6388 0.43H35.5638V0.7H34.2538V4H33.9488V0.7H32.6388V0.43ZM36.0193 0.43H36.3243V3.73H38.4693V4H36.0193V0.43ZM38.949 0.43H41.454V0.7H39.254V2.015H41.334V2.29H39.254V3.73H41.539V4H38.949V0.43ZM41.8429 0.43H44.7679V0.7H43.4579V4H43.1529V0.7H41.8429V0.43ZM46.3884 0.36C46.7784 0.36 47.0884 0.455 47.3184 0.645C47.5534 0.835 47.6884 1.115 47.7184 1.485H47.4134C47.3734 1.205 47.2684 0.995 47.0984 0.85C46.9284 0.705 46.6884 0.635 46.3784 0.635C46.0884 0.635 45.8634 0.685 45.6984 0.785C45.5084 0.895 45.4184 1.065 45.4184 1.29C45.4184 1.49 45.5284 1.645 45.7534 1.765C45.8584 1.815 46.0884 1.895 46.4384 1.995C46.8934 2.125 47.1984 2.235 47.3584 2.335C47.6534 2.51 47.8034 2.76 47.8034 3.085C47.8034 3.39 47.6734 3.635 47.4184 3.815C47.1734 3.985 46.8484 4.07 46.4434 4.07C46.0334 4.07 45.7084 3.975 45.4734 3.79C45.2034 3.575 45.0534 3.25 45.0234 2.82H45.3234C45.3584 3.155 45.4734 3.405 45.6734 3.57C45.8534 3.715 46.1084 3.79 46.4384 3.79C46.7534 3.79 47.0084 3.725 47.2034 3.605C47.3934 3.48 47.4934 3.31 47.4934 3.1C47.4934 2.855 47.3684 2.665 47.1284 2.53C47.0084 2.46 46.7484 2.365 46.3434 2.255C45.9184 2.135 45.6434 2.04 45.5234 1.97C45.2484 1.815 45.1134 1.59 45.1134 1.3C45.1134 0.99 45.2384 0.755 45.4984 0.59C45.7284 0.435 46.0284 0.36 46.3884 0.36Z" fill="white"/>
</svg>
