<svg width="28" height="5" viewBox="0 0 28 5" fill="none" xmlns="http://www.w3.org/2000/svg">
<path opacity="0.8" d="M0.365 0.43H2.87V0.7H0.67V2.015H2.75V2.29H0.67V3.73H2.955V4H0.365V0.43ZM4.59895 0.43H4.95895L6.38895 4H6.05395L5.63895 2.935H3.91895L3.50395 4H3.16895L4.59895 0.43ZM4.01895 2.675H5.53895L4.78895 0.76H4.77395L4.01895 2.675ZM7.91672 0.36C8.30672 0.36 8.61672 0.455 8.84672 0.645C9.08172 0.835 9.21672 1.115 9.24672 1.485H8.94172C8.90172 1.205 8.79672 0.995 8.62672 0.85C8.45672 0.705 8.21672 0.635 7.90672 0.635C7.61672 0.635 7.39172 0.685 7.22672 0.785C7.03672 0.895 6.94672 1.065 6.94672 1.29C6.94672 1.49 7.05672 1.645 7.28172 1.765C7.38672 1.815 7.61672 1.895 7.96672 1.995C8.42172 2.125 8.72672 2.235 8.88672 2.335C9.18172 2.51 9.33172 2.76 9.33172 3.085C9.33172 3.39 9.20172 3.635 8.94672 3.815C8.70172 3.985 8.37672 4.07 7.97172 4.07C7.56172 4.07 7.23672 3.975 7.00172 3.79C6.73172 3.575 6.58172 3.25 6.55172 2.82H6.85172C6.88672 3.155 7.00172 3.405 7.20172 3.57C7.38172 3.715 7.63672 3.79 7.96672 3.79C8.28172 3.79 8.53672 3.725 8.73172 3.605C8.92172 3.48 9.02172 3.31 9.02172 3.1C9.02172 2.855 8.89672 2.665 8.65672 2.53C8.53672 2.46 8.27672 2.365 7.87172 2.255C7.44672 2.135 7.17172 2.04 7.05172 1.97C6.77672 1.815 6.64172 1.59 6.64172 1.3C6.64172 0.99 6.76672 0.755 7.02672 0.59C7.25672 0.435 7.55672 0.36 7.91672 0.36ZM9.58707 0.43H12.5121V0.7H11.2021V4H10.8971V0.7H9.58707V0.43ZM16.1426 0.36C16.5826 0.36 16.9326 0.47 17.1976 0.695C17.4426 0.905 17.5976 1.205 17.6626 1.585H17.3526C17.2976 1.295 17.1726 1.065 16.9726 0.9C16.7626 0.725 16.4826 0.64 16.1426 0.64C15.7226 0.64 15.3926 0.79 15.1476 1.09C14.9076 1.38 14.7876 1.76 14.7876 2.235C14.7876 2.7 14.9076 3.07 15.1476 3.345C15.4026 3.645 15.7676 3.795 16.2476 3.795C16.4576 3.795 16.6576 3.765 16.8576 3.705C17.0476 3.645 17.2126 3.575 17.3426 3.485V2.47H16.1226V2.2H17.6476V3.63C17.4826 3.76 17.2776 3.87 17.0326 3.95C16.7726 4.03 16.5026 4.07 16.2226 4.07C15.6626 4.07 15.2226 3.885 14.9126 3.525C14.6226 3.19 14.4826 2.76 14.4826 2.235C14.4826 1.705 14.6226 1.27 14.9076 0.925C15.2126 0.545 15.6226 0.36 16.1426 0.36ZM19.4134 0.43H19.7734L21.2034 4H20.8684L20.4534 2.935H18.7334L18.3184 4H17.9834L19.4134 0.43ZM18.8334 2.675H20.3534L19.6034 0.76H19.5884L18.8334 2.675ZM21.2912 0.43H24.2162V0.7H22.9062V4H22.6012V0.7H21.2912V0.43ZM24.6716 0.43H27.1766V0.7H24.9766V2.015H27.0566V2.29H24.9766V3.73H27.2616V4H24.6716V0.43Z" fill="white"/>
</svg>
