<svg width="34" height="5" viewBox="0 0 34 5" fill="none" xmlns="http://www.w3.org/2000/svg">
<path opacity="0.8" d="M0.09 0.43H3.015V0.7H1.705V4H1.4V0.7H0.09V0.43ZM4.53547 0.43H4.89547L6.32547 4H5.99047L5.57547 2.935H3.85547L3.44047 4H3.10547L4.53547 0.43ZM3.95547 2.675H5.47547L4.72547 0.76H4.71047L3.95547 2.675ZM6.68824 0.43H6.99324V2.62C6.99324 3 7.07324 3.29 7.24324 3.485C7.42324 3.69 7.69824 3.795 8.07824 3.795C8.45824 3.795 8.73324 3.69 8.91324 3.485C9.07824 3.29 9.16324 3 9.16324 2.62V0.43H9.46824V2.62C9.46824 3.085 9.35324 3.44 9.13324 3.685C8.89824 3.94 8.54824 4.07 8.07824 4.07C7.60824 4.07 7.25824 3.94 7.02824 3.69C6.79824 3.44 6.68824 3.085 6.68824 2.62V0.43ZM10.199 0.43H11.769C12.089 0.43 12.349 0.505 12.539 0.665C12.729 0.825 12.824 1.045 12.824 1.325C12.824 1.53 12.764 1.705 12.649 1.85C12.534 1.99 12.384 2.085 12.204 2.14C12.439 2.18 12.624 2.275 12.764 2.425C12.899 2.58 12.969 2.775 12.969 3.015C12.969 3.355 12.844 3.61 12.604 3.78C12.394 3.925 12.109 4 11.754 4H10.199V0.43ZM10.504 0.695V2.025H11.704C11.959 2.025 12.159 1.965 12.299 1.855C12.444 1.74 12.519 1.575 12.519 1.355C12.519 1.135 12.444 0.965 12.304 0.855C12.159 0.745 11.959 0.695 11.709 0.695H10.504ZM10.504 2.285V3.735H11.744C12.009 3.735 12.224 3.68 12.384 3.575C12.569 3.445 12.664 3.26 12.664 3.01C12.664 2.765 12.574 2.58 12.404 2.46C12.239 2.34 12.019 2.285 11.739 2.285H10.504ZM13.5486 0.43H16.0536V0.7H13.8536V2.015H15.9336V2.29H13.8536V3.73H16.1386V4H13.5486V0.43ZM16.7175 0.43H17.0625L19.2225 3.525H19.2375V0.43H19.5475V4H19.2075L17.0375 0.88H17.0225V4H16.7175V0.43ZM20.2771 0.43H20.5821V2.015H22.7971V0.43H23.1021V4H22.7971V2.29H20.5821V4H20.2771V0.43ZM24.8968 0.43H25.2568L26.6868 4H26.3518L25.9368 2.935H24.2168L23.8018 4H23.4668L24.8968 0.43ZM24.3168 2.675H25.8368L25.0868 0.76H25.0718L24.3168 2.675ZM27.0496 0.43H27.3546V2.62C27.3546 3 27.4346 3.29 27.6046 3.485C27.7846 3.69 28.0596 3.795 28.4396 3.795C28.8196 3.795 29.0946 3.69 29.2746 3.485C29.4396 3.29 29.5246 3 29.5246 2.62V0.43H29.8296V2.62C29.8296 3.085 29.7146 3.44 29.4946 3.685C29.2596 3.94 28.9096 4.07 28.4396 4.07C27.9696 4.07 27.6196 3.94 27.3896 3.69C27.1596 3.44 27.0496 3.085 27.0496 2.62V0.43ZM31.7253 0.36C32.1153 0.36 32.4253 0.455 32.6553 0.645C32.8903 0.835 33.0253 1.115 33.0553 1.485H32.7503C32.7103 1.205 32.6053 0.995 32.4353 0.85C32.2653 0.705 32.0253 0.635 31.7153 0.635C31.4253 0.635 31.2003 0.685 31.0353 0.785C30.8453 0.895 30.7553 1.065 30.7553 1.29C30.7553 1.49 30.8653 1.645 31.0903 1.765C31.1953 1.815 31.4253 1.895 31.7753 1.995C32.2303 2.125 32.5353 2.235 32.6953 2.335C32.9903 2.51 33.1403 2.76 33.1403 3.085C33.1403 3.39 33.0103 3.635 32.7553 3.815C32.5103 3.985 32.1853 4.07 31.7803 4.07C31.3703 4.07 31.0453 3.975 30.8103 3.79C30.5403 3.575 30.3903 3.25 30.3603 2.82H30.6603C30.6953 3.155 30.8103 3.405 31.0103 3.57C31.1903 3.715 31.4453 3.79 31.7753 3.79C32.0903 3.79 32.3453 3.725 32.5403 3.605C32.7303 3.48 32.8303 3.31 32.8303 3.1C32.8303 2.855 32.7053 2.665 32.4653 2.53C32.3453 2.46 32.0853 2.365 31.6803 2.255C31.2553 2.135 30.9803 2.04 30.8603 1.97C30.5853 1.815 30.4503 1.59 30.4503 1.3C30.4503 0.99 30.5753 0.755 30.8353 0.59C31.0653 0.435 31.3653 0.36 31.7253 0.36Z" fill="white"/>
</svg>
