<svg width="29" height="5" viewBox="0 0 29 5" fill="none" xmlns="http://www.w3.org/2000/svg">
<path opacity="0.8" d="M1.53 0.36C1.92 0.36 2.23 0.455 2.46 0.645C2.695 0.835 2.83 1.115 2.86 1.485H2.555C2.515 1.205 2.41 0.995 2.24 0.85C2.07 0.705 1.83 0.635 1.52 0.635C1.23 0.635 1.005 0.685 0.84 0.785C0.65 0.895 0.56 1.065 0.56 1.29C0.56 1.49 0.67 1.645 0.895 1.765C1 1.815 1.23 1.895 1.58 1.995C2.035 2.125 2.34 2.235 2.5 2.335C2.795 2.51 2.945 2.76 2.945 3.085C2.945 3.39 2.815 3.635 2.56 3.815C2.315 3.985 1.99 4.07 1.585 4.07C1.175 4.07 0.85 3.975 0.615 3.79C0.345 3.575 0.195 3.25 0.165 2.82H0.465C0.5 3.155 0.615 3.405 0.815 3.57C0.995 3.715 1.25 3.79 1.58 3.79C1.895 3.79 2.15 3.725 2.345 3.605C2.535 3.48 2.635 3.31 2.635 3.1C2.635 2.855 2.51 2.665 2.27 2.53C2.15 2.46 1.89 2.365 1.485 2.255C1.06 2.135 0.785 2.04 0.665 1.97C0.39 1.815 0.255 1.59 0.255 1.3C0.255 0.99 0.38 0.755 0.64 0.59C0.87 0.435 1.17 0.36 1.53 0.36ZM3.13535 0.43H3.48035L4.33535 3.59H4.35035L5.22535 0.43H5.58035L6.45535 3.59H6.47035L7.32535 0.43H7.67035L6.64535 4H6.28535L5.41035 0.86H5.39535L4.52035 4H4.16035L3.13535 0.43ZM9.12531 0.43H9.48531L10.9153 4H10.5803L10.1653 2.935H8.44531L8.03031 4H7.69531L9.12531 0.43ZM8.54531 2.675H10.0653L9.31531 0.76H9.30031L8.54531 2.675ZM11.2781 0.43H11.6231L13.7831 3.525H13.7981V0.43H14.1081V4H13.7681L11.5981 0.88H11.5831V4H11.2781V0.43ZM16.5027 0.43H16.8077V3.73H18.9527V4H16.5027V0.43ZM20.4974 0.43H20.8574L22.2874 4H21.9524L21.5374 2.935H19.8174L19.4024 4H19.0674L20.4974 0.43ZM19.9174 2.675H21.4374L20.6874 0.76H20.6724L19.9174 2.675ZM25.0352 0.43H25.4452L23.8052 1.955L25.6702 4H25.2502L23.5952 2.15L22.9552 2.745V4H22.6502V0.43H22.9552V2.39L25.0352 0.43ZM26.0339 0.43H28.5389V0.7H26.3389V2.015H28.4189V2.29H26.3389V3.73H28.6239V4H26.0339V0.43Z" fill="white"/>
</svg>
